if (_typeface_js && _typeface_js.loadFace) _typeface_js.loadFace({"glyphs":{"0":{"ha":836,"x_min":83,"x_max":753,"o":"m 418 -20 q 167 112 250 -20 q 83 505 83 243 q 167 900 83 768 q 418 1031 250 1031 q 669 900 586 1031 q 753 505 753 768 q 669 111 753 242 q 418 -20 586 -20 m 418 150 q 519 235 488 150 q 551 505 551 320 q 519 777 551 691 q 418 861 488 861 q 317 777 349 861 q 285 505 285 691 q 317 235 285 320 q 418 150 349 150 m 418 312 q 409 319 413 312 q 401 337 404 326 q 395 362 397 348 q 391 392 393 376 q 388 421 389 405 q 385 454 386 437 q 383 484 384 470 q 382 508 382 498 q 383 527 382 515 q 384 555 383 540 q 386 588 385 571 q 389 621 387 605 q 417 700 398 700 q 435 677 427 700 q 446 619 442 654 q 449 589 448 605 q 451 557 450 572 q 453 527 452 541 q 454 504 454 513 q 453 486 454 498 q 452 459 453 475 q 451 427 452 444 q 448 393 450 410 q 435 332 443 352 q 418 312 428 312 z "},"1":{"ha":836,"x_min":127,"x_max":770,"o":"m 127 176 l 351 176 l 351 833 l 143 782 l 143 962 l 353 1013 l 546 1013 l 546 176 l 770 176 l 770 0 l 127 0 l 127 176 z "},"2":{"ha":836,"x_min":78,"x_max":721,"o":"m 78 146 q 82 169 78 159 q 95 189 86 179 l 186 286 q 281 388 243 347 q 346 456 319 428 q 389 503 372 484 q 421 540 406 522 q 465 593 446 569 q 494 642 483 617 q 517 734 517 688 q 507 791 517 764 q 476 837 497 818 q 425 865 455 856 q 359 873 395 873 q 239 852 304 873 q 100 790 173 831 l 100 977 q 177 1002 140 991 q 242 1017 214 1012 q 310 1027 276 1024 q 378 1031 344 1031 q 516 1013 452 1031 q 628 956 580 995 q 695 870 671 921 q 720 749 720 819 q 715 693 720 719 q 699 640 710 667 q 670 582 688 611 q 631 524 653 552 q 602 490 618 509 q 562 447 585 471 q 506 390 538 422 q 433 316 475 357 q 371 257 396 278 q 329 222 347 235 q 299 199 312 209 q 274 176 287 190 l 721 176 l 721 0 l 78 0 l 78 146 z "},"3":{"ha":836,"x_min":85,"x_max":746,"o":"m 376 -20 q 302 -17 340 -20 q 227 -7 264 -14 q 157 8 193 -1 q 85 31 121 18 l 85 216 q 150 189 116 201 q 222 168 184 176 q 298 155 261 159 q 367 151 336 151 q 447 160 412 151 q 507 189 482 169 q 543 235 532 208 q 554 295 554 262 q 542 359 554 330 q 507 411 530 389 q 451 442 484 431 q 372 453 417 453 l 265 453 l 265 629 l 372 629 q 488 659 446 629 q 519 696 510 675 q 529 743 529 717 q 488 830 529 798 q 440 853 469 846 q 371 861 411 861 q 314 858 345 861 q 250 847 283 854 q 185 830 220 840 q 115 806 151 819 l 115 987 q 253 1020 186 1009 q 320 1028 288 1025 q 382 1031 352 1031 q 633 961 544 1031 q 722 768 722 890 q 710 688 722 725 q 671 621 699 652 q 524 546 618 563 q 689 460 632 527 q 732 382 718 427 q 746 281 746 338 q 723 153 746 209 q 652 58 699 96 q 536 0 606 19 q 376 -20 467 -20 z "},"4":{"ha":836,"x_min":69,"x_max":774,"o":"m 471 218 l 69 218 l 69 412 l 453 1013 l 663 1013 l 663 390 l 774 390 l 774 218 l 663 218 l 663 0 l 471 0 l 471 218 m 471 390 l 471 790 l 215 390 l 471 390 z "},"5":{"ha":836,"x_min":97,"x_max":742,"o":"m 361 -20 q 299 -17 332 -20 q 233 -9 266 -14 q 164 5 199 -3 q 97 24 130 14 l 97 204 q 155 180 127 189 q 213 163 182 170 q 272 152 243 155 q 331 149 300 149 q 492 194 438 149 q 547 322 547 239 q 532 399 547 367 q 493 453 517 431 q 432 487 469 475 q 345 500 395 500 q 294 497 321 500 q 240 487 267 494 q 183 469 212 480 q 131 447 155 458 l 131 1013 l 681 1013 l 681 836 l 293 836 l 293 648 q 315 655 300 651 q 345 663 330 660 q 374 666 357 665 q 406 667 391 667 q 541 643 477 667 q 649 572 604 618 q 718 465 693 528 q 742 323 742 401 q 715 180 742 243 q 641 73 689 117 q 524 4 593 28 q 361 -20 454 -20 z "},"6":{"ha":836,"x_min":89,"x_max":761,"o":"m 437 -21 q 282 9 348 -21 q 174 104 217 39 q 109 267 129 170 q 89 491 89 365 q 113 727 89 625 q 191 899 136 829 q 320 997 243 964 q 496 1029 397 1029 q 547 1027 524 1029 q 597 1019 571 1025 q 699 989 646 1009 l 699 807 q 646 834 671 823 q 596 853 621 846 q 500 868 547 868 q 336 795 393 868 q 277 580 280 723 q 313 619 292 602 q 358 646 334 636 q 409 662 380 656 q 476 668 439 668 q 596 647 543 668 q 686 583 650 625 q 742 478 723 541 q 761 336 761 416 q 740 186 761 254 q 677 72 720 119 q 574 2 635 24 q 437 -21 514 -21 m 436 140 q 492 152 467 140 q 536 188 518 163 q 571 323 571 235 q 536 460 571 412 q 495 495 520 482 q 435 507 470 507 q 377 495 401 507 q 337 460 353 483 q 302 324 302 412 q 312 243 302 277 q 337 187 321 210 q 380 152 355 163 q 436 140 406 140 z "},"7":{"ha":836,"x_min":92,"x_max":732,"o":"m 514 836 l 92 836 l 92 1013 l 732 1013 l 732 871 l 389 0 l 184 0 l 514 836 z "},"8":{"ha":836,"x_min":87,"x_max":749,"o":"m 418 -20 q 275 1 335 -20 q 174 60 214 22 q 109 156 130 100 q 87 281 87 212 q 100 372 87 332 q 136 445 112 412 q 269 536 184 511 q 153 620 193 563 q 123 683 133 648 q 113 760 113 717 q 133 871 113 822 q 195 958 153 921 q 418 1031 277 1031 q 642 958 559 1031 q 724 760 724 884 q 684 621 724 676 q 570 536 645 564 q 701 444 652 511 q 737 371 725 411 q 749 281 749 332 q 727 156 749 212 q 663 60 706 100 q 418 -20 576 -20 m 418 612 q 512 648 477 612 q 546 741 546 683 q 512 836 546 802 q 473 860 496 851 q 418 869 449 869 q 325 835 359 869 q 290 741 290 800 q 325 648 290 683 q 366 621 343 629 q 418 612 389 612 m 418 142 q 478 152 450 142 q 527 184 506 163 q 557 233 547 204 q 568 298 568 262 q 558 360 568 332 q 527 410 548 388 q 481 440 508 429 q 418 452 454 452 q 358 441 385 452 q 309 410 330 431 q 268 298 268 368 q 278 234 268 263 q 309 184 288 205 q 355 153 328 165 q 418 142 383 142 z "},"9":{"ha":836,"x_min":75,"x_max":747,"o":"m 340 -26 q 289 -24 313 -26 q 240 -16 265 -22 q 189 -3 214 -11 q 138 14 163 4 l 138 196 q 190 169 165 180 q 241 150 216 157 q 336 135 288 135 q 429 153 387 135 q 500 208 471 170 q 543 296 527 242 q 559 423 558 349 q 523 385 543 400 q 478 357 504 369 q 424 340 452 346 q 361 335 396 335 q 240 357 294 335 q 149 422 186 378 q 94 526 113 465 q 75 667 75 587 q 96 816 75 749 q 158 929 117 882 q 400 1022 241 1022 q 558 990 494 1022 q 663 898 622 958 q 728 732 709 830 q 747 513 747 633 q 741 377 747 438 q 721 266 734 315 q 689 176 708 216 q 646 105 670 136 q 515 5 593 37 q 340 -26 437 -26 m 399 503 q 499 550 465 503 q 533 686 533 597 q 524 767 533 732 q 499 823 515 801 q 456 858 481 846 q 399 869 431 869 q 341 857 365 869 q 300 823 317 844 q 265 686 265 775 q 300 550 265 597 q 342 514 318 526 q 399 503 366 503 z "},"\u0000":{"ha":0,"x_min":0,"x_max":0,"o":""},"\r":{"ha":836,"x_min":0,"x_max":0,"o":""}," ":{"ha":836,"x_min":0,"x_max":0,"o":""},"Ă":{"ha":836,"x_min":22,"x_max":814,"o":"m 418 1077 q 259 1122 317 1077 q 191 1256 201 1168 l 286 1256 q 419 1174 314 1174 q 549 1256 522 1174 l 646 1256 q 577 1122 635 1168 q 418 1077 519 1077 m 296 1013 l 541 1013 l 814 0 l 614 0 l 551 250 l 283 250 l 222 0 l 22 0 l 296 1013 m 513 415 l 418 829 l 323 415 l 513 415 z "},"Â":{"ha":836,"x_min":22,"x_max":814,"o":"m 313 1256 l 522 1256 l 673 1077 l 553 1077 l 418 1186 l 283 1077 l 163 1077 l 313 1256 m 296 1013 l 541 1013 l 814 0 l 614 0 l 551 250 l 283 250 l 222 0 l 22 0 l 296 1013 m 513 415 l 418 829 l 323 415 l 513 415 z "},"Ä":{"ha":836,"x_min":22,"x_max":814,"o":"m 224 1089 q 204 1109 204 1089 l 204 1236 q 224 1256 204 1256 l 344 1256 q 364 1236 364 1256 l 364 1109 q 344 1089 364 1089 l 224 1089 m 492 1089 q 472 1109 472 1089 l 472 1236 q 492 1256 472 1256 l 612 1256 q 632 1236 632 1256 l 632 1109 q 612 1089 632 1089 l 492 1089 m 296 1013 l 541 1013 l 814 0 l 614 0 l 551 250 l 283 250 l 222 0 l 22 0 l 296 1013 m 513 415 l 418 829 l 323 415 l 513 415 z "},"À":{"ha":836,"x_min":22,"x_max":814,"o":"m 192 1256 l 385 1256 l 519 1077 l 386 1077 l 192 1256 m 296 1013 l 541 1013 l 814 0 l 614 0 l 551 250 l 283 250 l 222 0 l 22 0 l 296 1013 m 513 415 l 418 829 l 323 415 l 513 415 z "},"Ā":{"ha":836,"x_min":22,"x_max":814,"o":"m 204 1236 l 632 1236 l 632 1109 l 204 1109 l 204 1236 m 296 1013 l 541 1013 l 814 0 l 614 0 l 551 250 l 283 250 l 222 0 l 22 0 l 296 1013 m 513 415 l 418 829 l 323 415 l 513 415 z "},"Ą":{"ha":836,"x_min":22,"x_max":833,"o":"m 733 -172 q 780 -167 754 -172 q 833 -151 806 -162 l 833 -257 q 765 -268 797 -264 q 707 -272 732 -272 q 585 -241 627 -272 q 543 -152 543 -210 q 562 -78 543 -115 q 618 0 580 -41 l 614 0 l 551 250 l 283 250 l 222 0 l 22 0 l 296 1013 l 541 1013 l 814 0 l 714 0 q 694 -27 703 -16 q 681 -47 686 -39 q 672 -61 675 -55 q 666 -72 669 -67 q 656 -94 659 -84 q 653 -113 653 -103 q 672 -154 653 -136 q 733 -172 691 -172 m 513 415 l 418 829 l 323 415 l 513 415 z "},"Å":{"ha":836,"x_min":22,"x_max":814,"o":"m 283 964 q 239 1022 253 990 q 229 1057 232 1038 q 225 1095 225 1076 q 241 1173 225 1137 q 281 1233 256 1208 q 340 1273 305 1257 q 418 1289 376 1289 q 492 1275 456 1289 q 555 1232 527 1261 q 595 1173 580 1208 q 611 1095 611 1138 q 608 1057 611 1076 q 597 1022 604 1038 q 553 964 583 989 l 814 0 l 614 0 l 551 250 l 283 250 l 222 0 l 22 0 l 283 964 m 419 1007 q 481 1034 455 1007 q 507 1096 507 1059 q 481 1159 507 1133 q 418 1185 454 1185 q 383 1178 399 1185 q 355 1159 367 1171 q 329 1096 329 1133 q 336 1061 329 1076 q 355 1034 343 1045 q 385 1014 368 1020 q 419 1007 401 1007 m 513 415 l 418 829 l 323 415 l 513 415 z "},"Ã":{"ha":836,"x_min":22,"x_max":814,"o":"m 182 1097 q 192 1164 182 1135 q 218 1213 201 1194 q 263 1246 237 1236 q 316 1257 288 1257 q 366 1249 341 1257 q 390 1239 375 1246 q 416 1224 404 1232 l 457 1198 q 468 1191 461 1195 q 485 1183 475 1187 q 497 1179 492 1181 q 509 1178 503 1178 q 547 1198 533 1178 q 559 1257 559 1218 l 654 1257 q 654 1253 654 1256 q 654 1247 654 1251 q 653 1242 653 1244 q 653 1238 653 1240 q 617 1121 653 1165 q 573 1087 597 1097 q 521 1077 549 1077 q 472 1084 496 1077 q 446 1095 458 1088 q 419 1110 433 1101 l 382 1133 q 379 1135 381 1134 q 374 1138 378 1137 q 348 1151 360 1145 q 325 1156 336 1156 q 290 1135 303 1156 q 277 1081 277 1114 l 277 1077 l 182 1077 l 182 1097 m 296 1013 l 541 1013 l 814 0 l 614 0 l 551 250 l 283 250 l 222 0 l 22 0 l 296 1013 m 513 415 l 418 829 l 323 415 l 513 415 z "},"Æ":{"ha":836,"x_min":0,"x_max":800,"o":"m 243 1013 l 787 1013 l 787 836 l 590 836 l 590 625 l 766 625 l 766 449 l 590 449 l 590 176 l 800 176 l 800 0 l 418 0 l 418 245 l 227 245 l 168 0 l 0 0 l 243 1013 m 418 406 l 418 836 l 364 836 l 264 406 l 418 406 z "},"B":{"ha":836,"x_min":85,"x_max":786,"o":"m 85 1014 l 411 1014 q 665 950 581 1014 q 750 758 750 886 q 700 606 750 661 q 553 542 650 551 q 656 516 612 536 q 728 464 699 496 q 786 277 786 397 q 698 66 786 132 q 411 0 610 0 l 85 0 l 85 1014 m 411 619 q 477 626 452 619 q 519 647 503 633 q 543 681 535 661 q 551 736 551 702 q 544 788 551 766 q 519 826 536 810 q 480 846 505 838 q 411 854 455 854 l 278 854 l 278 619 l 411 619 m 411 160 q 545 193 507 160 q 583 306 583 225 q 543 424 583 388 q 411 460 503 460 l 278 460 l 278 160 l 411 160 z "},"C":{"ha":836,"x_min":96,"x_max":726,"o":"m 515 -20 q 336 14 414 -20 q 203 115 258 47 q 96 505 96 250 q 203 896 96 760 q 336 997 258 964 q 515 1031 414 1031 q 573 1028 545 1031 q 627 1019 600 1025 q 726 982 680 1006 l 726 760 q 671 804 695 788 q 625 829 647 820 q 575 846 600 841 q 525 851 550 851 q 360 764 416 851 q 304 505 304 676 q 360 248 304 334 q 525 160 416 160 q 626 182 577 160 q 673 209 650 193 q 726 252 696 225 l 726 29 q 626 -7 677 5 q 573 -17 600 -14 q 515 -20 545 -20 z "},"Ć":{"ha":836,"x_min":96,"x_max":731,"o":"m 538 1256 l 731 1256 l 537 1077 l 404 1077 l 538 1256 m 515 -20 q 336 14 414 -20 q 203 115 258 47 q 96 505 96 250 q 203 896 96 760 q 336 997 258 964 q 515 1031 414 1031 q 573 1028 545 1031 q 627 1019 600 1025 q 726 982 680 1006 l 726 760 q 671 804 695 788 q 625 829 647 820 q 575 846 600 841 q 525 851 550 851 q 360 764 416 851 q 304 505 304 676 q 360 248 304 334 q 525 160 416 160 q 626 182 577 160 q 673 209 650 193 q 726 252 696 225 l 726 29 q 626 -7 677 5 q 573 -17 600 -14 q 515 -20 545 -20 z "},"Č":{"ha":836,"x_min":96,"x_max":759,"o":"m 248 1256 l 369 1256 l 503 1146 l 638 1256 l 759 1256 l 608 1077 l 398 1077 l 248 1256 m 515 -20 q 336 14 414 -20 q 203 115 258 47 q 96 505 96 250 q 203 896 96 760 q 336 997 258 964 q 515 1031 414 1031 q 573 1028 545 1031 q 627 1019 600 1025 q 726 982 680 1006 l 726 760 q 671 804 695 788 q 625 829 647 820 q 575 846 600 841 q 525 851 550 851 q 360 764 416 851 q 304 505 304 676 q 360 248 304 334 q 525 160 416 160 q 626 182 577 160 q 673 209 650 193 q 726 252 696 225 l 726 29 q 626 -7 677 5 q 573 -17 600 -14 q 515 -20 545 -20 z "},"Ç":{"ha":836,"x_min":96,"x_max":726,"o":"m 525 851 q 360 764 416 851 q 304 505 304 676 q 360 248 304 334 q 525 160 416 160 q 626 182 577 160 q 673 209 650 193 q 726 252 696 225 l 726 29 q 626 -7 677 5 q 597 -13 612 -11 q 567 -17 583 -16 q 592 -50 581 -35 q 609 -78 602 -66 q 627 -150 627 -113 q 616 -204 627 -181 q 585 -241 605 -227 q 538 -263 568 -255 q 459 -272 509 -272 q 426 -271 443 -272 q 391 -268 408 -270 q 351 -261 366 -264 q 321 -254 336 -258 l 321 -149 q 351 -158 336 -154 q 380 -166 366 -163 q 433 -172 408 -172 q 494 -157 471 -172 q 516 -115 516 -141 q 502 -68 516 -96 q 489 -45 496 -58 q 470 -18 481 -33 q 203 115 298 -4 q 96 505 96 250 q 203 896 96 760 q 336 997 258 964 q 515 1031 414 1031 q 573 1028 545 1031 q 627 1019 600 1025 q 726 982 680 1006 l 726 760 q 671 804 695 788 q 625 829 647 820 q 575 846 600 841 q 525 851 550 851 z "},"Ċ":{"ha":836,"x_min":96,"x_max":726,"o":"m 406 1082 q 391 1088 397 1082 q 385 1103 385 1095 l 385 1228 q 391 1243 385 1237 q 406 1249 397 1249 l 551 1249 q 566 1243 559 1249 q 572 1228 572 1237 l 572 1103 q 566 1088 572 1095 q 551 1082 559 1082 l 406 1082 m 513 -20 q 334 15 412 -20 q 203 115 256 49 q 123 280 151 182 q 96 505 96 378 q 123 731 96 633 q 203 896 151 829 q 334 997 256 962 q 513 1031 412 1031 q 726 982 633 1031 l 726 760 q 626 829 674 807 q 524 851 577 851 q 359 764 415 851 q 304 505 304 677 q 359 247 304 333 q 524 160 415 160 q 626 182 577 160 q 726 252 674 204 l 726 29 q 626 -7 678 5 q 513 -20 574 -20 z "},"D":{"ha":836,"x_min":93,"x_max":774,"o":"m 93 1013 l 307 1013 q 665 895 555 1013 q 746 740 718 836 q 774 507 774 644 q 665 119 774 239 q 307 0 555 0 l 93 0 l 93 1013 m 347 180 q 515 255 465 180 q 566 507 566 330 q 515 758 566 684 q 347 832 466 832 l 293 832 l 293 180 l 347 180 z "},"Ð":{"ha":836,"x_min":0,"x_max":774,"o":"m 93 450 l 0 450 l 0 611 l 93 611 l 93 1013 l 307 1013 q 665 895 555 1013 q 746 740 718 836 q 774 507 774 644 q 665 119 774 239 q 307 0 555 0 l 93 0 l 93 450 m 347 180 q 515 255 465 180 q 566 507 566 330 q 515 758 566 684 q 347 832 466 832 l 293 832 l 293 611 l 436 611 l 436 450 l 293 450 l 293 180 l 347 180 z "},"Ď":{"ha":836,"x_min":93,"x_max":774,"o":"m 154 1261 l 275 1261 l 409 1152 l 544 1261 l 665 1261 l 513 1082 l 304 1082 l 154 1261 m 93 1013 l 307 1013 q 520 984 431 1013 q 665 894 608 956 q 747 737 721 833 q 774 507 774 642 q 747 277 774 373 q 665 119 721 180 q 520 29 608 58 q 307 0 431 0 l 93 0 l 93 1013 m 347 180 q 448 198 406 180 q 515 255 489 216 q 554 356 542 294 q 566 507 566 418 q 554 657 566 595 q 515 758 542 720 q 448 814 489 797 q 347 832 406 832 l 293 832 l 293 180 l 347 180 z "},"Đ":{"ha":836,"x_min":0,"x_max":774,"o":"m 93 450 l 0 450 l 0 611 l 93 611 l 93 1013 l 307 1013 q 520 984 431 1013 q 665 894 608 956 q 747 737 721 833 q 774 507 774 642 q 747 277 774 373 q 665 119 721 180 q 520 29 608 58 q 307 0 431 0 l 93 0 l 93 450 m 347 180 q 448 198 406 180 q 515 255 489 216 q 554 356 542 294 q 566 507 566 418 q 554 657 566 595 q 515 758 542 720 q 448 814 489 797 q 347 832 406 832 l 293 832 l 293 611 l 436 611 l 436 450 l 293 450 l 293 180 l 347 180 z "},"E":{"ha":836,"x_min":114,"x_max":745,"o":"m 114 1013 l 745 1013 l 745 836 l 314 836 l 314 618 l 704 618 l 704 441 l 314 441 l 314 176 l 745 176 l 745 0 l 114 0 l 114 1013 z "},"É":{"ha":836,"x_min":114,"x_max":745,"o":"m 474 1249 l 667 1249 l 473 1069 l 339 1069 l 474 1249 m 114 1013 l 745 1013 l 745 836 l 314 836 l 314 618 l 704 618 l 704 441 l 314 441 l 314 176 l 745 176 l 745 0 l 114 0 l 114 1013 z "},"Ě":{"ha":836,"x_min":114,"x_max":745,"o":"m 199 1256 l 319 1256 l 454 1146 l 589 1256 l 709 1256 l 558 1077 l 349 1077 l 199 1256 m 114 1013 l 745 1013 l 745 836 l 314 836 l 314 618 l 704 618 l 704 441 l 314 441 l 314 176 l 745 176 l 745 0 l 114 0 l 114 1013 z "},"Ê":{"ha":836,"x_min":114,"x_max":745,"o":"m 334 1256 l 543 1256 l 694 1077 l 574 1077 l 439 1186 l 304 1077 l 184 1077 l 334 1256 m 114 1013 l 745 1013 l 745 836 l 314 836 l 314 618 l 704 618 l 704 441 l 314 441 l 314 176 l 745 176 l 745 0 l 114 0 l 114 1013 z "},"Ë":{"ha":836,"x_min":114,"x_max":745,"o":"m 245 1089 q 225 1109 225 1089 l 225 1236 q 245 1256 225 1256 l 365 1256 q 385 1236 385 1256 l 385 1109 q 365 1089 385 1089 l 245 1089 m 513 1089 q 493 1109 493 1089 l 493 1236 q 513 1256 493 1256 l 633 1256 q 653 1236 653 1256 l 653 1109 q 633 1089 653 1089 l 513 1089 m 114 1013 l 745 1013 l 745 836 l 314 836 l 314 618 l 704 618 l 704 441 l 314 441 l 314 176 l 745 176 l 745 0 l 114 0 l 114 1013 z "},"Ė":{"ha":836,"x_min":114,"x_max":745,"o":"m 367 1089 q 352 1095 358 1089 q 346 1110 346 1101 l 346 1235 q 352 1250 346 1244 q 367 1256 358 1256 l 511 1256 q 526 1250 520 1256 q 532 1235 532 1244 l 532 1110 q 526 1095 532 1101 q 511 1089 520 1089 l 367 1089 m 114 1013 l 745 1013 l 745 836 l 314 836 l 314 618 l 704 618 l 704 441 l 314 441 l 314 176 l 745 176 l 745 0 l 114 0 l 114 1013 z "},"È":{"ha":836,"x_min":114,"x_max":745,"o":"m 213 1249 l 406 1249 l 541 1070 l 407 1070 l 213 1249 m 114 1013 l 745 1013 l 745 836 l 314 836 l 314 618 l 704 618 l 704 441 l 314 441 l 314 176 l 745 176 l 745 0 l 114 0 l 114 1013 z "},"Ē":{"ha":836,"x_min":114,"x_max":745,"o":"m 225 1234 l 653 1234 l 653 1107 l 225 1107 l 225 1234 m 114 1013 l 745 1013 l 745 836 l 314 836 l 314 618 l 704 618 l 704 441 l 314 441 l 314 176 l 745 176 l 745 0 l 114 0 l 114 1013 z "},"Ę":{"ha":836,"x_min":114,"x_max":745,"o":"m 645 -172 q 692 -167 666 -172 q 745 -151 718 -162 l 745 -257 q 676 -268 709 -264 q 618 -272 644 -272 q 497 -241 539 -272 q 455 -152 455 -210 q 473 -78 455 -115 q 530 0 492 -41 l 114 0 l 114 1013 l 745 1013 l 745 836 l 314 836 l 314 618 l 704 618 l 704 441 l 314 441 l 314 176 l 745 176 l 745 0 l 626 0 q 606 -27 614 -16 q 593 -47 598 -39 q 584 -61 587 -55 q 578 -72 581 -67 q 568 -94 571 -84 q 565 -113 565 -103 q 584 -154 565 -136 q 645 -172 603 -172 z "},"F":{"ha":836,"x_min":123,"x_max":754,"o":"m 123 1013 l 754 1013 l 754 836 l 323 836 l 323 611 l 715 611 l 715 435 l 323 435 l 323 0 l 123 0 l 123 1013 z "},"G":{"ha":836,"x_min":79,"x_max":766,"o":"m 488 -20 q 315 15 391 -20 q 186 117 239 49 q 107 278 136 182 q 79 507 79 374 q 106 730 79 633 q 188 896 133 828 q 496 1031 296 1031 q 561 1027 531 1031 q 620 1014 590 1023 q 730 964 677 997 l 730 742 q 634 824 688 796 q 515 851 580 851 q 344 766 399 851 q 288 507 288 679 q 301 357 288 422 q 342 248 315 292 q 407 183 368 205 q 500 160 446 160 q 528 161 514 160 q 554 166 543 163 q 576 174 569 170 q 591 183 584 178 l 591 376 l 454 376 l 454 545 l 766 545 l 766 81 q 640 6 709 32 q 568 -13 604 -7 q 488 -20 531 -20 z "},"Ğ":{"ha":836,"x_min":79,"x_max":766,"o":"m 458 1077 q 300 1123 359 1077 q 254 1177 272 1145 q 231 1256 237 1209 l 327 1256 q 374 1195 340 1216 q 458 1174 407 1174 q 543 1194 511 1174 q 589 1256 576 1215 l 686 1256 q 618 1123 676 1169 q 547 1088 587 1099 q 458 1077 507 1077 m 488 -20 q 315 15 391 -20 q 186 117 239 49 q 107 278 136 182 q 79 507 79 374 q 106 730 79 633 q 188 896 133 828 q 496 1031 296 1031 q 561 1027 531 1031 q 620 1014 590 1023 q 730 964 677 997 l 730 742 q 634 824 688 796 q 515 851 580 851 q 344 766 399 851 q 288 507 288 679 q 301 357 288 422 q 342 248 315 292 q 406 183 368 205 q 501 160 445 160 q 554 166 528 160 q 576 174 569 170 q 591 183 584 178 l 591 376 l 454 376 l 454 545 l 766 545 l 766 81 q 640 6 709 32 q 568 -13 604 -7 q 488 -20 531 -20 z "},"Ǧ":{"ha":836,"x_min":79,"x_max":766,"o":"m 229 1256 l 349 1256 l 484 1146 l 618 1256 l 739 1256 l 588 1077 l 378 1077 l 229 1256 m 488 -20 q 315 15 391 -20 q 186 117 239 50 q 107 282 134 184 q 79 507 79 380 q 107 732 79 634 q 188 896 135 829 q 318 997 241 962 q 493 1031 395 1031 q 619 1014 562 1031 q 730 964 676 998 l 730 742 q 514 851 646 851 q 288 507 288 851 q 341 248 288 336 q 504 160 395 160 q 554 166 531 160 q 591 183 577 172 l 591 376 l 454 376 l 454 545 l 766 545 l 766 81 q 488 -20 649 -20 z "},"Ģ":{"ha":836,"x_min":79,"x_max":766,"o":"m 488 -20 q 315 15 391 -20 q 186 117 239 50 q 107 282 134 184 q 79 507 79 380 q 107 732 79 634 q 188 896 135 829 q 318 997 241 962 q 493 1031 395 1031 q 619 1014 562 1031 q 730 964 676 998 l 730 742 q 514 851 646 851 q 288 507 288 851 q 341 248 288 336 q 504 160 395 160 q 554 166 531 160 q 591 183 577 172 l 591 376 l 454 376 l 454 545 l 766 545 l 766 81 q 488 -20 649 -20 m 425 -127 l 616 -127 l 496 -334 l 365 -334 l 425 -127 z "},"Ġ":{"ha":836,"x_min":79,"x_max":766,"o":"m 393 1089 q 378 1095 385 1089 q 372 1110 372 1101 l 372 1235 q 378 1250 372 1244 q 393 1256 385 1256 l 538 1256 q 553 1250 547 1256 q 559 1235 559 1244 l 559 1110 q 553 1095 559 1101 q 538 1089 547 1089 l 393 1089 m 488 -20 q 315 15 391 -20 q 186 117 239 50 q 107 282 134 184 q 79 507 79 380 q 107 732 79 634 q 188 896 135 829 q 318 997 241 962 q 493 1031 395 1031 q 619 1014 562 1031 q 730 964 676 998 l 730 742 q 514 851 646 851 q 344 766 400 851 q 288 507 288 682 q 341 248 288 336 q 503 160 395 160 q 546 164 526 160 q 578 175 566 168 q 588 183 585 178 q 591 199 591 189 l 591 356 q 571 376 591 376 l 454 376 l 454 545 l 766 545 l 766 81 q 488 -20 649 -20 z "},"H":{"ha":836,"x_min":93,"x_max":743,"o":"m 93 1013 l 293 1013 l 293 627 l 543 627 l 543 1013 l 743 1013 l 743 0 l 543 0 l 543 450 l 293 450 l 293 0 l 93 0 l 93 1013 z "},"Ħ":{"ha":836,"x_min":2,"x_max":834,"o":"m 93 749 l 2 749 l 2 861 l 93 861 l 93 1013 l 293 1013 l 293 861 l 543 861 l 543 1013 l 743 1013 l 743 861 l 834 861 l 834 749 l 743 749 l 743 0 l 543 0 l 543 450 l 293 450 l 293 0 l 93 0 l 93 749 m 543 627 l 543 749 l 293 749 l 293 627 l 543 627 z "},"I":{"ha":836,"x_min":117,"x_max":720,"o":"m 117 176 l 318 176 l 318 836 l 117 836 l 117 1013 l 720 1013 l 720 836 l 518 836 l 518 176 l 720 176 l 720 0 l 117 0 l 117 176 z "},"Í":{"ha":836,"x_min":117,"x_max":720,"o":"m 453 1256 l 646 1256 l 452 1077 l 318 1077 l 453 1256 m 117 176 l 318 176 l 318 836 l 117 836 l 117 1013 l 720 1013 l 720 836 l 518 836 l 518 176 l 720 176 l 720 0 l 117 0 l 117 176 z "},"Î":{"ha":836,"x_min":117,"x_max":720,"o":"m 313 1256 l 522 1256 l 673 1077 l 553 1077 l 418 1186 l 283 1077 l 163 1077 l 313 1256 m 117 176 l 318 176 l 318 836 l 117 836 l 117 1013 l 720 1013 l 720 836 l 518 836 l 518 176 l 720 176 l 720 0 l 117 0 l 117 176 z "},"Ï":{"ha":836,"x_min":117,"x_max":720,"o":"m 224 1089 q 204 1109 204 1089 l 204 1236 q 224 1256 204 1256 l 344 1256 q 364 1236 364 1256 l 364 1109 q 344 1089 364 1089 l 224 1089 m 492 1089 q 472 1109 472 1089 l 472 1236 q 492 1256 472 1256 l 612 1256 q 632 1236 632 1256 l 632 1109 q 612 1089 632 1089 l 492 1089 m 117 176 l 318 176 l 318 836 l 117 836 l 117 1013 l 720 1013 l 720 836 l 518 836 l 518 176 l 720 176 l 720 0 l 117 0 l 117 176 z "},"İ":{"ha":836,"x_min":117,"x_max":720,"o":"m 345 1089 q 325 1109 325 1089 l 325 1236 q 345 1256 325 1256 l 491 1256 q 511 1236 511 1256 l 511 1109 q 491 1089 511 1089 l 345 1089 m 117 176 l 318 176 l 318 836 l 117 836 l 117 1013 l 720 1013 l 720 836 l 518 836 l 518 176 l 720 176 l 720 0 l 117 0 l 117 176 z "},"Ì":{"ha":836,"x_min":117,"x_max":720,"o":"m 192 1256 l 385 1256 l 519 1077 l 386 1077 l 192 1256 m 117 176 l 318 176 l 318 836 l 117 836 l 117 1013 l 720 1013 l 720 836 l 518 836 l 518 176 l 720 176 l 720 0 l 117 0 l 117 176 z "},"Ī":{"ha":836,"x_min":117,"x_max":720,"o":"m 204 1234 l 632 1234 l 632 1107 l 204 1107 l 204 1234 m 117 176 l 318 176 l 318 836 l 117 836 l 117 1013 l 720 1013 l 720 836 l 518 836 l 518 176 l 720 176 l 720 0 l 117 0 l 117 176 z "},"Į":{"ha":836,"x_min":117,"x_max":720,"o":"m 518 836 l 518 176 l 720 176 l 720 0 l 518 0 q 498 -27 507 -16 q 485 -47 490 -39 q 476 -61 479 -55 q 470 -72 473 -67 q 460 -94 463 -84 q 457 -113 457 -103 q 476 -154 457 -136 q 537 -172 495 -172 q 584 -167 558 -172 q 637 -151 610 -162 l 637 -257 q 569 -268 601 -264 q 511 -272 536 -272 q 389 -241 431 -272 q 347 -152 347 -210 q 366 -78 347 -115 q 422 0 384 -41 l 117 0 l 117 176 l 318 176 l 318 836 l 117 836 l 117 1013 l 720 1013 l 720 836 l 518 836 z "},"Ĩ":{"ha":836,"x_min":117,"x_max":720,"o":"m 182 1097 q 192 1163 182 1133 q 219 1213 201 1192 q 261 1246 237 1234 q 314 1257 285 1257 q 366 1249 340 1257 q 416 1224 392 1240 l 457 1198 q 483 1183 471 1189 q 509 1178 496 1178 q 546 1198 533 1178 q 559 1257 559 1219 l 654 1257 q 654 1253 654 1256 q 654 1247 654 1251 q 653 1242 653 1244 q 653 1238 653 1240 q 644 1172 653 1202 q 617 1121 634 1142 q 575 1088 600 1100 q 519 1077 550 1077 q 472 1084 495 1077 q 419 1110 448 1092 l 382 1133 l 374 1138 q 349 1151 361 1145 q 326 1156 337 1156 q 290 1136 304 1156 q 277 1081 277 1116 l 277 1077 l 182 1077 l 182 1097 m 117 176 l 318 176 l 318 836 l 117 836 l 117 1013 l 720 1013 l 720 836 l 518 836 l 518 176 l 720 176 l 720 0 l 117 0 l 117 176 z "},"J":{"ha":836,"x_min":74,"x_max":684,"o":"m 355 -20 q 283 -15 316 -20 q 216 -2 251 -11 q 146 19 181 7 q 74 50 112 32 l 74 282 q 134 229 103 252 q 199 191 165 207 q 332 160 264 160 q 447 199 410 160 q 484 325 484 239 l 484 836 l 239 836 l 239 1013 l 684 1013 l 684 325 q 606 60 684 140 q 502 0 567 20 q 355 -20 437 -20 z "},"K":{"ha":836,"x_min":79,"x_max":831,"o":"m 79 1013 l 279 1013 l 279 612 l 593 1013 l 819 1013 l 500 614 l 831 0 l 608 0 l 368 456 l 279 343 l 279 0 l 79 0 l 79 1013 z "},"Ķ":{"ha":836,"x_min":79,"x_max":831,"o":"m 79 1013 l 279 1013 l 279 612 l 593 1013 l 819 1013 l 500 614 l 831 0 l 608 0 l 368 456 l 279 343 l 279 0 l 79 0 l 79 1013 m 390 -107 l 581 -107 l 461 -315 l 330 -315 l 390 -107 z "},"L":{"ha":836,"x_min":153,"x_max":781,"o":"m 153 1013 l 353 1013 l 353 176 l 781 176 l 781 0 l 153 0 l 153 1013 z "},"Ĺ":{"ha":836,"x_min":153,"x_max":781,"o":"m 454 1257 l 646 1257 l 452 1078 l 319 1078 l 454 1257 m 153 1013 l 353 1013 l 353 176 l 781 176 l 781 0 l 153 0 l 153 1013 z "},"Ľ":{"ha":836,"x_min":153,"x_max":781,"o":"m 153 1013 l 353 1013 l 353 176 l 781 176 l 781 0 l 153 0 l 153 1013 m 589 1013 l 781 1013 l 671 758 l 538 758 l 589 1013 z "},"Ļ":{"ha":836,"x_min":153,"x_max":781,"o":"m 153 1013 l 353 1013 l 353 176 l 781 176 l 781 0 l 153 0 l 153 1013 m 401 -107 l 592 -107 l 472 -315 l 340 -315 l 401 -107 z "},"Ł":{"ha":836,"x_min":-26,"x_max":781,"o":"m 153 364 l 50 289 l -26 393 l 153 521 l 153 1013 l 353 1013 l 353 660 l 539 791 l 615 688 l 353 503 l 353 176 l 781 176 l 781 0 l 153 0 l 153 364 z "},"M":{"ha":836,"x_min":58,"x_max":778,"o":"m 58 1013 l 297 1013 l 418 568 l 538 1013 l 778 1013 l 778 0 l 606 0 l 606 811 l 498 368 l 339 368 l 231 811 l 231 0 l 58 0 l 58 1013 z "},"N":{"ha":836,"x_min":81,"x_max":754,"o":"m 81 1013 l 296 1013 l 578 277 l 578 1013 l 754 1013 l 754 0 l 541 0 l 257 736 l 257 0 l 81 0 l 81 1013 z "},"Ń":{"ha":836,"x_min":81,"x_max":754,"o":"m 474 1257 l 667 1257 l 473 1078 l 339 1078 l 474 1257 m 81 1013 l 296 1013 l 578 277 l 578 1013 l 754 1013 l 754 0 l 541 0 l 257 736 l 257 0 l 81 0 l 81 1013 z "},"Ň":{"ha":836,"x_min":81,"x_max":754,"o":"m 191 1256 l 311 1256 l 446 1146 l 581 1256 l 701 1256 l 550 1077 l 340 1077 l 191 1256 m 81 1013 l 296 1013 l 578 277 l 578 1013 l 754 1013 l 754 0 l 541 0 l 257 736 l 257 0 l 81 0 l 81 1013 z "},"Ņ":{"ha":836,"x_min":81,"x_max":754,"o":"m 81 1013 l 296 1013 l 578 277 l 578 1013 l 754 1013 l 754 0 l 541 0 l 257 736 l 257 0 l 81 0 l 81 1013 m 352 -107 l 543 -107 l 423 -315 l 292 -315 l 352 -107 z "},"Ŋ":{"ha":836,"x_min":72,"x_max":763,"o":"m 415 -135 l 440 -135 q 497 -126 474 -135 q 536 -98 521 -117 q 557 -46 551 -78 q 564 30 564 -15 l 564 688 q 533 812 564 773 q 435 851 502 851 q 363 838 394 851 q 313 799 333 824 q 282 739 292 774 q 272 659 272 703 l 272 0 l 72 0 l 72 1013 l 252 1013 l 272 850 q 358 985 298 938 q 507 1032 418 1032 q 697 933 631 1032 q 763 639 763 835 l 763 39 q 748 -114 763 -51 q 700 -215 732 -176 q 618 -272 668 -254 q 497 -289 568 -289 l 415 -289 l 415 -135 z "},"Ñ":{"ha":836,"x_min":81,"x_max":754,"o":"m 182 1097 q 192 1164 182 1135 q 218 1213 201 1194 q 263 1246 237 1236 q 316 1257 288 1257 q 366 1249 341 1257 q 390 1239 377 1245 q 416 1224 404 1232 l 457 1198 q 470 1191 463 1194 q 485 1183 477 1187 q 497 1179 492 1181 q 509 1178 503 1178 q 547 1198 533 1178 q 559 1257 559 1218 l 654 1257 q 654 1253 654 1256 q 654 1247 654 1251 q 653 1245 654 1246 q 653 1236 653 1244 q 644 1172 653 1202 q 617 1121 635 1143 q 573 1087 597 1097 q 521 1077 549 1077 q 472 1084 496 1077 q 446 1095 458 1088 q 419 1110 433 1101 l 382 1133 q 377 1137 377 1137 q 374 1138 377 1137 q 348 1151 359 1146 q 325 1156 336 1156 q 290 1135 303 1156 q 277 1081 277 1114 l 277 1077 l 182 1077 l 182 1097 m 81 1013 l 296 1013 l 578 277 l 578 1013 l 754 1013 l 754 0 l 541 0 l 257 736 l 257 0 l 81 0 l 81 1013 z "},"O":{"ha":836,"x_min":62,"x_max":774,"o":"m 418 -20 q 261 15 326 -20 q 153 113 195 49 q 62 505 62 246 q 85 733 62 635 q 153 899 107 831 q 267 999 199 968 q 418 1031 335 1031 q 573 997 507 1031 q 684 898 640 964 q 774 505 774 764 q 684 113 774 246 q 575 15 641 49 q 418 -20 509 -20 m 418 160 q 530 242 495 160 q 566 506 566 323 q 530 769 566 688 q 418 851 495 851 q 351 830 378 851 q 306 769 323 810 q 271 506 271 688 q 306 242 271 323 q 418 160 341 160 z "},"Ó":{"ha":836,"x_min":62,"x_max":774,"o":"m 453 1256 l 646 1256 l 452 1077 l 318 1077 l 453 1256 m 418 -20 q 261 15 326 -20 q 153 113 195 49 q 62 505 62 246 q 85 733 62 635 q 153 899 107 831 q 267 999 199 968 q 418 1031 335 1031 q 573 997 507 1031 q 684 898 640 964 q 774 505 774 764 q 684 113 774 246 q 575 15 641 49 q 418 -20 509 -20 m 418 160 q 530 242 495 160 q 566 506 566 323 q 530 769 566 688 q 418 851 495 851 q 351 830 378 851 q 306 769 323 810 q 279 665 288 728 q 271 507 271 602 q 306 242 271 323 q 418 160 341 160 z "},"Ô":{"ha":836,"x_min":62,"x_max":774,"o":"m 313 1256 l 522 1256 l 673 1077 l 553 1077 l 418 1186 l 283 1077 l 163 1077 l 313 1256 m 418 -20 q 261 15 326 -20 q 153 113 195 49 q 62 505 62 246 q 85 733 62 635 q 153 899 107 831 q 267 999 199 968 q 418 1031 335 1031 q 573 997 507 1031 q 684 898 640 964 q 774 505 774 764 q 684 113 774 246 q 575 15 641 49 q 418 -20 509 -20 m 418 160 q 530 242 495 160 q 566 506 566 323 q 530 769 566 688 q 418 851 495 851 q 351 830 378 851 q 306 769 323 810 q 279 665 288 728 q 271 507 271 602 q 306 242 271 323 q 418 160 341 160 z "},"Ö":{"ha":836,"x_min":62,"x_max":774,"o":"m 224 1089 q 204 1109 204 1089 l 204 1236 q 224 1256 204 1256 l 344 1256 q 364 1236 364 1256 l 364 1109 q 344 1089 364 1089 l 224 1089 m 492 1089 q 472 1109 472 1089 l 472 1236 q 492 1256 472 1256 l 612 1256 q 632 1236 632 1256 l 632 1109 q 612 1089 632 1089 l 492 1089 m 418 -20 q 261 15 326 -20 q 153 113 195 49 q 62 505 62 246 q 85 733 62 635 q 153 899 107 831 q 267 999 199 968 q 418 1031 335 1031 q 573 997 507 1031 q 684 898 640 964 q 774 505 774 764 q 684 113 774 246 q 575 15 641 49 q 418 -20 509 -20 m 418 160 q 530 242 495 160 q 566 506 566 323 q 530 769 566 688 q 418 851 495 851 q 351 830 378 851 q 306 769 323 810 q 279 665 288 728 q 271 507 271 602 q 306 242 271 323 q 418 160 341 160 z "},"Ò":{"ha":836,"x_min":62,"x_max":774,"o":"m 192 1256 l 385 1256 l 519 1077 l 386 1077 l 192 1256 m 418 -20 q 261 15 326 -20 q 153 113 195 49 q 62 505 62 246 q 85 733 62 635 q 153 899 107 831 q 267 999 199 968 q 418 1031 335 1031 q 573 997 507 1031 q 684 898 640 964 q 774 505 774 764 q 684 113 774 246 q 575 15 641 49 q 418 -20 509 -20 m 418 160 q 530 242 495 160 q 566 506 566 323 q 530 769 566 688 q 418 851 495 851 q 351 830 378 851 q 306 769 323 810 q 279 665 288 728 q 271 507 271 602 q 306 242 271 323 q 418 160 341 160 z "},"Ơ":{"ha":836,"x_min":3,"x_max":833,"o":"m 833 927 q 803 806 833 848 q 713 764 772 764 q 698 765 706 764 q 683 768 690 766 q 714 506 714 660 q 624 113 714 246 q 359 -20 534 -20 q 93 114 182 -20 q 3 506 3 247 q 93 898 3 765 q 359 1031 182 1031 q 630 890 540 1031 l 632 888 q 675 876 656 876 q 716 894 699 876 q 734 954 734 913 q 729 1001 734 974 q 713 1055 724 1028 l 819 1055 q 830 985 826 1017 q 833 927 833 954 m 471 242 q 506 506 506 323 q 471 769 506 688 q 358 851 435 851 q 291 830 318 851 q 246 769 264 810 q 211 506 211 688 q 246 242 211 323 q 358 160 281 160 q 471 242 435 160 z "},"Ő":{"ha":836,"x_min":62,"x_max":774,"o":"m 314 1256 l 507 1256 l 313 1077 l 179 1077 l 314 1256 m 568 1256 l 761 1256 l 567 1077 l 433 1077 l 568 1256 m 418 -20 q 152 114 242 -20 q 62 506 62 247 q 152 898 62 765 q 418 1031 242 1031 q 684 898 594 1031 q 774 506 774 766 q 684 113 774 246 q 418 -20 594 -20 m 418 160 q 530 242 495 160 q 566 506 566 323 q 530 769 566 688 q 418 851 495 851 q 351 830 378 851 q 306 769 323 810 q 271 506 271 688 q 306 242 271 323 q 418 160 341 160 z "},"Ō":{"ha":836,"x_min":62,"x_max":774,"o":"m 204 1241 l 632 1241 l 632 1114 l 204 1114 l 204 1241 m 418 -20 q 152 114 242 -20 q 62 506 62 247 q 152 898 62 765 q 418 1031 242 1031 q 684 898 594 1031 q 774 506 774 766 q 684 113 774 246 q 418 -20 594 -20 m 418 160 q 530 242 495 160 q 566 506 566 323 q 530 769 566 688 q 418 851 495 851 q 351 830 378 851 q 306 769 323 810 q 271 506 271 688 q 306 242 271 323 q 418 160 341 160 z "},"Ø":{"ha":836,"x_min":-4,"x_max":828,"o":"m -4 35 l 110 196 q 89 261 97 229 q 75 333 81 292 q 66 410 69 370 q 62 504 62 451 q 153 898 62 765 q 262 998 197 964 q 418 1031 328 1031 q 544 1010 489 1031 q 598 983 574 998 q 642 947 622 967 l 718 1057 l 828 979 l 721 828 q 761 684 748 762 q 771 598 768 643 q 774 505 774 554 q 684 113 774 246 q 570 12 637 44 q 417 -20 503 -20 q 348 -14 378 -20 q 288 3 317 -8 q 235 31 260 15 q 187 71 211 47 l 106 -43 l -4 35 m 524 782 q 479 834 506 817 q 418 851 454 851 q 351 830 378 851 q 307 770 324 810 q 271 513 271 688 l 271 427 l 524 782 m 419 160 q 486 181 460 160 q 530 242 513 203 q 545 289 538 262 q 556 350 551 315 q 563 429 561 385 q 566 530 566 473 l 565 545 q 564 559 564 555 q 564 568 564 564 q 563 580 564 573 q 562 602 563 587 l 306 240 q 325 206 313 221 q 351 181 337 191 q 419 160 380 160 z "},"Ǿ":{"ha":836,"x_min":-4,"x_max":828,"o":"m 453 1256 l 646 1256 l 452 1077 l 318 1077 l 453 1256 m -4 35 l 110 196 q 74 332 86 256 q 62 503 62 409 q 152 898 62 765 q 418 1031 242 1031 q 642 947 558 1031 l 718 1057 l 828 979 l 721 828 q 774 504 774 701 q 684 113 774 246 q 418 -20 594 -20 q 187 71 274 -20 l 106 -43 l -4 35 m 524 782 q 418 851 488 851 q 307 770 342 851 q 271 513 271 688 l 271 427 l 524 782 m 418 160 q 530 242 495 160 q 557 348 548 283 q 566 503 566 414 q 565 545 566 524 q 562 602 564 566 l 306 240 q 352 180 323 199 q 418 160 381 160 z "},"Õ":{"ha":836,"x_min":62,"x_max":774,"o":"m 182 1097 q 192 1164 182 1135 q 218 1213 201 1194 q 263 1246 237 1236 q 316 1257 288 1257 q 366 1249 341 1257 q 389 1240 376 1246 q 416 1224 402 1234 l 457 1198 q 469 1191 463 1194 q 485 1183 475 1187 q 497 1179 492 1181 q 509 1178 503 1178 q 547 1198 533 1178 q 559 1257 559 1218 l 654 1257 q 654 1253 654 1256 q 654 1247 654 1251 q 653 1242 653 1244 q 653 1239 653 1240 q 617 1121 653 1165 q 573 1087 597 1097 q 521 1077 549 1077 q 472 1084 496 1077 q 446 1095 458 1088 q 419 1110 433 1101 l 382 1133 l 374 1138 q 348 1151 360 1145 q 325 1156 336 1156 q 290 1135 303 1156 q 277 1081 277 1114 l 277 1077 l 182 1077 l 182 1097 m 418 -20 q 261 15 326 -20 q 153 113 195 49 q 62 505 62 246 q 85 733 62 635 q 153 899 107 831 q 267 999 199 968 q 418 1031 335 1031 q 573 997 507 1031 q 684 898 640 964 q 774 505 774 764 q 684 113 774 246 q 575 15 641 49 q 418 -20 509 -20 m 418 160 q 530 242 495 160 q 566 506 566 323 q 530 769 566 688 q 418 851 495 851 q 351 830 378 851 q 306 769 323 810 q 279 665 288 728 q 271 507 271 602 q 306 242 271 323 q 418 160 341 160 z "},"Œ":{"ha":836,"x_min":46,"x_max":825,"o":"m 429 0 q 128 106 210 0 q 66 259 86 160 q 46 505 46 358 q 128 907 46 802 q 246 987 170 961 q 429 1013 322 1013 l 818 1013 l 818 836 l 593 836 l 593 625 l 798 625 l 798 449 l 593 449 l 593 176 l 825 176 l 825 0 l 429 0 m 421 176 l 421 836 l 386 836 q 314 820 343 836 q 271 776 286 804 q 248 681 256 745 q 240 505 240 616 q 242 406 240 450 q 248 330 244 363 q 258 274 252 297 q 271 235 264 250 q 316 190 287 204 q 386 176 346 176 l 421 176 z "},"P":{"ha":836,"x_min":113,"x_max":781,"o":"m 113 1013 l 387 1013 q 689 938 596 1013 q 781 696 781 863 q 689 454 781 528 q 387 379 596 379 l 313 379 l 313 0 l 113 0 l 113 1013 m 395 547 q 533 581 494 547 q 572 696 572 614 q 533 811 572 778 q 395 844 494 844 l 313 844 l 313 547 l 395 547 z "},"Þ":{"ha":836,"x_min":110,"x_max":778,"o":"m 110 1013 l 310 1013 l 310 851 l 385 851 q 686 777 594 851 q 755 679 732 740 q 778 536 778 618 q 685 299 778 372 q 563 243 637 261 q 385 225 488 225 l 310 225 l 310 0 l 110 0 l 110 1013 m 392 390 q 530 423 491 390 q 570 538 570 456 q 530 654 570 621 q 392 688 490 688 l 310 688 l 310 390 l 392 390 z "},"Q":{"ha":836,"x_min":62,"x_max":801,"o":"m 445 -16 l 429 -19 q 425 -20 426 -20 q 422 -20 423 -20 q 263 15 329 -20 q 153 113 197 49 q 62 505 62 246 q 85 733 62 635 q 153 899 107 831 q 268 1000 200 968 q 418 1031 335 1031 q 573 997 507 1031 q 684 898 640 964 q 774 505 774 764 q 731 207 774 327 q 607 35 688 87 l 801 -191 l 569 -191 l 445 -16 m 418 160 q 530 242 495 160 q 566 506 566 323 q 530 769 566 688 q 418 851 495 851 q 351 830 378 851 q 306 769 323 810 q 271 506 271 688 q 306 242 271 323 q 418 160 341 160 z "},"R":{"ha":836,"x_min":90,"x_max":836,"o":"m 90 1013 l 379 1013 q 660 943 574 1013 q 724 852 703 909 q 745 722 745 795 q 732 624 745 665 q 694 552 720 583 q 634 504 669 522 q 547 478 598 485 q 576 467 563 475 q 600 450 590 460 q 623 419 610 440 q 653 364 636 398 l 836 0 l 616 0 l 494 256 l 480 286 q 422 372 452 344 q 354 400 392 400 l 290 400 l 290 0 l 90 0 l 90 1013 m 385 568 q 503 601 467 568 q 528 641 519 616 q 538 707 538 666 q 503 812 538 781 q 385 844 467 844 l 290 844 l 290 568 l 385 568 z "},"Ŕ":{"ha":836,"x_min":90,"x_max":836,"o":"m 454 1257 l 646 1257 l 452 1078 l 319 1078 l 454 1257 m 90 1013 l 379 1013 q 544 996 475 1013 q 657 945 612 979 q 723 856 702 910 q 745 728 745 802 q 694 552 745 612 q 547 478 644 492 q 575 469 562 475 q 599 450 587 463 q 624 417 611 437 q 653 364 637 396 l 836 0 l 616 0 l 494 256 l 480 286 q 422 372 452 344 q 354 400 392 400 l 290 400 l 290 0 l 90 0 l 90 1013 m 385 568 q 454 576 425 568 q 502 601 484 584 q 529 644 521 617 q 538 707 538 670 q 529 770 538 744 q 503 812 521 796 q 455 837 484 829 q 385 844 426 844 l 290 844 l 290 568 l 385 568 z "},"Ř":{"ha":836,"x_min":90,"x_max":836,"o":"m 142 1256 l 262 1256 l 397 1146 l 532 1256 l 652 1256 l 501 1077 l 292 1077 l 142 1256 m 90 1013 l 379 1013 q 544 996 475 1013 q 657 945 612 979 q 723 856 702 910 q 745 728 745 802 q 694 552 745 612 q 547 478 644 492 q 575 469 562 475 q 599 450 587 463 q 624 417 611 437 q 653 364 637 396 l 836 0 l 616 0 l 494 256 l 480 286 q 422 372 452 344 q 354 400 392 400 l 290 400 l 290 0 l 90 0 l 90 1013 m 385 568 q 454 576 425 568 q 502 601 484 584 q 529 644 521 617 q 538 707 538 670 q 529 770 538 744 q 503 812 521 796 q 455 837 484 829 q 385 844 426 844 l 290 844 l 290 568 l 385 568 z "},"Ŗ":{"ha":836,"x_min":90,"x_max":836,"o":"m 90 1013 l 379 1013 q 544 996 475 1013 q 657 945 612 979 q 723 856 702 910 q 745 728 745 802 q 694 552 745 612 q 547 478 644 492 q 575 469 562 475 q 599 450 587 463 q 624 417 611 437 q 653 364 637 396 l 836 0 l 616 0 l 494 256 l 480 286 q 422 372 452 344 q 354 400 392 400 l 290 400 l 290 0 l 90 0 l 90 1013 m 385 568 q 454 576 425 568 q 502 601 484 584 q 529 644 521 617 q 538 707 538 670 q 529 770 538 744 q 503 812 521 796 q 455 837 484 829 q 385 844 426 844 l 290 844 l 290 568 l 385 568 m 398 -107 l 589 -107 l 469 -315 l 338 -315 l 398 -107 z "},"S":{"ha":836,"x_min":87,"x_max":753,"o":"m 395 -20 q 315 -16 354 -20 q 238 -2 277 -12 q 92 52 161 16 l 92 258 q 171 208 134 229 q 247 174 208 188 q 393 146 322 146 q 460 154 432 146 q 509 180 489 163 q 550 273 550 213 q 523 353 550 319 q 489 384 509 371 q 444 407 469 397 l 346 444 q 218 504 268 474 q 141 566 168 534 q 87 736 87 628 q 176 952 87 874 q 417 1031 264 1031 q 490 1027 454 1031 q 557 1015 526 1023 q 625 996 589 1008 q 696 968 661 984 l 696 772 q 565 842 632 818 q 433 865 498 865 q 322 836 360 865 q 283 753 283 806 q 312 684 283 711 q 352 656 326 670 q 429 623 379 642 l 515 590 q 695 472 638 544 q 753 281 753 398 q 662 56 753 132 q 395 -20 570 -20 z "},"Ś":{"ha":836,"x_min":87,"x_max":753,"o":"m 474 1257 l 667 1257 l 473 1078 l 339 1078 l 474 1257 m 396 -20 q 239 -2 313 -20 q 92 52 165 15 l 92 258 q 245 174 170 202 q 391 146 321 146 q 509 179 469 146 q 550 271 550 212 q 523 353 550 319 q 444 407 495 387 l 346 444 q 222 501 272 472 q 143 564 173 530 q 100 638 113 597 q 87 729 87 678 q 110 858 87 802 q 176 952 133 914 q 279 1011 218 991 q 418 1031 340 1031 q 557 1015 488 1031 q 696 968 627 999 l 696 772 q 565 842 631 818 q 433 865 499 865 q 322 836 360 865 q 283 754 283 807 q 312 684 283 711 q 352 656 326 670 q 429 623 379 642 l 515 590 q 623 537 578 566 q 697 470 668 507 q 739 386 726 432 q 753 283 753 340 q 661 56 753 131 q 396 -20 570 -20 z "},"Š":{"ha":836,"x_min":87,"x_max":753,"o":"m 163 1256 l 283 1256 l 418 1146 l 553 1256 l 673 1256 l 522 1077 l 313 1077 l 163 1256 m 395 -20 q 315 -16 354 -20 q 238 -2 277 -12 q 92 52 161 16 l 92 258 q 173 207 136 227 q 247 174 210 187 q 393 146 322 146 q 460 154 432 146 q 509 180 489 163 q 550 273 550 213 q 523 353 550 319 q 489 384 509 371 q 444 407 469 397 l 346 444 q 218 504 268 474 q 141 566 168 534 q 87 736 87 628 q 176 952 87 874 q 417 1031 264 1031 q 490 1027 454 1031 q 557 1015 526 1023 q 625 996 589 1008 q 696 968 661 984 l 696 772 q 565 842 632 818 q 433 865 498 865 q 322 836 360 865 q 283 753 283 806 q 312 684 283 711 q 352 656 326 670 q 429 623 379 642 l 515 590 q 695 472 638 544 q 753 281 753 398 q 662 56 753 132 q 395 -20 570 -20 z "},"Ş":{"ha":836,"x_min":87,"x_max":753,"o":"m 695 472 q 753 281 753 398 q 662 56 753 132 q 587 12 629 30 q 491 -13 545 -5 q 518 -48 507 -31 q 537 -78 530 -64 q 555 -150 555 -113 q 544 -204 555 -181 q 513 -241 533 -227 q 466 -263 496 -255 q 387 -272 437 -272 q 354 -271 371 -272 q 319 -268 336 -270 q 279 -261 294 -264 q 249 -254 264 -258 l 249 -149 q 279 -158 264 -154 q 308 -166 294 -163 q 361 -172 336 -172 q 422 -157 399 -172 q 444 -115 444 -141 q 430 -68 444 -96 q 399 -20 420 -48 l 395 -20 q 315 -16 354 -20 q 238 -2 277 -12 q 92 52 161 16 l 92 258 q 173 207 136 227 q 247 174 210 187 q 393 146 322 146 q 460 154 432 146 q 509 180 489 163 q 550 273 550 213 q 523 353 550 319 q 489 384 509 371 q 444 407 469 397 l 346 444 q 218 504 268 474 q 141 566 168 534 q 87 736 87 628 q 176 952 87 874 q 417 1031 264 1031 q 490 1027 454 1031 q 557 1015 526 1023 q 625 996 589 1008 q 696 968 661 984 l 696 772 q 565 842 632 818 q 433 865 498 865 q 322 836 360 865 q 283 753 283 806 q 312 684 283 711 q 352 656 326 670 q 429 623 379 642 l 515 590 q 695 472 638 544 z "},"Ș":{"ha":836,"x_min":87,"x_max":753,"o":"m 396 -20 q 239 -2 313 -20 q 92 52 165 15 l 92 258 q 245 174 170 202 q 391 146 321 146 q 509 179 469 146 q 550 271 550 212 q 523 353 550 319 q 444 407 495 387 l 346 444 q 222 501 272 472 q 143 564 173 530 q 100 638 113 597 q 87 729 87 678 q 110 858 87 802 q 176 952 133 914 q 279 1011 218 991 q 418 1031 340 1031 q 557 1015 488 1031 q 696 968 627 999 l 696 772 q 565 842 631 818 q 433 865 499 865 q 322 836 360 865 q 283 754 283 807 q 312 684 283 711 q 352 656 326 670 q 429 623 379 642 l 515 590 q 623 537 578 566 q 697 470 668 507 q 739 386 726 432 q 753 283 753 340 q 661 56 753 131 q 396 -20 570 -20 m 313 -134 l 504 -134 l 384 -342 l 252 -342 l 313 -134 z "},"T":{"ha":836,"x_min":61,"x_max":775,"o":"m 318 838 l 61 838 l 61 1013 l 775 1013 l 775 838 l 518 838 l 518 0 l 318 0 l 318 838 z "},"Ŧ":{"ha":836,"x_min":61,"x_max":775,"o":"m 318 365 l 151 365 l 151 495 l 318 495 l 318 838 l 61 838 l 61 1013 l 775 1013 l 775 838 l 518 838 l 518 495 l 686 495 l 686 365 l 518 365 l 518 0 l 318 0 l 318 365 z "},"Ť":{"ha":836,"x_min":61,"x_max":775,"o":"m 158 1264 l 279 1264 l 413 1154 l 548 1264 l 669 1264 l 517 1085 l 308 1085 l 158 1264 m 318 838 l 61 838 l 61 1013 l 775 1013 l 775 838 l 518 838 l 518 0 l 318 0 l 318 838 z "},"Ț":{"ha":836,"x_min":61,"x_max":775,"o":"m 518 0 l 479 0 q 516 -44 501 -24 q 539 -82 530 -64 q 552 -117 548 -100 q 555 -151 555 -134 q 514 -241 555 -210 q 386 -272 473 -272 q 319 -268 353 -272 q 249 -254 286 -263 l 249 -149 q 360 -172 311 -172 q 422 -157 400 -172 q 444 -115 444 -141 q 430 -68 444 -96 q 385 0 416 -41 l 318 0 l 318 838 l 61 838 l 61 1013 l 775 1013 l 775 838 l 518 838 l 518 0 z "},"U":{"ha":836,"x_min":72,"x_max":764,"o":"m 418 -20 q 155 74 237 -20 q 72 374 72 168 l 72 1013 l 272 1013 l 272 323 q 282 255 272 285 q 311 204 292 224 q 358 172 330 182 q 418 161 385 161 q 478 172 450 161 q 525 204 505 182 q 553 255 543 224 q 564 323 564 285 l 564 1013 l 764 1013 l 764 374 q 682 74 764 167 q 418 -20 599 -20 z "},"Ú":{"ha":836,"x_min":72,"x_max":764,"o":"m 453 1256 l 646 1256 l 452 1077 l 318 1077 l 453 1256 m 418 -20 q 155 74 237 -20 q 72 374 72 168 l 72 1013 l 272 1013 l 272 323 q 282 255 272 285 q 311 204 292 224 q 358 172 330 182 q 418 161 385 161 q 478 172 450 161 q 525 204 505 182 q 553 255 543 224 q 564 323 564 285 l 564 1013 l 764 1013 l 764 374 q 682 74 764 167 q 418 -20 599 -20 z "},"Û":{"ha":836,"x_min":72,"x_max":764,"o":"m 313 1256 l 522 1256 l 673 1077 l 553 1077 l 418 1186 l 283 1077 l 163 1077 l 313 1256 m 418 -20 q 155 74 237 -20 q 72 374 72 168 l 72 1013 l 272 1013 l 272 323 q 282 255 272 285 q 311 204 292 224 q 358 172 330 182 q 418 161 385 161 q 478 172 450 161 q 525 204 505 182 q 553 255 543 224 q 564 323 564 285 l 564 1013 l 764 1013 l 764 374 q 682 74 764 167 q 418 -20 599 -20 z "},"Ü":{"ha":836,"x_min":72,"x_max":764,"o":"m 224 1089 q 204 1109 204 1089 l 204 1236 q 224 1256 204 1256 l 344 1256 q 364 1236 364 1256 l 364 1109 q 344 1089 364 1089 l 224 1089 m 492 1089 q 472 1109 472 1089 l 472 1236 q 492 1256 472 1256 l 612 1256 q 632 1236 632 1256 l 632 1109 q 612 1089 632 1089 l 492 1089 m 418 -20 q 155 74 237 -20 q 72 374 72 168 l 72 1013 l 272 1013 l 272 323 q 282 255 272 285 q 311 204 292 224 q 358 172 330 182 q 418 161 385 161 q 478 172 450 161 q 525 204 505 182 q 553 255 543 224 q 564 323 564 285 l 564 1013 l 764 1013 l 764 374 q 682 74 764 167 q 418 -20 599 -20 z "},"Ù":{"ha":836,"x_min":72,"x_max":764,"o":"m 192 1256 l 385 1256 l 519 1077 l 386 1077 l 192 1256 m 418 -20 q 155 74 237 -20 q 72 374 72 168 l 72 1013 l 272 1013 l 272 323 q 282 255 272 285 q 311 204 292 224 q 358 172 330 182 q 418 161 385 161 q 478 172 450 161 q 525 204 505 182 q 553 255 543 224 q 564 323 564 285 l 564 1013 l 764 1013 l 764 374 q 682 74 764 167 q 418 -20 599 -20 z "},"Ư":{"ha":836,"x_min":3,"x_max":833,"o":"m 818 1055 q 829 985 825 1017 q 833 927 833 954 q 802 806 833 848 q 713 764 771 764 q 704 764 708 764 q 695 766 700 764 l 695 374 q 675 196 695 271 q 613 74 655 122 q 506 3 571 26 q 349 -20 440 -20 q 193 3 258 -20 q 86 74 128 26 q 23 196 43 122 q 3 374 3 271 l 3 1013 l 203 1013 l 203 323 q 242 204 203 248 q 349 161 280 161 q 457 204 418 161 q 495 323 495 248 l 495 1013 l 695 1013 l 695 880 q 723 904 712 886 q 733 954 733 922 q 728 1001 733 974 q 712 1055 723 1028 l 818 1055 l 818 1055 z "},"Ű":{"ha":836,"x_min":72,"x_max":764,"o":"m 314 1256 l 507 1256 l 313 1077 l 179 1077 l 314 1256 m 568 1256 l 761 1256 l 567 1077 l 433 1077 l 568 1256 m 418 -20 q 262 3 327 -20 q 154 74 197 26 q 92 196 112 122 q 72 374 72 271 l 72 1013 l 272 1013 l 272 323 q 310 204 272 248 q 418 161 349 161 q 525 204 487 161 q 564 323 564 248 l 564 1013 l 764 1013 l 764 374 q 744 196 764 271 q 682 74 724 122 q 574 3 640 26 q 418 -20 509 -20 z "},"Ū":{"ha":836,"x_min":72,"x_max":764,"o":"m 204 1241 l 632 1241 l 632 1114 l 204 1114 l 204 1241 m 418 -20 q 262 3 327 -20 q 154 74 197 26 q 92 196 112 122 q 72 374 72 271 l 72 1013 l 272 1013 l 272 323 q 310 204 272 248 q 418 161 349 161 q 525 204 487 161 q 564 323 564 248 l 564 1013 l 764 1013 l 764 374 q 744 196 764 271 q 682 74 724 122 q 574 3 640 26 q 418 -20 509 -20 z "},"Ų":{"ha":836,"x_min":72,"x_max":764,"o":"m 764 1013 l 764 374 q 746 205 764 277 q 691 86 728 134 q 597 12 654 38 q 460 -18 539 -14 q 443 -42 450 -32 q 431 -60 435 -52 q 423 -73 426 -67 q 417 -83 420 -78 q 407 -104 410 -95 q 404 -123 404 -114 q 423 -165 404 -147 q 484 -183 442 -183 q 531 -178 505 -183 q 585 -162 557 -173 l 585 -268 q 516 -279 548 -275 q 458 -283 484 -283 q 336 -252 378 -283 q 294 -163 294 -221 q 311 -92 294 -127 q 363 -18 328 -57 q 232 16 288 -11 q 141 90 177 42 q 89 208 106 138 q 72 374 72 279 l 72 1013 l 272 1013 l 272 323 q 310 204 272 248 q 418 161 349 161 q 525 204 487 161 q 564 323 564 248 l 564 1013 l 764 1013 z "},"Ů":{"ha":836,"x_min":72,"x_max":764,"o":"m 764 1013 l 764 374 q 744 196 764 271 q 682 74 724 122 q 574 3 640 26 q 418 -20 509 -20 q 262 3 327 -20 q 154 74 197 26 q 92 196 112 122 q 72 374 72 271 l 72 1013 l 248 1013 q 229 1096 229 1052 q 244 1171 229 1136 q 285 1233 259 1206 q 347 1274 311 1259 q 422 1289 382 1289 q 497 1274 462 1289 q 558 1233 532 1259 q 600 1171 585 1206 q 614 1096 614 1136 q 595 1013 614 1052 l 764 1013 m 421 1185 q 387 1178 403 1185 q 358 1159 370 1171 q 339 1131 347 1147 q 332 1096 332 1114 q 339 1061 332 1078 q 358 1033 347 1045 q 387 1014 370 1021 q 421 1007 403 1007 q 456 1014 439 1007 q 484 1033 472 1021 q 504 1061 496 1045 q 511 1096 511 1078 q 504 1131 511 1114 q 484 1159 496 1147 q 456 1178 472 1171 q 421 1185 439 1185 m 418 161 q 525 204 487 161 q 564 323 564 248 l 564 965 q 501 919 537 936 q 422 903 465 903 q 337 922 376 903 q 272 974 298 941 l 272 323 q 310 204 272 248 q 418 161 349 161 z "},"Ũ":{"ha":836,"x_min":72,"x_max":764,"o":"m 182 1097 q 192 1163 182 1133 q 219 1213 201 1192 q 261 1246 237 1234 q 314 1257 285 1257 q 366 1249 340 1257 q 416 1224 392 1240 l 457 1198 q 483 1183 471 1189 q 509 1178 496 1178 q 546 1198 533 1178 q 559 1257 559 1219 l 654 1257 q 654 1253 654 1256 q 654 1247 654 1251 q 653 1242 653 1244 q 653 1238 653 1240 q 644 1172 653 1202 q 617 1121 634 1142 q 575 1088 600 1100 q 519 1077 550 1077 q 472 1084 495 1077 q 419 1110 448 1092 l 382 1133 l 374 1138 q 349 1151 361 1145 q 326 1156 337 1156 q 290 1136 304 1156 q 277 1081 277 1116 l 277 1077 l 182 1077 l 182 1097 m 418 -20 q 262 3 327 -20 q 154 74 197 26 q 92 196 112 122 q 72 374 72 271 l 72 1013 l 272 1013 l 272 323 q 310 204 272 248 q 418 161 349 161 q 525 204 487 161 q 564 323 564 248 l 564 1013 l 764 1013 l 764 374 q 744 196 764 271 q 682 74 724 122 q 574 3 640 26 q 418 -20 509 -20 z "},"V":{"ha":836,"x_min":39,"x_max":798,"o":"m 39 1013 l 240 1013 l 418 167 l 596 1013 l 798 1013 l 557 0 l 279 0 l 39 1013 z "},"W":{"ha":836,"x_min":0,"x_max":836,"o":"m 0 1013 l 175 1013 l 248 269 l 335 750 l 501 750 l 603 269 l 660 1013 l 836 1013 l 720 0 l 533 0 l 418 532 l 310 0 l 125 0 l 0 1013 z "},"Ẃ":{"ha":836,"x_min":0,"x_max":836,"o":"m 453 1261 l 646 1261 l 452 1082 l 318 1082 l 453 1261 m 0 1013 l 175 1013 l 248 269 l 335 750 l 501 750 l 603 269 l 660 1013 l 836 1013 l 720 0 l 533 0 l 418 532 l 310 0 l 125 0 l 0 1013 z "},"Ŵ":{"ha":836,"x_min":0,"x_max":836,"o":"m 313 1261 l 522 1261 l 673 1082 l 553 1082 l 418 1191 l 283 1082 l 163 1082 l 313 1261 m 0 1013 l 175 1013 l 248 269 l 335 750 l 501 750 l 603 269 l 660 1013 l 836 1013 l 720 0 l 533 0 l 418 532 l 310 0 l 125 0 l 0 1013 z "},"Ẅ":{"ha":836,"x_min":0,"x_max":836,"o":"m 224 1082 q 204 1102 204 1082 l 204 1228 q 224 1249 204 1249 l 344 1249 q 364 1228 364 1249 l 364 1102 q 344 1082 364 1082 l 224 1082 m 492 1082 q 472 1102 472 1082 l 472 1228 q 492 1249 472 1249 l 612 1249 q 632 1228 632 1249 l 632 1102 q 612 1082 632 1082 l 492 1082 m 0 1013 l 175 1013 l 248 269 l 335 750 l 501 750 l 603 269 l 660 1013 l 836 1013 l 720 0 l 533 0 l 418 532 l 310 0 l 125 0 l 0 1013 z "},"Ẁ":{"ha":836,"x_min":0,"x_max":836,"o":"m 192 1261 l 385 1261 l 519 1082 l 386 1082 l 192 1261 m 0 1013 l 175 1013 l 248 269 l 335 750 l 501 750 l 603 269 l 660 1013 l 836 1013 l 720 0 l 533 0 l 418 532 l 310 0 l 125 0 l 0 1013 z "},"X":{"ha":836,"x_min":18,"x_max":818,"o":"m 315 514 l 26 1013 l 233 1013 l 418 690 l 603 1013 l 810 1013 l 522 514 l 818 0 l 611 0 l 418 335 l 225 0 l 18 0 l 315 514 z "},"Y":{"ha":836,"x_min":5,"x_max":831,"o":"m 318 399 l 5 1013 l 221 1013 l 418 606 l 615 1013 l 831 1013 l 518 399 l 518 0 l 318 0 l 318 399 z "},"Ý":{"ha":836,"x_min":5,"x_max":831,"o":"m 453 1256 l 646 1256 l 452 1077 l 318 1077 l 453 1256 m 318 399 l 5 1013 l 221 1013 l 418 606 l 615 1013 l 831 1013 l 518 399 l 518 0 l 318 0 l 318 399 z "},"Ŷ":{"ha":836,"x_min":5,"x_max":831,"o":"m 313 1261 l 522 1261 l 673 1082 l 553 1082 l 418 1191 l 283 1082 l 163 1082 l 313 1261 m 318 399 l 5 1013 l 221 1013 l 418 606 l 615 1013 l 831 1013 l 518 399 l 518 0 l 318 0 l 318 399 z "},"Ÿ":{"ha":836,"x_min":5,"x_max":831,"o":"m 224 1089 q 204 1109 204 1089 l 204 1236 q 224 1256 204 1256 l 344 1256 q 364 1236 364 1256 l 364 1109 q 344 1089 364 1089 l 224 1089 m 492 1089 q 472 1109 472 1089 l 472 1236 q 492 1256 472 1256 l 612 1256 q 632 1236 632 1256 l 632 1109 q 612 1089 632 1089 l 492 1089 m 318 399 l 5 1013 l 221 1013 l 418 606 l 615 1013 l 831 1013 l 518 399 l 518 0 l 318 0 l 318 399 z "},"Ỳ":{"ha":836,"x_min":5,"x_max":831,"o":"m 192 1261 l 385 1261 l 519 1082 l 386 1082 l 192 1261 m 318 399 l 5 1013 l 221 1013 l 418 606 l 615 1013 l 831 1013 l 518 399 l 518 0 l 318 0 l 318 399 z "},"Z":{"ha":836,"x_min":64,"x_max":773,"o":"m 64 165 l 519 836 l 79 836 l 79 1013 l 764 1013 l 764 847 l 294 176 l 773 176 l 773 0 l 64 0 l 64 165 z "},"Ź":{"ha":836,"x_min":78,"x_max":787,"o":"m 474 1257 l 667 1257 l 473 1078 l 339 1078 l 474 1257 m 78 165 l 533 836 l 93 836 l 93 1013 l 778 1013 l 778 847 l 309 176 l 787 176 l 787 0 l 78 0 l 78 165 z "},"Ž":{"ha":836,"x_min":78,"x_max":787,"o":"m 163 1256 l 283 1256 l 418 1146 l 553 1256 l 673 1256 l 522 1077 l 313 1077 l 163 1256 m 78 165 l 533 836 l 93 836 l 93 1013 l 778 1013 l 778 847 l 309 176 l 787 176 l 787 0 l 78 0 l 78 165 z "},"Ż":{"ha":836,"x_min":78,"x_max":787,"o":"m 379 1089 q 359 1109 359 1089 l 359 1236 q 379 1256 359 1256 l 525 1256 q 545 1236 545 1256 l 545 1109 q 525 1089 545 1089 l 379 1089 m 78 165 l 533 836 l 93 836 l 93 1013 l 778 1013 l 778 847 l 309 176 l 787 176 l 787 0 l 78 0 l 78 165 z "},"a":{"ha":836,"x_min":64,"x_max":783,"o":"m 335 -20 q 223 -3 273 -20 q 137 49 174 14 q 64 240 64 117 q 85 355 64 305 q 151 437 106 404 q 417 500 237 500 l 555 500 l 555 533 q 546 576 555 558 q 520 606 536 595 q 476 625 503 619 q 414 631 449 631 q 347 626 381 631 q 279 613 313 622 q 212 590 247 604 q 140 555 176 575 l 140 725 q 204 748 168 736 q 273 765 239 759 q 341 774 301 770 q 426 779 381 779 q 512 773 473 779 q 581 758 550 768 q 635 733 612 747 q 676 702 659 719 q 709 660 694 684 q 733 604 723 636 q 747 531 743 572 q 752 437 752 490 q 752 403 752 424 q 751 357 751 382 q 750 305 751 332 q 750 254 750 278 q 749 212 749 231 q 749 186 749 194 q 749 157 749 172 q 750 134 749 143 q 752 107 751 120 q 755 85 753 94 q 760 59 757 71 q 764 39 762 46 q 773 18 768 29 q 783 0 778 7 l 587 0 q 575 21 581 10 q 568 39 570 32 q 563 59 566 46 q 559 85 560 71 q 463 7 522 35 q 404 -13 434 -6 q 335 -20 374 -20 m 391 118 q 459 133 429 118 q 511 178 490 147 q 555 343 555 236 l 555 357 l 475 357 q 320 328 363 357 q 276 232 276 300 q 283 184 276 204 q 307 149 291 164 q 391 118 337 118 z "},"á":{"ha":836,"x_min":64,"x_max":783,"o":"m 510 1135 l 701 1135 l 452 880 l 318 880 l 510 1135 m 335 -20 q 223 -3 273 -20 q 137 49 174 14 q 64 240 64 117 q 85 355 64 305 q 151 437 106 404 q 417 500 237 500 l 555 500 l 555 533 q 546 576 555 558 q 520 606 536 595 q 476 625 503 619 q 414 631 449 631 q 347 626 381 631 q 279 613 313 622 q 212 590 247 604 q 140 555 176 575 l 140 725 q 204 748 168 736 q 273 765 239 759 q 341 774 301 770 q 426 779 381 779 q 512 773 473 779 q 581 758 550 768 q 635 733 612 747 q 676 702 659 719 q 709 660 694 684 q 733 604 723 636 q 747 531 743 572 q 752 437 752 490 q 752 403 752 424 q 751 357 751 382 q 750 305 751 332 q 750 254 750 278 q 749 212 749 231 q 749 186 749 194 q 749 157 749 172 q 750 134 749 143 q 752 107 751 120 q 755 85 753 94 q 760 59 757 71 q 764 39 762 46 q 773 18 768 29 q 783 0 778 7 l 587 0 q 575 21 581 10 q 568 39 570 32 q 563 59 566 46 q 559 85 560 71 q 463 7 522 35 q 404 -13 434 -6 q 335 -20 374 -20 m 391 118 q 459 133 429 118 q 511 178 490 147 q 555 343 555 236 l 555 357 l 475 357 q 320 328 363 357 q 276 232 276 300 q 283 184 276 204 q 307 149 291 164 q 391 118 337 118 z "},"ă":{"ha":836,"x_min":64,"x_max":783,"o":"m 418 880 q 253 931 311 880 q 191 1081 195 983 l 286 1081 q 327 1009 294 1034 q 418 983 361 983 q 508 1008 475 983 q 549 1081 541 1034 l 646 1081 q 583 931 642 983 q 418 880 525 880 m 335 -20 q 223 -3 273 -20 q 137 49 174 14 q 64 240 64 117 q 85 355 64 305 q 151 437 106 404 q 417 500 237 500 l 555 500 l 555 533 q 546 576 555 558 q 520 606 536 595 q 476 625 503 619 q 414 631 449 631 q 347 626 381 631 q 279 613 313 622 q 212 590 247 604 q 140 555 176 575 l 140 725 q 204 748 168 736 q 273 765 239 759 q 341 774 301 770 q 426 779 381 779 q 512 773 473 779 q 581 758 550 768 q 635 733 612 747 q 676 702 659 719 q 709 660 694 684 q 733 604 723 636 q 747 531 743 572 q 752 437 752 490 q 752 403 752 424 q 751 357 751 382 q 750 305 751 332 q 750 254 750 278 q 749 212 749 231 q 749 186 749 194 q 749 157 749 172 q 750 134 749 143 q 752 107 751 120 q 755 85 753 94 q 760 59 757 71 q 764 39 762 46 q 773 18 768 29 q 783 0 778 7 l 587 0 q 575 21 581 10 q 568 39 570 32 q 563 59 566 46 q 559 85 560 71 q 463 7 522 35 q 404 -13 434 -6 q 335 -20 374 -20 m 391 118 q 459 133 429 118 q 511 178 490 147 q 555 343 555 236 l 555 357 l 475 357 q 320 328 363 357 q 276 232 276 300 q 283 184 276 204 q 307 149 291 164 q 391 118 337 118 z "},"â":{"ha":836,"x_min":64,"x_max":783,"o":"m 336 1134 l 500 1134 l 673 879 l 553 879 l 418 1031 l 283 879 l 163 879 l 336 1134 m 335 -20 q 223 -3 273 -20 q 137 49 174 14 q 64 240 64 117 q 85 355 64 305 q 151 437 106 404 q 417 500 237 500 l 555 500 l 555 533 q 546 576 555 558 q 520 606 536 595 q 476 625 503 619 q 414 631 449 631 q 347 626 381 631 q 279 613 313 622 q 212 590 247 604 q 140 555 176 575 l 140 725 q 204 748 168 736 q 273 765 239 759 q 341 774 301 770 q 426 779 381 779 q 512 773 473 779 q 581 758 550 768 q 635 733 612 747 q 676 702 659 719 q 709 660 694 684 q 733 604 723 636 q 747 531 743 572 q 752 437 752 490 q 752 403 752 424 q 751 357 751 382 q 750 305 751 332 q 750 254 750 278 q 749 212 749 231 q 749 186 749 194 q 749 157 749 172 q 750 134 749 143 q 752 107 751 120 q 755 85 753 94 q 760 59 757 71 q 764 39 762 46 q 773 18 768 29 q 783 0 778 7 l 587 0 q 575 21 581 10 q 568 39 570 32 q 563 59 566 46 q 559 85 560 71 q 463 7 522 35 q 404 -13 434 -6 q 335 -20 374 -20 m 391 118 q 459 133 429 118 q 511 178 490 147 q 555 343 555 236 l 555 357 l 475 357 q 320 328 363 357 q 276 232 276 300 q 283 184 276 204 q 307 149 291 164 q 391 118 337 118 z "},"ä":{"ha":836,"x_min":64,"x_max":783,"o":"m 224 915 q 204 935 204 915 l 204 1061 q 224 1082 204 1082 l 344 1082 q 364 1061 364 1082 l 364 935 q 344 915 364 915 l 224 915 m 492 915 q 472 935 472 915 l 472 1061 q 492 1082 472 1082 l 612 1082 q 632 1061 632 1082 l 632 935 q 612 915 632 915 l 492 915 m 335 -20 q 223 -3 273 -20 q 137 49 174 14 q 64 240 64 117 q 85 355 64 305 q 151 437 106 404 q 417 500 237 500 l 555 500 l 555 533 q 546 576 555 558 q 520 606 536 595 q 476 625 503 619 q 414 631 449 631 q 347 626 381 631 q 279 613 313 622 q 212 590 247 604 q 140 555 176 575 l 140 725 q 204 748 168 736 q 273 765 239 759 q 341 774 301 770 q 426 779 381 779 q 512 773 473 779 q 581 758 550 768 q 635 733 612 747 q 676 702 659 719 q 709 660 694 684 q 733 604 723 636 q 747 531 743 572 q 752 437 752 490 q 752 403 752 424 q 751 357 751 382 q 750 305 751 332 q 750 254 750 278 q 749 212 749 231 q 749 186 749 194 q 749 157 749 172 q 750 134 749 143 q 752 107 751 120 q 755 85 753 94 q 760 59 757 71 q 764 39 762 46 q 773 18 768 29 q 783 0 778 7 l 587 0 q 575 21 581 10 q 568 39 570 32 q 563 59 566 46 q 559 85 560 71 q 463 7 522 35 q 404 -13 434 -6 q 335 -20 374 -20 m 391 118 q 459 133 429 118 q 511 178 490 147 q 555 343 555 236 l 555 357 l 475 357 q 320 328 363 357 q 276 232 276 300 q 283 184 276 204 q 307 149 291 164 q 391 118 337 118 z "},"à":{"ha":836,"x_min":64,"x_max":783,"o":"m 135 1135 l 326 1135 l 518 880 l 385 880 l 135 1135 m 335 -20 q 223 -3 273 -20 q 137 49 174 14 q 64 240 64 117 q 85 355 64 305 q 151 437 106 404 q 417 500 237 500 l 555 500 l 555 533 q 546 576 555 558 q 520 606 536 595 q 476 625 503 619 q 414 631 449 631 q 347 626 381 631 q 279 613 313 622 q 212 590 247 604 q 140 555 176 575 l 140 725 q 204 748 168 736 q 273 765 239 759 q 341 774 301 770 q 426 779 381 779 q 512 773 473 779 q 581 758 550 768 q 635 733 612 747 q 676 702 659 719 q 709 660 694 684 q 733 604 723 636 q 747 531 743 572 q 752 437 752 490 q 752 403 752 424 q 751 357 751 382 q 750 305 751 332 q 750 254 750 278 q 749 212 749 231 q 749 186 749 194 q 749 157 749 172 q 750 134 749 143 q 752 107 751 120 q 755 85 753 94 q 760 59 757 71 q 764 39 762 46 q 773 18 768 29 q 783 0 778 7 l 587 0 q 575 21 581 10 q 568 39 570 32 q 563 59 566 46 q 559 85 560 71 q 463 7 522 35 q 404 -13 434 -6 q 335 -20 374 -20 m 391 118 q 459 133 429 118 q 511 178 490 147 q 555 343 555 236 l 555 357 l 475 357 q 320 328 363 357 q 276 232 276 300 q 283 184 276 204 q 307 149 291 164 q 391 118 337 118 z "},"ā":{"ha":836,"x_min":64,"x_max":783,"o":"m 204 1041 l 632 1041 l 632 913 l 204 913 l 204 1041 m 335 -20 q 223 -3 273 -20 q 137 49 174 14 q 64 240 64 117 q 85 355 64 305 q 151 437 106 404 q 417 500 237 500 l 555 500 l 555 533 q 546 576 555 558 q 520 606 536 595 q 476 625 503 619 q 414 631 449 631 q 347 626 381 631 q 279 613 313 622 q 212 590 247 604 q 140 555 176 575 l 140 725 q 204 748 168 736 q 273 765 239 759 q 341 774 301 770 q 426 779 381 779 q 512 773 473 779 q 581 758 550 768 q 635 733 612 747 q 676 702 659 719 q 709 660 694 684 q 733 604 723 636 q 747 531 743 572 q 752 437 752 490 q 752 403 752 424 q 751 357 751 382 q 750 305 751 332 q 750 254 750 278 q 749 212 749 231 q 749 186 749 194 q 749 157 749 172 q 750 134 749 143 q 752 107 751 120 q 755 85 753 94 q 760 59 757 71 q 764 39 762 46 q 773 18 768 29 q 783 0 778 7 l 587 0 q 575 21 581 10 q 568 39 570 32 q 563 59 566 46 q 559 85 560 71 q 463 7 522 35 q 404 -13 434 -6 q 335 -20 374 -20 m 391 118 q 459 133 429 118 q 511 178 490 147 q 555 343 555 236 l 555 357 l 475 357 q 320 328 363 357 q 276 232 276 300 q 283 184 276 204 q 307 149 291 164 q 391 118 337 118 z "},"ą":{"ha":836,"x_min":64,"x_max":803,"o":"m 703 -171 q 750 -166 724 -171 q 803 -150 776 -161 l 803 -256 q 734 -267 766 -263 q 676 -271 702 -271 q 555 -240 597 -271 q 513 -151 513 -209 q 531 -77 513 -114 q 587 0 549 -41 q 575 21 581 10 q 568 39 570 32 q 563 59 566 46 q 559 85 560 71 q 463 7 522 35 q 404 -13 434 -6 q 335 -20 374 -20 q 223 -3 273 -20 q 137 49 174 14 q 64 240 64 117 q 85 355 64 305 q 151 437 106 404 q 417 500 237 500 l 555 500 l 555 533 q 546 576 555 558 q 520 606 536 595 q 476 625 503 619 q 414 631 449 631 q 347 626 381 631 q 279 613 313 622 q 212 590 247 604 q 140 555 176 575 l 140 725 q 204 748 168 736 q 273 765 239 759 q 341 774 301 770 q 426 779 381 779 q 512 773 473 779 q 581 758 550 768 q 635 733 612 747 q 676 702 659 719 q 709 660 694 684 q 733 604 723 636 q 747 531 743 572 q 752 437 752 490 q 752 403 752 424 q 751 357 751 382 q 750 305 751 332 q 750 254 750 278 q 749 212 749 231 q 749 186 749 194 q 749 157 749 172 q 750 134 749 143 q 752 107 751 120 q 755 85 753 94 q 760 59 757 71 q 764 39 762 46 q 773 18 768 29 q 783 0 778 7 l 683 0 q 664 -26 671 -16 q 650 -45 656 -37 q 642 -60 645 -54 q 635 -71 638 -66 q 626 -92 629 -83 q 623 -111 623 -102 q 642 -153 623 -135 q 703 -171 661 -171 m 555 357 l 475 357 q 320 328 363 357 q 276 232 276 300 q 283 184 276 204 q 307 149 291 164 q 391 118 337 118 q 459 133 429 118 q 511 178 490 147 q 555 343 555 236 l 555 357 z "},"å":{"ha":836,"x_min":64,"x_max":783,"o":"m 418 847 q 344 861 380 847 q 281 903 309 876 q 241 963 257 927 q 225 1041 225 998 q 241 1119 225 1084 q 281 1178 258 1154 q 344 1220 309 1206 q 418 1234 379 1234 q 495 1218 460 1234 q 555 1178 530 1203 q 595 1118 579 1154 q 611 1040 611 1083 q 597 967 611 1002 q 555 904 583 932 q 492 861 527 876 q 418 847 457 847 m 418 951 q 481 978 455 951 q 507 1040 507 1004 q 481 1103 507 1077 q 418 1129 454 1129 q 355 1103 381 1129 q 329 1040 329 1077 q 355 977 329 1003 q 382 959 366 966 q 418 951 398 951 m 335 -20 q 223 -3 273 -20 q 137 49 174 14 q 64 240 64 117 q 85 355 64 305 q 151 437 106 404 q 417 500 237 500 l 555 500 l 555 533 q 546 576 555 558 q 520 606 536 595 q 476 625 503 619 q 414 631 449 631 q 347 626 381 631 q 279 613 313 622 q 212 590 247 604 q 140 555 176 575 l 140 725 q 204 748 168 736 q 273 765 239 759 q 341 774 301 770 q 426 779 381 779 q 512 773 473 779 q 581 758 550 768 q 635 733 612 747 q 676 702 659 719 q 709 660 694 684 q 733 604 723 636 q 747 531 743 572 q 752 437 752 490 q 752 403 752 424 q 751 357 751 382 q 750 305 751 332 q 750 254 750 278 q 749 212 749 231 q 749 186 749 194 q 749 157 749 172 q 750 134 749 143 q 752 107 751 120 q 755 85 753 94 q 760 59 757 71 q 764 39 762 46 q 773 18 768 29 q 783 0 778 7 l 587 0 q 575 21 581 10 q 568 39 570 32 q 563 59 566 46 q 559 85 560 71 q 463 7 522 35 q 404 -13 434 -6 q 335 -20 374 -20 m 391 118 q 459 133 429 118 q 511 178 490 147 q 555 343 555 236 l 555 357 l 475 357 q 320 328 363 357 q 276 232 276 300 q 283 184 276 204 q 307 149 291 164 q 391 118 337 118 z "},"ã":{"ha":836,"x_min":64,"x_max":783,"o":"m 521 893 q 474 901 496 893 q 419 932 452 909 l 374 962 q 347 977 359 972 q 325 982 336 982 q 303 976 312 982 q 290 961 295 970 q 277 900 277 940 l 277 895 l 182 895 q 191 978 182 943 q 217 1038 200 1014 q 257 1074 233 1060 q 315 1087 281 1087 q 364 1078 340 1087 q 390 1066 378 1073 q 416 1048 402 1059 l 458 1019 q 473 1010 467 1013 q 486 1004 478 1007 q 509 998 498 998 q 547 1020 533 998 q 559 1080 559 1041 l 559 1086 l 654 1086 q 620 943 654 993 q 579 906 604 920 q 521 893 554 893 m 335 -20 q 223 -3 273 -20 q 137 49 174 14 q 64 240 64 117 q 85 355 64 305 q 151 437 106 404 q 417 500 237 500 l 555 500 l 555 533 q 546 576 555 558 q 520 606 536 595 q 476 625 503 619 q 414 631 449 631 q 347 626 381 631 q 279 613 313 622 q 212 590 247 604 q 140 555 176 575 l 140 725 q 204 748 168 736 q 273 765 239 759 q 341 774 301 770 q 426 779 381 779 q 512 773 473 779 q 581 758 550 768 q 635 733 612 747 q 676 702 659 719 q 709 660 694 684 q 733 604 723 636 q 747 531 743 572 q 752 437 752 490 q 752 403 752 424 q 751 357 751 382 q 750 305 751 332 q 750 254 750 278 q 749 212 749 231 q 749 186 749 194 q 749 157 749 172 q 750 134 749 143 q 752 107 751 120 q 755 85 753 94 q 760 59 757 71 q 764 39 762 46 q 773 18 768 29 q 783 0 778 7 l 587 0 q 575 21 581 10 q 568 39 570 32 q 563 59 566 46 q 559 85 560 71 q 463 7 522 35 q 404 -13 434 -6 q 335 -20 374 -20 m 391 118 q 459 133 429 118 q 511 178 490 147 q 555 343 555 236 l 555 357 l 475 357 q 320 328 363 357 q 276 232 276 300 q 283 184 276 204 q 307 149 291 164 q 391 118 337 118 z "},"æ":{"ha":836,"x_min":9,"x_max":806,"o":"m 235 -20 q 68 43 127 -20 q 9 221 9 106 q 78 409 9 347 q 285 471 146 471 l 336 471 l 336 505 q 310 600 336 568 q 233 632 283 632 q 189 627 211 632 q 148 614 168 622 q 103 592 128 606 q 52 558 78 578 l 52 725 q 149 765 102 752 q 242 778 196 778 q 300 773 273 778 q 349 757 328 768 q 415 692 391 736 q 479 755 434 733 q 587 778 524 778 q 689 758 648 778 q 755 697 730 738 q 777 652 768 677 q 792 591 786 626 q 802 512 799 557 q 806 411 806 467 l 806 325 l 500 325 q 534 176 500 228 q 573 139 549 153 q 632 125 597 125 q 675 130 655 125 q 713 145 694 136 q 751 168 731 154 q 794 204 771 181 l 794 39 q 718 -5 760 9 q 672 -16 696 -13 q 621 -20 647 -20 q 554 -13 584 -20 q 498 9 524 -5 q 419 92 448 37 q 387 42 406 63 q 347 7 369 21 q 235 -20 303 -20 m 653 468 l 653 484 q 636 600 653 569 q 576 632 618 632 q 517 600 534 632 q 500 484 500 569 l 500 468 l 653 468 m 248 125 q 311 154 290 125 q 332 243 332 183 l 332 328 l 282 328 q 193 301 224 328 q 163 223 163 275 q 184 151 163 176 q 248 125 206 125 z "},"b":{"ha":836,"x_min":102,"x_max":775,"o":"m 502 -20 q 382 14 432 -20 q 300 113 331 47 l 280 0 l 102 0 l 102 1055 l 300 1055 l 300 652 q 385 747 336 715 q 436 770 409 762 q 498 778 464 778 q 615 752 564 778 q 703 675 667 726 q 756 552 737 626 q 775 380 775 479 q 758 212 775 287 q 703 84 740 137 q 616 6 667 32 q 502 -20 566 -20 m 439 143 q 540 205 503 143 q 576 378 576 267 q 540 550 576 488 q 439 612 503 612 q 337 550 375 612 q 300 378 300 488 q 337 205 300 267 q 439 143 375 143 z "},"c":{"ha":836,"x_min":100,"x_max":706,"o":"m 476 -20 q 199 86 298 -20 q 100 379 100 193 q 200 673 100 566 q 474 779 300 779 q 593 765 536 779 q 706 721 650 751 l 706 539 q 660 573 684 558 q 611 597 635 587 q 559 611 587 606 q 503 616 532 616 q 415 601 452 616 q 354 555 379 585 q 302 379 302 492 q 354 204 302 266 q 503 143 406 143 q 611 163 560 143 q 657 185 633 171 q 706 221 682 199 l 706 39 q 653 13 679 23 q 598 -5 627 3 q 541 -16 570 -12 q 476 -20 511 -20 z "},"ć":{"ha":836,"x_min":114,"x_max":770,"o":"m 579 1134 l 770 1134 l 521 879 l 387 879 l 579 1134 m 490 -20 q 213 86 311 -20 q 114 379 114 193 q 214 673 114 566 q 488 779 313 779 q 607 765 550 779 q 720 721 663 751 l 720 539 q 673 573 698 558 q 625 597 648 587 q 573 611 601 606 q 516 616 545 616 q 429 601 465 616 q 368 555 393 585 q 315 379 315 492 q 368 204 315 266 q 517 143 419 143 q 625 163 574 143 q 671 185 646 171 q 720 221 696 199 l 720 39 q 666 13 692 23 q 612 -5 640 3 q 554 -16 583 -12 q 490 -20 525 -20 z "},"č":{"ha":836,"x_min":114,"x_max":743,"o":"m 232 1136 l 353 1136 l 487 982 l 622 1136 l 743 1136 l 569 881 l 406 881 l 232 1136 m 490 -20 q 213 86 311 -20 q 114 379 114 193 q 214 673 114 566 q 488 779 313 779 q 607 765 550 779 q 720 721 663 751 l 720 539 q 673 573 698 558 q 625 597 648 587 q 573 611 601 606 q 516 616 545 616 q 429 601 465 616 q 368 555 393 585 q 315 379 315 492 q 368 204 315 266 q 517 143 419 143 q 625 163 574 143 q 671 185 646 171 q 720 221 696 199 l 720 39 q 666 13 692 23 q 612 -5 640 3 q 554 -16 583 -12 q 490 -20 525 -20 z "},"ç":{"ha":836,"x_min":114,"x_max":720,"o":"m 516 616 q 429 601 465 616 q 368 555 393 585 q 315 379 315 492 q 368 204 315 266 q 517 143 419 143 q 625 163 574 143 q 671 185 646 171 q 720 221 696 199 l 720 39 q 666 13 692 23 q 612 -5 640 3 q 543 -17 578 -13 q 569 -50 558 -35 q 586 -78 579 -66 q 604 -150 604 -113 q 593 -204 604 -181 q 562 -241 582 -227 q 515 -263 545 -255 q 436 -272 486 -272 q 402 -271 420 -272 q 368 -268 385 -270 q 328 -261 342 -264 q 298 -254 313 -258 l 298 -149 q 328 -158 313 -154 q 357 -166 342 -163 q 410 -172 385 -172 q 471 -157 448 -172 q 493 -115 493 -141 q 479 -68 493 -96 q 466 -45 473 -58 q 447 -18 458 -33 q 314 13 372 -13 q 213 86 256 39 q 114 379 114 193 q 214 673 114 566 q 488 779 313 779 q 607 765 550 779 q 720 721 663 751 l 720 539 q 673 573 698 558 q 625 597 648 587 q 573 611 601 606 q 516 616 545 616 z "},"ċ":{"ha":836,"x_min":114,"x_max":720,"o":"m 396 915 q 376 935 376 915 l 376 1061 q 396 1082 376 1082 l 542 1082 q 562 1061 562 1082 l 562 935 q 542 915 562 915 l 396 915 m 490 -20 q 331 7 401 -20 q 213 86 261 35 q 139 211 165 138 q 114 378 114 285 q 140 547 114 473 q 214 673 165 621 q 332 752 262 724 q 489 779 401 779 q 607 765 551 779 q 720 721 663 751 l 720 539 q 624 596 676 576 q 517 616 572 616 q 367 555 419 616 q 315 378 315 494 q 367 204 315 264 q 519 143 419 143 q 627 163 576 143 q 720 221 677 183 l 720 39 q 490 -20 618 -20 z "},"d":{"ha":836,"x_min":61,"x_max":734,"o":"m 334 -20 q 220 6 271 -20 q 133 84 170 32 q 61 380 61 188 q 134 675 61 572 q 220 751 169 724 q 338 778 271 778 q 398 771 370 778 q 452 747 426 764 q 536 652 500 715 l 536 1055 l 734 1055 l 734 0 l 556 0 l 536 113 q 500 55 521 79 q 454 14 479 30 q 334 -20 404 -20 m 397 143 q 499 205 461 143 q 536 378 536 267 q 499 550 536 488 q 397 612 461 612 q 296 550 333 612 q 260 378 260 488 q 296 205 260 267 q 397 143 333 143 z "},"ð":{"ha":836,"x_min":66,"x_max":764,"o":"m 416 -20 q 267 8 331 -20 q 160 84 203 36 q 90 207 113 136 q 66 362 66 277 q 154 619 66 524 q 254 689 195 664 q 389 714 313 714 q 439 710 417 714 q 478 697 460 706 l 370 846 l 158 765 l 121 844 l 313 918 l 205 1055 l 404 1055 l 467 977 l 668 1063 l 713 979 l 525 900 l 637 746 q 696 654 672 699 q 734 568 720 610 q 764 379 764 482 q 741 212 764 286 q 672 86 718 138 q 562 7 627 34 q 416 -20 497 -20 m 416 142 q 483 158 454 142 q 528 203 511 175 q 557 279 548 234 q 567 377 567 323 q 566 413 567 395 q 563 446 565 431 q 558 477 562 457 q 550 515 554 497 q 512 534 528 528 q 484 543 496 540 q 418 553 449 553 q 354 540 383 553 q 304 504 325 528 q 274 446 285 480 q 264 363 264 411 q 274 273 264 314 q 304 202 285 231 q 416 142 345 142 z "},"ď":{"ha":836,"x_min":61,"x_max":987,"o":"m 333 -20 q 218 7 269 -20 q 133 85 168 34 q 79 210 98 136 q 61 379 61 284 q 80 550 61 475 q 135 675 99 624 q 221 752 170 726 q 336 778 272 778 q 450 748 402 778 q 536 652 497 718 l 536 1055 l 734 1055 l 734 0 l 556 0 l 536 113 q 455 14 505 48 q 333 -20 406 -20 m 792 1055 l 987 1055 l 876 795 l 739 795 l 792 1055 m 397 143 q 456 159 430 143 q 499 205 481 175 q 527 279 517 236 q 536 378 536 323 q 527 476 536 433 q 499 550 517 519 q 456 596 481 581 q 397 612 430 612 q 339 596 365 612 q 296 550 314 581 q 269 476 279 519 q 260 378 260 433 q 269 279 260 323 q 296 205 279 236 q 339 159 314 175 q 397 143 365 143 z "},"đ":{"ha":836,"x_min":61,"x_max":833,"o":"m 334 -20 q 220 6 271 -20 q 133 84 170 32 q 61 380 61 188 q 134 675 61 572 q 220 751 169 724 q 338 778 271 778 q 398 771 370 778 q 452 747 426 764 q 536 652 500 715 l 536 848 l 329 848 l 329 977 l 536 977 l 536 1055 l 734 1055 l 734 977 l 833 977 l 833 848 l 734 848 l 734 0 l 556 0 l 536 113 q 500 55 521 79 q 454 14 479 30 q 334 -20 404 -20 m 397 143 q 499 205 461 143 q 536 378 536 267 q 499 550 536 488 q 397 612 461 612 q 296 550 333 612 q 260 378 260 488 q 296 205 260 267 q 397 143 333 143 z "},"e":{"ha":836,"x_min":56,"x_max":772,"o":"m 451 -20 q 280 6 352 -20 q 157 83 208 31 q 56 376 56 186 q 80 543 56 471 q 153 670 104 616 q 418 778 249 778 q 565 754 498 778 q 680 678 631 730 q 750 555 728 627 q 772 396 772 484 l 772 315 l 258 315 q 311 182 259 225 q 466 138 363 138 q 602 157 534 138 q 667 182 633 167 q 741 220 702 197 l 741 37 q 600 -5 671 9 q 525 -16 563 -13 q 451 -20 488 -20 m 572 465 q 532 584 571 544 q 485 613 514 603 q 418 624 456 624 q 308 583 349 624 q 260 464 267 541 l 572 465 z "},"é":{"ha":836,"x_min":56,"x_max":772,"o":"m 530 1134 l 721 1134 l 471 879 l 338 879 l 530 1134 m 451 -20 q 280 6 352 -20 q 157 83 208 31 q 56 376 56 186 q 80 543 56 471 q 153 670 104 616 q 418 778 249 778 q 565 754 498 778 q 680 678 631 730 q 750 555 728 627 q 772 396 772 484 l 772 315 l 258 315 q 311 182 259 225 q 466 138 363 138 q 602 157 534 138 q 667 182 633 167 q 741 220 702 197 l 741 37 q 600 -5 671 9 q 525 -16 563 -13 q 451 -20 488 -20 m 572 465 q 532 584 571 544 q 485 613 514 603 q 418 624 456 624 q 308 583 349 624 q 260 464 267 541 l 572 465 z "},"ě":{"ha":836,"x_min":56,"x_max":772,"o":"m 168 1138 l 288 1138 l 422 984 l 557 1138 l 678 1138 l 505 883 l 341 883 l 168 1138 m 454 -20 q 281 6 355 -20 q 157 82 207 32 q 81 205 106 132 q 56 373 56 278 q 80 542 56 467 q 152 669 105 617 q 267 750 199 722 q 421 778 334 778 q 568 752 503 778 q 679 677 633 726 q 748 558 724 629 q 772 396 772 487 l 772 315 l 258 315 q 467 138 258 138 q 602 157 536 138 q 741 220 667 177 l 741 37 q 600 -5 673 9 q 454 -20 528 -20 m 572 465 q 532 584 571 543 q 420 624 492 624 q 308 583 347 624 q 260 464 268 542 l 572 465 z "},"ê":{"ha":836,"x_min":56,"x_max":772,"o":"m 356 1135 l 519 1135 l 693 880 l 572 880 l 437 1032 l 303 880 l 182 880 l 356 1135 m 451 -20 q 280 6 352 -20 q 157 83 208 31 q 56 376 56 186 q 80 543 56 471 q 153 670 104 616 q 418 778 249 778 q 565 754 498 778 q 680 678 631 730 q 750 555 728 627 q 772 396 772 484 l 772 315 l 258 315 q 311 182 259 225 q 466 138 363 138 q 602 157 534 138 q 667 182 633 167 q 741 220 702 197 l 741 37 q 600 -5 671 9 q 525 -16 563 -13 q 451 -20 488 -20 m 572 465 q 532 584 571 544 q 485 613 514 603 q 418 624 456 624 q 308 583 349 624 q 260 464 267 541 l 572 465 z "},"ë":{"ha":836,"x_min":56,"x_max":772,"o":"m 244 915 q 224 935 224 915 l 224 1061 q 244 1082 224 1082 l 363 1082 q 384 1061 384 1082 l 384 935 q 363 915 384 915 l 244 915 m 512 915 q 492 935 492 915 l 492 1061 q 512 1082 492 1082 l 631 1082 q 652 1061 652 1082 l 652 935 q 631 915 652 915 l 512 915 m 451 -20 q 280 6 352 -20 q 157 83 208 31 q 56 376 56 186 q 80 543 56 471 q 153 670 104 616 q 418 778 249 778 q 565 754 498 778 q 680 678 631 730 q 750 555 728 627 q 772 396 772 484 l 772 315 l 258 315 q 311 182 259 225 q 466 138 363 138 q 602 157 534 138 q 667 182 633 167 q 741 220 702 197 l 741 37 q 600 -5 671 9 q 525 -16 563 -13 q 451 -20 488 -20 m 572 465 q 532 584 571 544 q 485 613 514 603 q 418 624 456 624 q 308 583 349 624 q 260 464 267 541 l 572 465 z "},"ė":{"ha":836,"x_min":56,"x_max":772,"o":"m 365 915 q 345 935 345 915 l 345 1061 q 365 1082 345 1082 l 511 1082 q 531 1061 531 1082 l 531 935 q 511 915 531 915 l 365 915 m 454 -20 q 281 6 355 -20 q 157 82 207 32 q 81 205 106 132 q 56 373 56 278 q 80 542 56 467 q 152 669 105 617 q 267 750 199 722 q 421 778 334 778 q 568 752 503 778 q 679 677 633 726 q 748 558 724 629 q 772 396 772 487 l 772 315 l 258 315 q 467 138 258 138 q 602 157 536 138 q 741 220 667 177 l 741 37 q 600 -5 673 9 q 454 -20 528 -20 m 572 465 q 532 584 571 543 q 420 624 492 624 q 308 583 347 624 q 260 464 268 542 l 572 465 z "},"è":{"ha":836,"x_min":62,"x_max":779,"o":"m 161 1135 l 353 1135 l 545 880 l 411 880 l 161 1135 m 458 -20 q 287 6 359 -20 q 163 83 214 31 q 62 376 62 186 q 86 543 62 471 q 159 670 111 616 q 425 778 256 778 q 572 754 505 778 q 686 678 638 730 q 757 555 734 627 q 779 396 779 484 l 779 315 l 264 315 q 317 182 266 225 q 473 138 370 138 q 608 157 541 138 q 674 182 640 167 q 747 220 709 197 l 747 37 q 606 -5 678 9 q 532 -16 570 -13 q 458 -20 494 -20 m 579 465 q 539 584 578 544 q 492 613 521 603 q 425 624 463 624 q 315 583 355 624 q 267 464 274 541 l 579 465 z "},"ē":{"ha":836,"x_min":56,"x_max":772,"o":"m 224 1041 l 652 1041 l 652 913 l 224 913 l 224 1041 m 454 -20 q 281 6 355 -20 q 157 82 207 32 q 81 205 106 132 q 56 373 56 278 q 80 542 56 467 q 152 669 105 617 q 267 750 199 722 q 421 778 334 778 q 568 752 503 778 q 679 677 633 726 q 748 558 724 629 q 772 396 772 487 l 772 315 l 258 315 q 467 138 258 138 q 602 157 536 138 q 741 220 667 177 l 741 37 q 600 -5 673 9 q 454 -20 528 -20 m 572 465 q 532 584 571 543 q 420 624 492 624 q 308 583 347 624 q 260 464 268 542 l 572 465 z "},"ę":{"ha":836,"x_min":56,"x_max":772,"o":"m 772 315 l 258 315 q 467 138 258 138 q 602 157 536 138 q 741 220 667 177 l 741 37 q 683 16 712 26 q 623 0 654 7 q 604 -27 612 -16 q 590 -47 595 -39 q 581 -61 585 -55 q 575 -72 578 -67 q 565 -94 568 -84 q 562 -113 562 -103 q 581 -154 562 -136 q 642 -172 600 -172 q 689 -167 663 -172 q 743 -151 715 -162 l 743 -257 q 674 -268 706 -264 q 616 -272 642 -272 q 494 -241 536 -272 q 452 -152 452 -210 q 467 -86 452 -119 q 512 -18 481 -54 q 454 -20 484 -20 q 281 6 355 -20 q 157 82 207 32 q 81 205 106 132 q 56 373 56 278 q 80 542 56 467 q 152 669 105 617 q 267 750 199 722 q 421 778 334 778 q 568 752 503 778 q 679 677 633 726 q 748 558 724 629 q 772 396 772 487 l 772 315 m 572 465 q 532 584 571 543 q 420 624 492 624 q 308 583 347 624 q 260 464 268 542 l 572 465 z "},"f":{"ha":836,"x_min":104,"x_max":721,"o":"m 289 607 l 104 607 l 104 760 l 289 760 l 289 812 q 346 1002 289 949 q 557 1055 403 1055 l 721 1055 l 721 903 l 566 903 q 505 886 520 903 q 492 862 497 878 q 488 826 488 846 l 488 760 l 721 760 l 721 607 l 488 607 l 488 0 l 289 0 l 289 607 z "},"g":{"ha":836,"x_min":66,"x_max":743,"o":"m 392 -288 q 331 -286 362 -288 q 270 -279 300 -283 q 146 -250 209 -270 l 146 -68 q 203 -95 174 -83 q 260 -114 233 -106 q 319 -125 290 -121 q 377 -129 349 -129 q 454 -119 423 -129 q 505 -90 485 -109 q 545 35 545 -50 l 545 117 q 467 36 515 62 q 351 9 419 9 q 143 111 219 9 q 85 231 104 162 q 66 389 66 300 q 143 673 66 567 q 233 753 182 726 q 347 779 283 779 q 465 749 414 779 q 545 663 515 718 l 564 760 l 743 760 l 743 57 q 661 -207 743 -125 q 392 -288 578 -288 m 404 167 q 506 229 467 167 q 535 299 525 259 q 545 391 545 338 q 535 483 545 441 q 506 555 526 524 q 404 616 467 616 q 304 555 342 616 q 265 392 265 494 q 304 228 265 289 q 404 167 342 167 z "},"ğ":{"ha":836,"x_min":66,"x_max":743,"o":"m 418 881 q 325 893 366 881 q 254 933 284 906 q 208 998 222 961 q 191 1082 193 1036 l 286 1082 q 328 1010 293 1036 q 418 985 361 985 q 508 1010 475 985 q 549 1082 542 1035 l 646 1082 q 583 933 642 985 q 418 881 524 881 m 392 -288 q 331 -286 362 -288 q 270 -279 300 -283 q 146 -250 209 -270 l 146 -68 q 203 -95 174 -83 q 260 -114 233 -106 q 319 -125 290 -121 q 377 -129 349 -129 q 454 -119 423 -129 q 505 -90 485 -109 q 545 35 545 -50 l 545 117 q 467 36 515 62 q 351 9 419 9 q 143 111 219 9 q 85 231 104 162 q 66 389 66 300 q 143 673 66 567 q 233 753 182 726 q 347 779 283 779 q 465 749 414 779 q 545 663 515 718 l 564 760 l 743 760 l 743 57 q 661 -207 743 -125 q 392 -288 578 -288 m 404 167 q 506 229 467 167 q 535 299 525 259 q 545 391 545 338 q 535 483 545 441 q 506 555 526 524 q 404 616 467 616 q 304 555 342 616 q 265 392 265 494 q 304 228 265 289 q 404 167 342 167 z "},"ǧ":{"ha":836,"x_min":66,"x_max":743,"o":"m 149 1135 l 270 1135 l 404 981 l 539 1135 l 660 1135 l 486 880 l 323 880 l 149 1135 m 393 -288 q 270 -278 330 -288 q 146 -250 210 -269 l 146 -68 q 261 -114 203 -99 q 380 -129 319 -129 q 505 -90 465 -129 q 545 35 545 -50 l 545 117 q 468 36 515 62 q 350 9 420 9 q 232 36 285 9 q 143 111 180 62 q 86 230 106 160 q 66 387 66 300 q 86 550 66 477 q 143 673 106 623 q 232 752 180 724 q 349 779 284 779 q 465 749 414 779 q 545 663 515 718 l 564 760 l 743 760 l 743 57 q 723 -100 743 -35 q 661 -207 703 -165 q 552 -268 618 -248 q 393 -288 486 -288 m 404 167 q 461 183 435 167 q 506 228 488 199 q 534 299 524 258 q 545 392 545 341 q 534 484 545 443 q 506 555 524 526 q 461 601 488 585 q 404 616 435 616 q 347 601 373 616 q 303 555 321 585 q 275 485 285 526 q 265 392 265 443 q 275 299 265 340 q 303 228 285 257 q 347 183 321 199 q 404 167 373 167 z "},"ģ":{"ha":836,"x_min":66,"x_max":743,"o":"m 429 1061 l 560 1061 l 500 854 l 309 854 l 429 1061 m 395 -288 q 270 -278 330 -288 q 146 -250 210 -269 l 146 -68 q 261 -114 202 -99 q 376 -129 320 -129 q 504 -90 463 -129 q 545 35 545 -51 l 545 117 q 466 35 515 60 q 353 9 416 9 q 233 36 286 9 q 143 112 180 62 q 86 231 106 161 q 66 389 66 301 q 86 551 66 479 q 143 674 106 623 q 232 752 180 724 q 347 779 283 779 q 465 749 414 779 q 545 663 515 718 l 564 760 l 743 760 l 743 57 q 723 -99 743 -34 q 661 -207 703 -165 q 553 -268 618 -248 q 395 -288 487 -288 m 404 167 q 461 183 435 167 q 506 228 488 199 q 534 299 524 258 q 545 392 545 341 q 534 484 545 443 q 506 555 524 526 q 461 601 488 585 q 404 616 435 616 q 347 601 373 616 q 303 555 321 585 q 275 484 285 526 q 265 391 265 443 q 275 298 265 340 q 303 228 285 257 q 347 183 321 199 q 404 167 373 167 z "},"ġ":{"ha":836,"x_min":66,"x_max":743,"o":"m 345 915 q 325 935 325 915 l 325 1061 q 345 1082 325 1082 l 491 1082 q 511 1061 511 1082 l 511 935 q 491 915 511 915 l 345 915 m 395 -288 q 270 -278 330 -288 q 146 -250 210 -269 l 146 -68 q 261 -114 202 -99 q 376 -129 320 -129 q 504 -90 463 -129 q 545 35 545 -51 l 545 117 q 466 35 515 60 q 353 9 416 9 q 233 36 286 9 q 143 112 180 62 q 86 231 106 161 q 66 389 66 301 q 86 551 66 479 q 143 674 106 623 q 232 752 180 724 q 347 779 283 779 q 465 749 414 779 q 545 663 515 718 l 564 760 l 743 760 l 743 57 q 723 -99 743 -34 q 661 -207 703 -165 q 553 -268 618 -248 q 395 -288 487 -288 m 404 167 q 461 183 435 167 q 506 228 488 199 q 534 299 524 258 q 545 392 545 341 q 534 484 545 443 q 506 555 524 526 q 461 601 488 585 q 404 616 435 616 q 347 601 373 616 q 303 555 321 585 q 275 484 285 526 q 265 391 265 443 q 275 298 265 340 q 303 228 285 257 q 347 183 321 199 q 404 167 373 167 z "},"h":{"ha":836,"x_min":117,"x_max":726,"o":"m 117 1055 l 314 1055 l 314 646 q 386 743 336 709 q 509 778 437 778 q 671 707 616 778 q 726 493 726 634 l 726 0 l 529 0 l 529 463 q 506 580 529 545 q 475 606 494 597 q 431 615 456 615 q 345 568 375 615 q 314 435 314 519 l 314 0 l 117 0 l 117 1055 z "},"ħ":{"ha":836,"x_min":8,"x_max":726,"o":"m 117 861 l 8 861 l 8 972 l 117 972 l 117 1055 l 314 1055 l 314 972 l 502 972 l 502 861 l 314 861 l 314 646 q 387 745 336 711 q 511 778 438 778 q 671 707 616 778 q 726 493 726 636 l 726 0 l 529 0 l 529 463 q 506 579 529 543 q 433 615 484 615 q 344 568 374 615 q 314 435 314 521 l 314 0 l 117 0 l 117 861 z "},"i":{"ha":836,"x_min":125,"x_max":765,"o":"m 306 850 q 286 870 286 850 l 286 1061 q 306 1082 286 1082 l 464 1082 q 484 1061 484 1082 l 484 870 q 464 850 484 850 l 306 850 m 551 -8 q 347 65 409 -8 q 286 309 286 138 l 286 607 l 125 607 l 125 760 l 484 760 l 484 309 q 512 182 484 220 q 606 144 539 144 l 765 144 l 765 -8 l 551 -8 z "},"ı":{"ha":836,"x_min":125,"x_max":765,"o":"m 551 -8 q 347 65 409 -8 q 286 309 286 138 l 286 607 l 125 607 l 125 760 l 484 760 l 484 309 q 512 182 484 220 q 606 144 539 144 l 765 144 l 765 -8 l 551 -8 l 551 -8 z "},"í":{"ha":836,"x_min":125,"x_max":758,"o":"m 471 1135 l 662 1135 l 412 880 l 279 880 l 471 1135 m 544 -8 q 340 65 402 -8 q 279 309 279 138 l 279 607 l 125 607 l 125 760 l 477 760 l 477 309 q 505 182 477 220 q 600 144 532 144 l 758 144 l 758 -8 l 544 -8 z "},"î":{"ha":836,"x_min":125,"x_max":765,"o":"m 298 1135 l 462 1135 l 635 880 l 515 880 l 380 1032 l 245 880 l 125 880 l 298 1135 m 551 -8 q 347 65 409 -8 q 286 309 286 138 l 286 607 l 125 607 l 125 760 l 484 760 l 484 309 q 512 182 484 220 q 606 144 539 144 l 765 144 l 765 -8 l 551 -8 z "},"ï":{"ha":836,"x_min":125,"x_max":765,"o":"m 177 913 q 157 934 157 913 l 157 1060 q 177 1080 157 1080 l 296 1080 q 317 1060 317 1080 l 317 934 q 296 913 317 913 l 177 913 m 445 913 q 425 934 425 913 l 425 1060 q 445 1080 425 1080 l 564 1080 q 585 1060 585 1080 l 585 934 q 564 913 585 913 l 445 913 m 551 -8 q 347 65 409 -8 q 286 309 286 138 l 286 607 l 125 607 l 125 760 l 484 760 l 484 309 q 512 182 484 220 q 606 144 539 144 l 765 144 l 765 -8 l 551 -8 z "},"ì":{"ha":836,"x_min":108,"x_max":772,"o":"m 108 1141 l 299 1141 l 491 886 l 357 886 l 108 1141 m 557 -8 q 354 65 416 -8 q 292 309 292 138 l 292 607 l 125 607 l 125 760 l 491 760 l 491 309 q 519 182 491 220 q 613 144 546 144 l 772 144 l 772 -8 l 557 -8 z "},"ī":{"ha":836,"x_min":125,"x_max":765,"o":"m 156 1042 l 584 1042 l 584 914 l 156 914 l 156 1042 m 551 -8 q 347 65 409 -8 q 286 309 286 138 l 286 607 l 125 607 l 125 760 l 484 760 l 484 309 q 512 182 484 220 q 606 144 539 144 l 765 144 l 765 -8 l 551 -8 z "},"į":{"ha":836,"x_min":125,"x_max":765,"o":"m 306 897 q 286 918 286 897 l 286 1109 q 306 1129 286 1129 l 464 1129 q 484 1109 484 1129 l 484 918 q 464 897 484 897 l 306 897 m 641 -8 q 611 -50 620 -36 q 597 -73 602 -64 q 588 -95 591 -85 q 585 -114 585 -104 q 604 -156 585 -138 q 665 -174 623 -174 q 712 -169 686 -174 q 765 -153 738 -163 l 765 -258 q 696 -270 728 -266 q 638 -273 664 -273 q 517 -242 559 -273 q 475 -153 475 -212 q 492 -82 475 -117 q 544 -8 509 -47 q 347 65 408 -6 q 286 309 286 138 l 286 607 l 125 607 l 125 760 l 484 760 l 484 309 q 512 182 484 220 q 606 144 539 144 l 765 144 l 765 -8 l 641 -8 z "},"ĩ":{"ha":836,"x_min":125,"x_max":765,"o":"m 484 861 q 463 863 473 861 q 441 869 453 865 q 416 881 430 873 q 385 900 402 888 l 348 925 l 340 930 q 313 945 325 940 q 291 950 302 950 q 255 929 268 950 q 243 868 243 907 l 243 863 l 148 863 q 183 1005 148 956 q 281 1055 218 1055 q 330 1046 307 1055 q 382 1017 353 1037 l 425 987 q 451 972 438 978 q 475 966 463 966 q 512 988 499 966 q 526 1048 526 1010 l 526 1054 l 621 1054 q 586 911 621 961 q 484 861 551 861 m 551 -8 q 347 65 409 -8 q 286 309 286 138 l 286 607 l 125 607 l 125 760 l 484 760 l 484 309 q 512 182 484 220 q 606 144 539 144 l 765 144 l 765 -8 l 551 -8 z "},"j":{"ha":836,"x_min":115,"x_max":595,"o":"m 416 850 q 396 870 396 850 l 396 1061 q 416 1082 396 1082 l 574 1082 q 595 1061 595 1082 l 595 870 q 574 850 595 850 l 416 850 m 115 -135 l 274 -135 q 368 -98 341 -135 q 396 29 396 -60 l 396 607 l 195 607 l 195 760 l 595 760 l 595 29 q 534 -215 595 -142 q 453 -269 504 -250 q 330 -288 402 -288 l 115 -288 l 115 -135 z "},"k":{"ha":836,"x_min":118,"x_max":812,"o":"m 118 1055 l 317 1055 l 317 501 l 555 760 l 796 760 l 509 476 l 812 0 l 593 0 l 385 355 l 317 290 l 317 0 l 118 0 l 118 1055 z "},"ķ":{"ha":836,"x_min":118,"x_max":812,"o":"m 118 1055 l 317 1055 l 317 501 l 555 760 l 796 760 l 509 476 l 812 0 l 593 0 l 385 355 l 317 290 l 317 0 l 118 0 l 118 1055 m 399 -107 l 591 -107 l 471 -315 l 339 -315 l 399 -107 z "},"l":{"ha":836,"x_min":68,"x_max":749,"o":"m 534 -5 q 331 68 393 -5 q 269 311 269 140 l 269 903 l 68 903 l 68 1055 l 468 1055 l 468 311 q 496 184 468 222 q 590 147 523 147 l 749 147 l 749 -5 l 534 -5 l 534 -5 z "},"ĺ":{"ha":836,"x_min":61,"x_max":742,"o":"m 454 1289 l 646 1289 l 452 1109 l 319 1109 l 454 1289 m 528 -5 q 406 12 456 -5 q 324 68 356 30 q 277 166 292 106 q 262 311 262 226 l 262 903 l 61 903 l 61 1055 l 461 1055 l 461 311 q 468 235 461 267 q 489 184 474 204 q 527 156 503 165 q 583 147 550 147 l 742 147 l 742 -5 l 528 -5 z "},"ľ":{"ha":836,"x_min":61,"x_max":807,"o":"m 528 -5 q 406 12 456 -5 q 324 68 356 30 q 277 166 292 106 q 262 311 262 226 l 262 903 l 61 903 l 61 1055 l 461 1055 l 461 311 q 468 235 461 267 q 489 184 474 204 q 527 156 503 165 q 583 147 550 147 l 742 147 l 742 -5 l 528 -5 m 616 1055 l 807 1055 l 698 800 l 564 800 l 616 1055 z "},"ļ":{"ha":836,"x_min":61,"x_max":742,"o":"m 528 -5 q 406 12 456 -5 q 324 68 356 30 q 277 166 292 106 q 262 311 262 226 l 262 903 l 61 903 l 61 1055 l 461 1055 l 461 311 q 468 235 461 267 q 489 184 474 204 q 527 156 503 165 q 583 147 550 147 l 742 147 l 742 -5 l 528 -5 m 315 -107 l 507 -107 l 387 -315 l 255 -315 l 315 -107 z "},"ł":{"ha":836,"x_min":25,"x_max":757,"o":"m 543 -5 q 340 68 401 -5 q 278 311 278 140 l 278 424 l 93 292 l 25 401 l 278 581 l 278 903 l 78 903 l 78 1055 l 476 1055 l 476 721 l 676 863 l 746 754 l 476 564 l 476 311 q 505 184 476 222 q 541 157 518 166 q 599 147 564 147 l 757 147 l 757 -5 l 543 -5 l 543 -5 z "},"m":{"ha":836,"x_min":56,"x_max":783,"o":"m 56 760 l 180 760 l 200 681 q 254 752 218 726 q 293 771 271 764 q 338 778 314 778 q 422 751 385 778 q 468 684 460 723 q 525 755 490 731 q 612 778 559 778 q 695 760 661 778 q 746 710 728 743 q 774 604 766 674 q 783 428 783 534 l 783 0 l 621 0 l 621 488 q 617 559 621 532 q 608 600 614 585 q 561 629 595 629 q 530 621 541 629 q 513 600 519 613 q 503 558 507 585 q 500 488 500 530 l 500 0 l 339 0 l 339 488 q 326 600 339 570 q 278 629 313 629 q 231 601 244 629 q 218 488 218 573 l 218 0 l 56 0 l 56 760 z "},"n":{"ha":836,"x_min":117,"x_max":726,"o":"m 117 760 l 294 760 l 314 646 q 386 743 336 709 q 509 778 437 778 q 671 707 616 778 q 726 493 726 634 l 726 0 l 529 0 l 529 463 q 506 581 529 546 q 475 608 494 599 q 431 616 456 616 q 381 604 402 616 q 345 568 361 592 q 322 513 330 545 q 314 435 314 481 l 314 0 l 117 0 l 117 760 z "},"ń":{"ha":836,"x_min":117,"x_max":726,"o":"m 509 1146 l 700 1146 l 450 891 l 317 891 l 509 1146 m 117 760 l 294 760 l 314 646 q 387 745 336 711 q 511 778 438 778 q 671 707 616 778 q 726 493 726 636 l 726 0 l 529 0 l 529 463 q 506 579 529 543 q 434 616 484 616 q 344 569 374 616 q 314 435 314 521 l 314 0 l 117 0 l 117 760 z "},"ň":{"ha":836,"x_min":117,"x_max":726,"o":"m 187 1135 l 308 1135 l 442 981 l 577 1135 l 698 1135 l 524 880 l 361 880 l 187 1135 m 117 760 l 294 760 l 314 646 q 387 745 336 711 q 511 778 438 778 q 671 707 616 778 q 726 493 726 636 l 726 0 l 529 0 l 529 463 q 506 579 529 543 q 434 616 484 616 q 344 569 374 616 q 314 435 314 521 l 314 0 l 117 0 l 117 760 z "},"ņ":{"ha":836,"x_min":117,"x_max":726,"o":"m 117 760 l 294 760 l 314 646 q 387 745 336 711 q 511 778 438 778 q 671 707 616 778 q 726 493 726 636 l 726 0 l 529 0 l 529 463 q 506 579 529 543 q 434 616 484 616 q 344 569 374 616 q 314 435 314 521 l 314 0 l 117 0 l 117 760 m 356 -107 l 547 -107 l 427 -315 l 296 -315 l 356 -107 z "},"ŋ":{"ha":836,"x_min":117,"x_max":726,"o":"m 379 -135 l 406 -135 q 463 -126 439 -135 q 501 -98 486 -117 q 523 -47 516 -78 q 529 29 529 -16 l 529 463 q 506 579 529 543 q 434 616 484 616 q 344 569 374 616 q 314 435 314 521 l 314 0 l 117 0 l 117 760 l 294 760 l 314 646 q 387 745 336 711 q 511 778 438 778 q 671 707 616 778 q 726 493 726 636 l 726 29 q 712 -116 726 -56 q 665 -215 697 -176 q 583 -270 633 -253 q 461 -288 532 -288 l 379 -288 l 379 -135 z "},"ñ":{"ha":836,"x_min":117,"x_max":726,"o":"m 521 880 q 474 888 496 880 q 419 918 452 896 l 374 949 q 347 963 359 958 q 325 968 336 968 q 303 963 312 968 q 290 947 295 957 q 277 886 277 926 l 277 881 l 182 881 q 191 965 182 929 q 217 1024 200 1000 q 257 1060 233 1046 q 315 1074 281 1074 q 364 1065 340 1074 q 390 1052 378 1059 q 416 1035 402 1045 l 458 1006 q 473 997 467 1000 q 486 990 478 994 q 509 985 498 985 q 547 1006 533 985 q 559 1067 559 1027 l 559 1072 l 654 1072 q 620 930 654 979 q 579 893 604 906 q 521 880 554 880 m 117 760 l 294 760 l 314 646 q 386 743 336 709 q 509 778 437 778 q 671 707 616 778 q 726 493 726 634 l 726 0 l 529 0 l 529 463 q 506 581 529 546 q 475 608 494 599 q 431 616 456 616 q 381 604 402 616 q 345 568 361 592 q 322 513 330 545 q 314 435 314 481 l 314 0 l 117 0 l 117 760 z "},"o":{"ha":836,"x_min":66,"x_max":770,"o":"m 418 -20 q 268 10 332 -20 q 161 87 204 39 q 90 216 114 141 q 66 380 66 290 q 91 544 66 471 q 161 671 115 618 q 273 751 208 724 q 418 778 338 778 q 566 750 501 778 q 675 671 630 722 q 745 548 720 621 q 770 379 770 475 q 746 215 770 288 q 675 88 722 142 q 566 9 631 37 q 418 -20 501 -20 m 418 142 q 530 204 490 142 q 571 380 571 267 q 530 554 571 491 q 481 602 509 587 q 418 616 452 616 q 352 600 380 616 q 306 554 325 583 q 265 380 265 491 q 306 204 265 267 q 418 142 347 142 z "},"ó":{"ha":836,"x_min":66,"x_max":770,"o":"m 510 1082 l 701 1082 l 452 880 l 318 880 l 510 1082 m 418 -20 q 268 10 332 -20 q 161 87 204 39 q 90 216 114 141 q 66 380 66 290 q 91 544 66 471 q 161 671 115 618 q 273 751 208 724 q 418 778 338 778 q 566 750 501 778 q 675 671 630 722 q 745 548 720 621 q 770 379 770 475 q 746 215 770 288 q 675 88 722 142 q 566 9 631 37 q 418 -20 501 -20 m 418 142 q 530 204 490 142 q 571 380 571 267 q 530 554 571 491 q 481 602 509 587 q 418 616 452 616 q 352 600 380 616 q 306 554 325 583 q 265 380 265 491 q 306 204 265 267 q 418 142 347 142 z "},"ô":{"ha":836,"x_min":66,"x_max":770,"o":"m 336 1082 l 500 1082 l 673 880 l 553 880 l 418 979 l 283 880 l 163 880 l 336 1082 m 418 -20 q 268 10 332 -20 q 161 87 204 39 q 90 216 114 141 q 66 380 66 290 q 91 544 66 471 q 161 671 115 618 q 273 751 208 724 q 418 778 338 778 q 566 750 501 778 q 675 671 630 722 q 745 548 720 621 q 770 379 770 475 q 746 215 770 288 q 675 88 722 142 q 566 9 631 37 q 418 -20 501 -20 m 418 142 q 530 204 490 142 q 571 380 571 267 q 530 554 571 491 q 481 602 509 587 q 418 616 452 616 q 352 600 380 616 q 306 554 325 583 q 265 380 265 491 q 306 204 265 267 q 418 142 347 142 z "},"ö":{"ha":836,"x_min":66,"x_max":770,"o":"m 224 913 q 204 934 204 913 l 204 1060 q 224 1080 204 1080 l 344 1080 q 364 1060 364 1080 l 364 934 q 344 913 364 913 l 224 913 m 492 913 q 472 934 472 913 l 472 1060 q 492 1080 472 1080 l 612 1080 q 632 1060 632 1080 l 632 934 q 612 913 632 913 l 492 913 m 418 -20 q 268 10 332 -20 q 161 87 204 39 q 90 216 114 141 q 66 380 66 290 q 91 544 66 471 q 161 671 115 618 q 273 751 208 724 q 418 778 338 778 q 566 750 501 778 q 675 671 630 722 q 745 548 720 621 q 770 379 770 475 q 746 215 770 288 q 675 88 722 142 q 566 9 631 37 q 418 -20 501 -20 m 418 142 q 530 204 490 142 q 571 380 571 267 q 530 554 571 491 q 481 602 509 587 q 418 616 452 616 q 352 600 380 616 q 306 554 325 583 q 265 380 265 491 q 306 204 265 267 q 418 142 347 142 z "},"ò":{"ha":836,"x_min":66,"x_max":770,"o":"m 135 1082 l 326 1082 l 518 880 l 385 880 l 135 1082 m 418 -20 q 268 10 332 -20 q 161 87 204 39 q 90 216 114 141 q 66 380 66 290 q 91 544 66 471 q 161 671 115 618 q 273 751 208 724 q 418 778 338 778 q 566 750 501 778 q 675 671 630 722 q 745 548 720 621 q 770 379 770 475 q 746 215 770 288 q 675 88 722 142 q 566 9 631 37 q 418 -20 501 -20 m 418 142 q 530 204 490 142 q 571 380 571 267 q 530 554 571 491 q 481 602 509 587 q 418 616 452 616 q 352 600 380 616 q 306 554 325 583 q 265 380 265 491 q 306 204 265 267 q 418 142 347 142 z "},"ơ":{"ha":836,"x_min":6,"x_max":830,"o":"m 815 791 q 826 722 823 754 q 830 664 830 690 q 799 543 830 585 q 710 501 768 501 q 703 501 707 501 q 696 502 700 501 q 706 443 703 473 q 709 379 709 412 q 685 214 709 288 q 614 88 660 140 q 503 8 568 36 q 357 -20 438 -20 q 212 8 277 -20 q 101 88 147 36 q 31 214 56 140 q 6 379 6 288 q 31 545 6 471 q 101 670 56 618 q 212 750 147 722 q 357 778 277 778 q 534 735 458 778 q 654 615 609 693 q 671 612 662 612 q 713 631 696 612 q 730 690 730 650 q 725 738 730 711 q 709 791 720 765 l 815 791 m 357 142 q 422 158 393 142 q 470 204 450 174 q 500 279 490 235 q 511 379 511 323 q 500 479 511 435 q 470 553 490 523 q 422 600 450 584 q 357 616 393 616 q 293 600 321 616 q 245 553 265 584 q 215 479 226 523 q 205 379 205 435 q 215 279 205 323 q 245 204 226 235 q 293 158 265 174 q 357 142 321 142 z "},"ő":{"ha":836,"x_min":66,"x_max":770,"o":"m 334 1135 l 481 1135 l 313 880 l 201 880 l 334 1135 m 579 1135 l 736 1135 l 551 880 l 433 880 l 579 1135 m 418 -20 q 272 8 337 -20 q 162 88 208 36 q 91 214 116 140 q 66 379 66 288 q 91 545 66 471 q 162 670 116 618 q 272 750 208 722 q 418 778 337 778 q 564 750 498 778 q 674 670 629 722 q 745 545 720 618 q 770 379 770 471 q 745 214 770 288 q 674 88 720 140 q 564 8 629 36 q 418 -20 498 -20 m 418 142 q 482 158 454 142 q 530 204 511 174 q 561 279 550 235 q 571 379 571 323 q 561 479 571 435 q 530 553 550 523 q 482 600 511 584 q 418 616 454 616 q 354 600 382 616 q 306 553 326 584 q 276 479 286 523 q 265 379 265 435 q 276 279 265 323 q 306 204 286 235 q 354 158 326 174 q 418 142 382 142 z "},"ō":{"ha":836,"x_min":66,"x_max":770,"o":"m 204 1041 l 632 1041 l 632 913 l 204 913 l 204 1041 m 418 -20 q 272 8 337 -20 q 162 88 208 36 q 91 214 116 140 q 66 379 66 288 q 91 545 66 471 q 162 670 116 618 q 272 750 208 722 q 418 778 337 778 q 564 750 498 778 q 674 670 629 722 q 745 545 720 618 q 770 379 770 471 q 745 214 770 288 q 674 88 720 140 q 564 8 629 36 q 418 -20 498 -20 m 418 142 q 482 158 454 142 q 530 204 511 174 q 561 279 550 235 q 571 379 571 323 q 561 479 571 435 q 530 553 550 523 q 482 600 511 584 q 418 616 454 616 q 354 600 382 616 q 306 553 326 584 q 276 479 286 523 q 265 379 265 435 q 276 279 265 323 q 306 204 286 235 q 354 158 326 174 q 418 142 382 142 z "},"ø":{"ha":836,"x_min":17,"x_max":815,"o":"m 17 1 l 127 135 q 82 245 98 184 q 66 379 66 306 q 91 544 66 471 q 161 671 115 618 q 274 751 209 724 q 417 778 339 778 q 474 774 446 778 q 526 764 502 771 q 573 745 548 757 q 621 718 597 734 l 721 838 l 815 755 l 707 628 q 735 570 724 600 q 754 514 747 540 q 766 451 762 486 q 770 378 770 416 q 746 215 770 289 q 675 88 722 142 q 566 9 631 37 q 420 -20 502 -20 q 363 -16 390 -20 q 311 -4 336 -12 q 262 14 285 3 q 214 41 239 25 l 111 -79 l 17 1 m 505 583 q 467 608 488 600 q 419 616 445 616 q 307 554 347 616 q 265 379 265 492 q 266 357 265 367 q 267 338 266 347 q 268 324 267 330 q 271 304 268 318 l 505 583 m 418 142 q 530 205 490 142 q 561 281 551 237 q 571 375 571 326 q 571 399 571 387 q 570 418 570 411 q 567 436 569 425 q 564 458 566 448 l 328 178 q 371 151 349 160 q 418 142 393 142 z "},"ǿ":{"ha":836,"x_min":18,"x_max":817,"o":"m 511 1135 l 703 1135 l 453 880 l 319 880 l 511 1135 m 18 2 l 129 136 q 68 380 68 234 q 93 545 68 471 q 163 671 117 619 q 274 751 209 723 q 419 779 338 779 q 527 764 477 779 q 622 719 576 749 l 722 838 l 817 756 l 708 629 q 755 515 739 577 q 771 380 771 453 q 746 214 771 288 q 676 89 722 140 q 565 9 630 37 q 419 -19 500 -19 q 215 42 305 -19 l 113 -79 l 18 2 m 507 584 q 468 609 489 601 q 420 617 447 617 q 356 601 385 617 q 308 554 328 585 q 277 479 288 524 q 267 380 267 435 q 268 339 267 357 q 272 305 269 321 l 507 584 m 420 142 q 484 159 456 142 q 532 206 512 175 q 562 281 551 237 q 572 380 572 325 q 571 419 572 399 q 565 458 569 439 l 329 178 q 420 142 370 142 z "},"õ":{"ha":836,"x_min":66,"x_max":770,"o":"m 521 880 q 496 882 507 880 q 475 888 486 884 q 448 900 460 893 q 419 918 437 907 l 374 949 q 325 968 344 968 q 290 947 304 968 q 277 886 277 925 l 277 881 l 182 881 l 182 903 q 218 1027 182 981 q 315 1074 255 1074 q 364 1065 340 1074 q 390 1053 378 1060 q 416 1035 402 1045 l 458 1006 q 474 996 468 999 q 486 991 479 994 q 509 985 498 985 q 547 1006 534 985 q 559 1067 559 1027 l 559 1073 l 654 1073 q 654 1067 654 1070 q 654 1061 654 1065 q 653 1056 653 1058 q 653 1052 653 1053 q 617 926 653 972 q 576 892 600 904 q 521 880 552 880 m 418 -20 q 268 10 332 -20 q 161 87 204 39 q 90 216 114 141 q 66 380 66 290 q 91 544 66 471 q 161 671 115 618 q 273 751 208 724 q 418 778 338 778 q 566 750 501 778 q 675 671 630 722 q 745 548 720 621 q 770 379 770 475 q 746 215 770 288 q 675 88 722 142 q 566 9 631 37 q 418 -20 501 -20 m 418 142 q 530 204 490 142 q 571 380 571 267 q 530 554 571 491 q 481 602 509 587 q 418 616 452 616 q 352 600 380 616 q 306 554 325 583 q 265 380 265 491 q 306 204 265 267 q 418 142 347 142 z "},"œ":{"ha":836,"x_min":9,"x_max":821,"o":"m 254 -20 q 140 5 185 -20 q 67 74 95 29 q 23 199 37 123 q 9 380 9 276 q 23 562 9 486 q 67 686 37 637 q 142 755 96 732 q 256 778 188 778 q 361 758 320 778 q 432 693 404 739 q 495 756 451 734 q 602 778 538 778 q 703 758 661 778 q 771 697 746 738 q 821 411 821 617 l 821 325 l 515 325 q 549 176 515 228 q 648 125 583 125 q 690 130 670 125 q 728 145 709 136 q 768 169 748 155 q 810 204 788 182 l 810 39 q 734 -5 776 9 q 637 -20 692 -20 q 520 5 568 -20 q 440 81 472 31 q 408 37 426 56 q 366 5 390 18 q 254 -20 320 -20 m 261 125 q 308 137 292 125 q 332 170 323 149 q 341 200 337 182 q 348 242 345 218 q 351 301 350 267 q 353 378 353 334 q 351 461 353 427 q 347 520 350 496 q 341 562 345 545 q 332 589 337 578 q 306 623 323 612 q 260 633 288 633 q 217 623 235 633 q 189 589 199 612 q 173 513 178 563 q 168 380 168 463 q 170 299 168 334 q 174 240 171 265 q 180 198 176 216 q 189 170 184 181 q 215 137 199 149 q 261 125 231 125 m 668 468 l 668 492 q 664 557 668 530 q 651 602 661 585 q 592 633 634 633 q 555 625 569 633 q 532 601 541 616 q 520 560 525 586 q 515 484 515 534 l 515 468 l 668 468 z "},"p":{"ha":836,"x_min":102,"x_max":775,"o":"m 102 760 l 280 760 l 300 646 q 382 745 331 711 q 502 778 432 778 q 616 752 566 778 q 703 674 667 726 q 758 546 740 621 q 775 378 775 471 q 756 206 775 279 q 703 83 737 132 q 613 5 665 31 q 498 -20 560 -20 q 438 -13 467 -20 q 385 12 410 -5 q 340 51 363 26 q 300 107 317 75 l 300 -289 l 102 -289 l 102 760 m 439 146 q 540 208 503 146 q 576 380 576 270 q 540 553 576 490 q 439 615 503 615 q 337 553 375 615 q 300 380 300 491 q 337 208 300 270 q 439 146 375 146 z "},"þ":{"ha":836,"x_min":102,"x_max":775,"o":"m 102 1055 l 300 1055 l 300 646 q 382 745 331 711 q 502 778 432 778 q 616 752 566 778 q 703 674 667 726 q 758 546 740 621 q 775 378 775 471 q 756 206 775 279 q 703 83 737 132 q 613 5 665 31 q 498 -20 560 -20 q 438 -13 467 -20 q 385 12 410 -5 q 340 51 363 26 q 300 107 317 75 l 300 -289 l 102 -289 l 102 1055 m 439 146 q 540 208 503 146 q 576 380 576 270 q 540 553 576 490 q 439 615 503 615 q 337 553 375 615 q 300 380 300 491 q 337 208 300 270 q 439 146 375 146 z "},"q":{"ha":836,"x_min":61,"x_max":734,"o":"m 536 107 q 452 12 500 45 q 400 -12 427 -4 q 338 -20 373 -20 q 224 5 275 -20 q 134 83 172 31 q 79 209 98 135 q 61 378 61 283 q 133 674 61 570 q 220 752 170 726 q 334 778 271 778 q 454 745 404 778 q 500 704 479 728 q 536 646 521 679 l 556 760 l 734 760 l 734 -289 l 536 -289 l 536 107 m 397 146 q 499 208 461 146 q 536 380 536 270 q 499 553 536 491 q 397 615 461 615 q 296 553 333 615 q 260 380 260 490 q 296 208 260 270 q 397 146 333 146 z "},"r":{"ha":836,"x_min":163,"x_max":747,"o":"m 163 760 l 342 760 l 362 642 q 452 743 392 707 q 517 769 482 760 q 591 778 553 778 q 633 775 611 778 q 673 768 654 773 q 712 755 692 763 q 747 739 732 747 l 747 550 q 671 595 714 580 q 625 606 649 602 q 575 610 601 610 q 465 588 511 610 q 391 524 417 566 q 378 498 385 513 q 369 461 372 482 q 364 416 366 441 q 362 350 362 390 l 362 0 l 163 0 l 163 760 z "},"ŕ":{"ha":836,"x_min":197,"x_max":781,"o":"m 587 1139 l 778 1139 l 528 884 l 395 884 l 587 1139 m 197 760 l 376 760 l 396 642 q 486 743 425 707 q 626 778 546 778 q 707 768 668 778 q 781 739 745 758 l 781 550 q 705 595 748 581 q 608 610 661 610 q 496 587 542 610 q 425 524 451 564 q 412 496 417 511 q 402 461 406 481 q 397 414 399 441 q 396 350 396 387 l 396 0 l 197 0 l 197 760 z "},"ř":{"ha":836,"x_min":197,"x_max":781,"o":"m 232 1141 l 353 1141 l 487 987 l 622 1141 l 743 1141 l 569 886 l 406 886 l 232 1141 m 197 760 l 376 760 l 396 642 q 486 743 425 707 q 626 778 546 778 q 707 768 668 778 q 781 739 745 758 l 781 550 q 705 595 748 581 q 608 610 661 610 q 496 587 542 610 q 425 524 451 564 q 412 496 417 511 q 402 461 406 481 q 397 414 399 441 q 396 350 396 387 l 396 0 l 197 0 l 197 760 z "},"ŗ":{"ha":836,"x_min":171,"x_max":781,"o":"m 197 760 l 376 760 l 396 642 q 486 743 425 707 q 626 778 546 778 q 707 768 668 778 q 781 739 745 758 l 781 550 q 705 595 748 581 q 608 610 661 610 q 496 587 542 610 q 425 524 451 564 q 412 496 417 511 q 402 461 406 481 q 397 414 399 441 q 396 350 396 387 l 396 0 l 197 0 l 197 760 m 231 -107 l 422 -107 l 302 -315 l 171 -315 l 231 -107 z "},"s":{"ha":836,"x_min":117,"x_max":724,"o":"m 418 -20 q 346 -17 383 -20 q 275 -8 309 -14 q 203 7 240 -3 q 129 28 166 16 l 129 201 q 263 144 195 163 q 330 130 298 135 q 397 125 362 125 q 500 145 464 125 q 527 170 518 155 q 536 208 536 184 q 531 237 536 224 q 510 262 526 250 q 465 285 494 274 q 390 306 436 296 l 335 318 q 169 399 221 344 q 117 545 117 454 q 196 717 117 656 q 420 778 275 778 q 486 775 452 778 q 548 768 520 772 q 610 754 576 763 q 672 736 644 746 l 672 562 q 615 594 644 580 q 558 616 585 608 q 500 629 531 624 q 436 633 469 633 q 381 629 406 633 q 339 614 357 625 q 313 590 321 605 q 304 560 304 576 q 339 508 304 530 q 450 469 374 486 l 457 467 l 514 453 q 608 420 568 440 q 673 370 648 399 q 711 301 699 341 q 724 215 724 262 q 647 39 724 98 q 550 -5 608 9 q 418 -20 492 -20 z "},"ś":{"ha":836,"x_min":117,"x_max":724,"o":"m 509 1135 l 700 1135 l 450 880 l 317 880 l 509 1135 m 416 -20 q 274 -8 346 -20 q 129 28 203 4 l 129 201 q 262 144 195 164 q 399 125 330 125 q 536 209 536 125 q 530 239 536 228 q 511 261 524 251 q 467 284 495 273 q 390 306 439 295 l 335 318 q 171 397 226 342 q 117 543 117 451 q 196 718 117 657 q 422 778 276 778 q 548 767 484 778 q 672 736 611 757 l 672 562 q 437 633 561 633 q 338 614 372 633 q 304 562 304 594 q 339 508 304 530 q 450 469 373 487 l 457 467 l 514 453 q 672 371 621 427 q 724 217 724 314 q 416 -20 724 -20 z "},"š":{"ha":836,"x_min":117,"x_max":724,"o":"m 163 1135 l 283 1135 l 418 981 l 553 1135 l 673 1135 l 500 880 l 336 880 l 163 1135 m 418 -20 q 346 -17 383 -20 q 275 -8 309 -14 q 203 7 240 -3 q 129 28 166 16 l 129 201 q 263 144 195 163 q 330 130 298 135 q 395 125 363 125 q 458 130 432 125 q 501 145 485 136 q 529 173 521 157 q 536 209 536 189 q 531 237 536 224 q 510 262 526 250 q 465 285 494 274 q 390 306 436 296 l 335 318 q 169 399 221 344 q 117 545 117 454 q 196 717 117 656 q 420 778 275 778 q 486 775 452 778 q 548 768 520 772 q 610 754 576 763 q 672 736 644 746 l 672 562 q 615 594 644 580 q 558 616 585 608 q 500 629 531 624 q 436 633 469 633 q 381 629 406 633 q 339 614 357 625 q 313 590 321 605 q 304 560 304 576 q 339 508 304 530 q 450 469 374 486 l 457 467 l 514 453 q 608 420 568 440 q 673 370 648 399 q 711 301 699 341 q 724 215 724 262 q 647 39 724 98 q 550 -5 608 9 q 418 -20 492 -20 z "},"ş":{"ha":836,"x_min":117,"x_max":724,"o":"m 673 370 q 711 301 699 341 q 724 215 724 262 q 647 39 724 98 q 493 -16 590 -3 q 519 -49 509 -33 q 537 -78 530 -65 q 555 -150 555 -113 q 544 -204 555 -181 q 513 -241 533 -227 q 466 -263 496 -255 q 387 -272 437 -272 q 354 -271 371 -272 q 319 -268 336 -270 q 279 -261 294 -264 q 249 -254 264 -258 l 249 -149 q 279 -158 264 -154 q 308 -166 294 -163 q 361 -172 336 -172 q 422 -157 399 -172 q 444 -115 444 -141 q 430 -68 444 -96 q 417 -46 425 -58 q 399 -20 409 -33 q 336 -16 368 -18 q 275 -8 304 -14 q 203 7 240 -3 q 129 28 166 16 l 129 201 q 263 144 195 163 q 330 130 298 135 q 395 125 363 125 q 458 130 432 125 q 501 145 485 136 q 529 173 521 157 q 536 209 536 189 q 531 237 536 224 q 510 262 526 250 q 465 285 494 274 q 390 306 436 296 l 335 318 q 169 399 221 344 q 117 545 117 454 q 196 717 117 656 q 420 778 275 778 q 486 775 452 778 q 548 768 520 772 q 610 754 576 763 q 672 736 644 746 l 672 562 q 615 594 644 580 q 558 616 585 608 q 500 629 531 624 q 436 633 469 633 q 381 629 406 633 q 339 614 357 625 q 313 590 321 605 q 304 560 304 576 q 339 508 304 530 q 450 469 374 486 l 457 467 l 514 453 q 608 420 568 440 q 673 370 648 399 z "},"ș":{"ha":836,"x_min":117,"x_max":724,"o":"m 416 -20 q 274 -8 346 -20 q 129 28 203 4 l 129 201 q 262 144 195 164 q 399 125 330 125 q 536 209 536 125 q 530 239 536 228 q 511 261 524 251 q 467 284 495 273 q 390 306 439 295 l 335 318 q 171 397 226 342 q 117 543 117 451 q 196 718 117 657 q 422 778 276 778 q 548 767 484 778 q 672 736 611 757 l 672 562 q 437 633 561 633 q 338 614 372 633 q 304 562 304 594 q 339 508 304 530 q 450 469 373 487 l 457 467 l 514 453 q 672 371 621 427 q 724 217 724 314 q 416 -20 724 -20 m 313 -134 l 504 -134 l 384 -342 l 252 -342 l 313 -134 z "},"ß":{"ha":836,"x_min":86,"x_max":796,"o":"m 515 -20 q 471 -18 493 -20 q 429 -12 449 -16 q 388 -1 412 -8 q 342 14 365 5 l 342 183 q 381 164 361 172 q 420 151 401 157 q 457 143 439 146 q 494 140 475 140 q 542 146 523 140 q 574 163 561 153 q 595 189 588 174 q 603 222 603 204 q 583 277 603 251 q 525 334 564 303 q 517 339 519 338 q 513 342 515 340 q 508 347 511 344 q 494 357 504 349 l 436 403 q 401 438 416 418 q 376 479 386 457 q 355 574 355 522 q 406 718 355 659 q 468 767 432 748 q 549 796 503 785 q 535 842 545 823 q 509 871 524 861 q 469 890 492 884 q 416 896 445 896 q 360 888 385 896 q 317 862 335 880 q 285 761 285 827 l 285 0 l 86 0 l 86 764 q 168 981 86 907 q 270 1038 211 1020 q 403 1055 329 1055 q 537 1036 482 1055 q 629 975 593 1016 q 701 728 701 895 l 701 718 q 623 706 652 715 q 574 684 593 697 q 541 647 552 668 q 529 603 529 627 q 533 576 529 589 q 548 550 538 563 q 572 524 557 538 q 608 494 587 510 q 618 485 616 486 q 621 484 620 484 l 686 433 q 736 388 717 410 q 769 340 755 366 q 789 287 782 315 q 796 224 796 258 q 778 124 796 170 q 721 45 760 79 q 629 -3 682 13 q 515 -20 576 -20 z "},"t":{"ha":836,"x_min":75,"x_max":728,"o":"m 561 -3 q 330 52 389 -3 q 269 254 269 106 l 269 607 l 75 607 l 75 760 l 269 760 l 269 967 l 468 1055 l 468 760 l 728 760 l 728 607 l 468 607 l 468 245 q 493 172 468 195 q 527 155 507 160 q 575 150 548 150 l 728 150 l 728 -3 l 561 -3 l 561 -3 z "},"ŧ":{"ha":836,"x_min":75,"x_max":728,"o":"m 561 -3 q 419 10 475 -3 q 330 52 363 22 q 283 131 296 81 q 269 254 269 180 l 269 380 l 149 380 l 149 511 l 269 511 l 269 607 l 75 607 l 75 760 l 269 760 l 269 967 l 468 1055 l 468 760 l 728 760 l 728 607 l 468 607 l 468 511 l 593 511 l 593 380 l 468 380 l 468 245 q 493 172 468 194 q 575 150 517 150 l 728 150 l 728 -3 l 561 -3 l 561 -3 z "},"ť":{"ha":836,"x_min":75,"x_max":808,"o":"m 616 1144 l 808 1144 l 699 889 l 565 889 l 616 1144 m 561 -3 q 330 52 389 -3 q 269 254 269 106 l 269 607 l 75 607 l 75 760 l 269 760 l 269 967 l 468 1055 l 468 760 l 728 760 l 728 607 l 468 607 l 468 245 q 493 172 468 195 q 527 155 507 160 q 575 150 548 150 l 728 150 l 728 -3 l 561 -3 z "},"ț":{"ha":836,"x_min":75,"x_max":728,"o":"m 468 607 l 468 245 q 493 172 468 195 q 527 155 507 160 q 575 150 548 150 l 728 150 l 728 -3 l 610 -3 q 643 -44 629 -25 q 664 -80 656 -63 q 675 -113 671 -97 q 678 -144 678 -128 q 637 -235 678 -204 q 509 -266 595 -266 q 442 -261 476 -266 q 372 -248 408 -257 l 372 -142 q 483 -166 433 -166 q 545 -151 523 -166 q 567 -109 567 -135 q 554 -65 567 -91 q 513 -1 541 -39 q 330 52 380 6 q 269 254 269 106 l 269 607 l 75 607 l 75 760 l 269 760 l 269 967 l 468 1055 l 468 760 l 728 760 l 728 607 l 468 607 z "},"u":{"ha":836,"x_min":109,"x_max":720,"o":"m 326 -20 q 234 -3 275 -20 q 164 52 193 14 q 109 265 109 124 l 109 760 l 307 760 l 307 296 q 330 178 307 214 q 361 152 342 161 q 406 143 380 143 q 453 154 431 143 q 491 191 475 165 q 521 323 521 239 l 521 760 l 720 760 l 720 0 l 541 0 l 521 113 q 450 15 499 50 q 326 -20 399 -20 z "},"ú":{"ha":836,"x_min":109,"x_max":720,"o":"m 510 1116 l 701 1116 l 452 861 l 318 861 l 510 1116 m 326 -20 q 234 -3 275 -20 q 164 52 193 14 q 109 265 109 124 l 109 760 l 307 760 l 307 296 q 330 178 307 214 q 361 152 342 161 q 406 143 380 143 q 453 154 431 143 q 491 191 475 165 q 521 323 521 239 l 521 760 l 720 760 l 720 0 l 541 0 l 521 113 q 450 15 499 50 q 326 -20 399 -20 z "},"û":{"ha":836,"x_min":109,"x_max":720,"o":"m 336 1116 l 500 1116 l 673 861 l 553 861 l 418 1014 l 283 861 l 163 861 l 336 1116 m 326 -20 q 234 -3 275 -20 q 164 52 193 14 q 109 265 109 124 l 109 760 l 307 760 l 307 296 q 330 178 307 214 q 361 152 342 161 q 406 143 380 143 q 453 154 431 143 q 491 191 475 165 q 521 323 521 239 l 521 760 l 720 760 l 720 0 l 541 0 l 521 113 q 450 15 499 50 q 326 -20 399 -20 z "},"ü":{"ha":836,"x_min":109,"x_max":720,"o":"m 224 913 q 204 934 204 913 l 204 1060 q 224 1080 204 1080 l 344 1080 q 364 1060 364 1080 l 364 934 q 344 913 364 913 l 224 913 m 492 913 q 472 934 472 913 l 472 1060 q 492 1080 472 1080 l 612 1080 q 632 1060 632 1080 l 632 934 q 612 913 632 913 l 492 913 m 326 -20 q 234 -3 275 -20 q 164 52 193 14 q 109 265 109 124 l 109 760 l 307 760 l 307 296 q 330 178 307 214 q 361 152 342 161 q 406 143 380 143 q 453 154 431 143 q 491 191 475 165 q 521 323 521 239 l 521 760 l 720 760 l 720 0 l 541 0 l 521 113 q 450 15 499 50 q 326 -20 399 -20 z "},"ù":{"ha":836,"x_min":109,"x_max":720,"o":"m 135 1116 l 326 1116 l 518 861 l 385 861 l 135 1116 m 326 -20 q 234 -3 275 -20 q 164 52 193 14 q 109 265 109 124 l 109 760 l 307 760 l 307 296 q 330 178 307 214 q 361 152 342 161 q 406 143 380 143 q 453 154 431 143 q 491 191 475 165 q 521 323 521 239 l 521 760 l 720 760 l 720 0 l 541 0 l 521 113 q 450 15 499 50 q 326 -20 399 -20 z "},"ư":{"ha":836,"x_min":5,"x_max":831,"o":"m 816 791 q 827 722 823 754 q 831 664 831 690 q 800 543 831 585 q 711 501 769 501 q 616 531 664 501 l 616 0 l 437 0 l 418 113 q 348 15 397 50 q 222 -20 298 -20 q 61 52 116 -20 q 5 265 5 123 l 5 760 l 204 760 l 204 296 q 227 180 204 216 q 299 143 249 143 q 388 190 359 143 q 418 323 418 237 l 418 760 l 616 760 l 616 633 q 623 629 620 631 q 629 625 626 627 q 672 612 653 612 q 714 631 696 612 q 731 690 731 650 q 726 738 731 711 q 710 791 721 765 l 816 791 l 816 791 z "},"ű":{"ha":836,"x_min":109,"x_max":736,"o":"m 334 1116 l 481 1116 l 313 861 l 201 861 l 334 1116 m 579 1116 l 736 1116 l 551 861 l 433 861 l 579 1116 m 326 -20 q 164 52 219 -20 q 109 265 109 123 l 109 760 l 307 760 l 307 296 q 330 180 307 216 q 402 143 352 143 q 491 190 462 143 q 521 323 521 237 l 521 760 l 720 760 l 720 0 l 541 0 l 521 113 q 451 15 500 50 q 326 -20 401 -20 z "},"ū":{"ha":836,"x_min":109,"x_max":720,"o":"m 204 1023 l 632 1023 l 632 895 l 204 895 l 204 1023 m 326 -20 q 164 52 219 -20 q 109 265 109 123 l 109 760 l 307 760 l 307 296 q 330 180 307 216 q 402 143 352 143 q 491 190 462 143 q 521 323 521 237 l 521 760 l 720 760 l 720 0 l 541 0 l 521 113 q 451 15 500 50 q 326 -20 401 -20 z "},"ų":{"ha":836,"x_min":109,"x_max":833,"o":"m 732 -172 q 780 -167 753 -172 q 833 -151 806 -162 l 833 -257 q 764 -268 796 -264 q 706 -272 732 -272 q 585 -241 627 -272 q 543 -152 543 -210 q 561 -78 543 -115 q 618 0 579 -41 l 521 0 l 521 113 q 451 15 500 50 q 326 -20 401 -20 q 164 52 219 -20 q 109 265 109 123 l 109 760 l 307 760 l 307 296 q 330 180 307 216 q 402 143 352 143 q 491 190 462 143 q 521 323 521 237 l 521 760 l 720 760 l 720 0 l 713 0 q 694 -27 702 -16 q 680 -47 686 -39 q 671 -61 675 -55 q 665 -72 668 -67 q 655 -94 659 -84 q 652 -113 652 -103 q 671 -154 652 -136 q 732 -172 690 -172 z "},"ů":{"ha":836,"x_min":109,"x_max":720,"o":"m 418 847 q 343 862 378 847 q 282 904 308 878 q 240 965 256 930 q 225 1040 225 1000 q 240 1116 225 1080 q 282 1177 256 1151 q 343 1218 308 1203 q 418 1234 378 1234 q 494 1218 458 1234 q 555 1177 529 1203 q 596 1116 581 1151 q 611 1040 611 1080 q 596 965 611 1000 q 555 904 581 930 q 494 862 529 878 q 418 847 458 847 m 418 951 q 452 959 436 951 q 481 978 469 966 q 500 1006 493 989 q 507 1040 507 1022 q 500 1075 507 1059 q 481 1103 493 1091 q 452 1122 469 1115 q 418 1129 436 1129 q 383 1122 399 1129 q 355 1103 367 1115 q 336 1075 343 1091 q 329 1040 329 1059 q 336 1006 329 1022 q 355 977 343 989 q 383 958 367 965 q 418 951 399 951 m 326 -20 q 164 52 219 -20 q 109 265 109 123 l 109 760 l 307 760 l 307 296 q 330 180 307 216 q 402 143 352 143 q 491 190 462 143 q 521 323 521 237 l 521 760 l 720 760 l 720 0 l 541 0 l 521 113 q 451 15 500 50 q 326 -20 401 -20 z "},"ũ":{"ha":836,"x_min":109,"x_max":720,"o":"m 518 861 q 497 863 507 861 q 475 869 487 865 q 450 881 464 873 q 419 900 436 888 l 382 925 l 374 930 q 347 945 359 940 q 325 950 336 950 q 289 929 302 950 q 277 868 277 907 l 277 863 l 182 863 q 217 1005 182 956 q 315 1055 252 1055 q 364 1046 341 1055 q 416 1017 387 1037 l 458 987 q 485 972 472 978 q 509 966 497 966 q 546 988 533 966 q 559 1048 559 1010 l 559 1054 l 654 1054 q 620 911 654 961 q 518 861 585 861 m 326 -20 q 164 52 219 -20 q 109 265 109 123 l 109 760 l 307 760 l 307 296 q 330 180 307 216 q 402 143 352 143 q 491 190 462 143 q 521 323 521 237 l 521 760 l 720 760 l 720 0 l 541 0 l 521 113 q 451 15 500 50 q 326 -20 401 -20 z "},"v":{"ha":836,"x_min":54,"x_max":782,"o":"m 54 760 l 256 760 l 418 167 l 581 760 l 782 760 l 541 0 l 296 0 l 54 760 z "},"w":{"ha":836,"x_min":0,"x_max":836,"o":"m 0 760 l 165 760 l 256 178 l 338 561 l 498 561 l 579 178 l 671 760 l 836 760 l 699 0 l 510 0 l 418 395 l 326 0 l 138 0 l 0 760 z "},"ẃ":{"ha":836,"x_min":0,"x_max":836,"o":"m 543 1116 l 734 1116 l 485 861 l 351 861 l 543 1116 m 0 760 l 165 760 l 256 178 l 338 561 l 498 561 l 579 178 l 671 760 l 836 760 l 699 0 l 510 0 l 418 395 l 326 0 l 138 0 l 0 760 z "},"ŵ":{"ha":836,"x_min":0,"x_max":836,"o":"m 336 1116 l 500 1116 l 673 861 l 553 861 l 418 1014 l 283 861 l 163 861 l 336 1116 m 0 760 l 165 760 l 256 178 l 338 561 l 498 561 l 579 178 l 671 760 l 836 760 l 699 0 l 510 0 l 418 395 l 326 0 l 138 0 l 0 760 z "},"ẅ":{"ha":836,"x_min":0,"x_max":836,"o":"m 224 895 q 204 916 204 895 l 204 1042 q 224 1062 204 1062 l 344 1062 q 364 1042 364 1062 l 364 916 q 344 895 364 895 l 224 895 m 492 895 q 472 916 472 895 l 472 1042 q 492 1062 472 1062 l 612 1062 q 632 1042 632 1062 l 632 916 q 612 895 632 895 l 492 895 m 0 760 l 165 760 l 256 178 l 338 561 l 498 561 l 579 178 l 671 760 l 836 760 l 699 0 l 510 0 l 418 395 l 326 0 l 138 0 l 0 760 z "},"ẁ":{"ha":836,"x_min":0,"x_max":836,"o":"m 102 1116 l 293 1116 l 485 861 l 351 861 l 102 1116 m 0 760 l 165 760 l 256 178 l 338 561 l 498 561 l 579 178 l 671 760 l 836 760 l 699 0 l 510 0 l 418 395 l 326 0 l 138 0 l 0 760 z "},"x":{"ha":836,"x_min":37,"x_max":799,"o":"m 318 396 l 60 760 l 292 760 l 418 533 l 545 760 l 777 760 l 521 396 l 799 0 l 567 0 l 418 256 l 269 0 l 37 0 l 318 396 z "},"y":{"ha":836,"x_min":47,"x_max":804,"o":"m 93 -136 l 174 -136 q 225 -132 202 -136 q 263 -116 249 -127 q 294 -77 279 -104 q 321 -20 309 -50 l 336 21 l 47 760 l 256 760 l 429 267 l 595 760 l 804 760 l 489 -82 q 443 -178 467 -140 q 393 -239 419 -216 q 334 -275 368 -262 q 257 -288 300 -288 l 93 -288 l 93 -136 z "},"ý":{"ha":836,"x_min":47,"x_max":804,"o":"m 517 1116 l 708 1116 l 458 861 l 325 861 l 517 1116 m 93 -136 l 174 -136 q 225 -132 202 -136 q 263 -116 249 -127 q 294 -77 279 -104 q 321 -20 309 -50 l 336 21 l 47 760 l 256 760 l 429 267 l 595 760 l 804 760 l 489 -82 q 443 -178 467 -140 q 393 -239 419 -216 q 334 -275 368 -262 q 257 -288 300 -288 l 93 -288 l 93 -136 z "},"ŷ":{"ha":836,"x_min":47,"x_max":804,"o":"m 344 1116 l 507 1116 l 681 861 l 560 861 l 425 1014 l 291 861 l 170 861 l 344 1116 m 93 -136 l 174 -136 q 225 -132 203 -136 q 263 -115 247 -127 q 294 -80 280 -102 q 321 -20 307 -57 l 336 21 l 47 760 l 256 760 l 429 267 l 595 760 l 804 760 l 489 -82 q 393 -238 449 -189 q 257 -288 337 -288 l 93 -288 l 93 -136 z "},"ÿ":{"ha":836,"x_min":47,"x_max":804,"o":"m 231 895 q 211 916 211 895 l 211 1042 q 231 1062 211 1062 l 351 1062 q 371 1042 371 1062 l 371 916 q 351 895 371 895 l 231 895 m 499 895 q 479 916 479 895 l 479 1042 q 499 1062 479 1062 l 618 1062 q 639 1042 639 1062 l 639 916 q 618 895 639 895 l 499 895 m 93 -136 l 174 -136 q 225 -132 202 -136 q 263 -116 249 -127 q 294 -77 279 -104 q 321 -20 309 -50 l 336 21 l 47 760 l 256 760 l 429 267 l 595 760 l 804 760 l 489 -82 q 443 -178 467 -140 q 393 -239 419 -216 q 334 -275 368 -262 q 257 -288 300 -288 l 93 -288 l 93 -136 z "},"ỳ":{"ha":836,"x_min":47,"x_max":804,"o":"m 109 1116 l 300 1116 l 492 861 l 359 861 l 109 1116 m 93 -136 l 174 -136 q 225 -132 203 -136 q 263 -115 247 -127 q 294 -80 280 -102 q 321 -20 307 -57 l 336 21 l 47 760 l 256 760 l 429 267 l 595 760 l 804 760 l 489 -82 q 393 -238 449 -189 q 257 -288 337 -288 l 93 -288 l 93 -136 z "},"z":{"ha":836,"x_min":110,"x_max":733,"o":"m 110 155 l 510 611 l 126 611 l 126 760 l 733 760 l 733 604 l 334 149 l 733 149 l 733 0 l 110 0 l 110 155 z "},"ź":{"ha":836,"x_min":110,"x_max":733,"o":"m 509 1116 l 700 1116 l 450 861 l 317 861 l 509 1116 m 110 155 l 510 611 l 126 611 l 126 760 l 733 760 l 733 604 l 334 149 l 733 149 l 733 0 l 110 0 l 110 155 z "},"ž":{"ha":836,"x_min":110,"x_max":733,"o":"m 163 1116 l 283 1116 l 418 962 l 553 1116 l 673 1116 l 500 861 l 336 861 l 163 1116 m 110 155 l 510 611 l 126 611 l 126 760 l 733 760 l 733 604 l 334 149 l 733 149 l 733 0 l 110 0 l 110 155 z "},"ż":{"ha":836,"x_min":110,"x_max":733,"o":"m 345 895 q 325 916 325 895 l 325 1042 q 345 1062 325 1062 l 491 1062 q 511 1042 511 1062 l 511 916 q 491 895 511 895 l 345 895 m 110 155 l 510 611 l 126 611 l 126 760 l 733 760 l 733 604 l 334 149 l 733 149 l 733 0 l 110 0 l 110 155 z "},"ª":{"ha":836,"x_min":174,"x_max":665,"o":"m 364 473 q 225 519 277 473 q 174 646 174 566 q 190 726 174 692 q 237 782 206 760 q 427 827 298 827 l 533 827 l 533 844 q 525 875 533 863 q 503 895 516 887 q 465 906 488 902 q 408 911 442 911 q 356 908 382 911 q 306 900 330 905 q 214 865 258 889 l 214 993 q 258 1008 232 1000 q 313 1021 285 1016 q 364 1028 338 1026 q 416 1031 389 1031 q 604 972 543 1031 q 664 790 664 914 l 664 486 l 546 486 l 533 549 q 458 492 500 510 q 364 473 416 473 m 402 587 q 455 597 431 587 q 496 623 479 607 q 524 663 515 640 q 533 711 533 686 l 533 732 l 464 732 q 356 714 390 732 q 322 658 322 696 q 327 629 322 643 q 342 606 332 616 q 367 592 352 597 q 402 587 381 587 m 199 406 l 665 406 l 665 290 l 199 290 l 199 406 z "},"º":{"ha":836,"x_min":186,"x_max":677,"o":"m 432 473 q 329 493 373 473 q 253 549 286 512 q 203 635 220 585 q 186 751 186 684 q 253 956 186 879 q 432 1031 319 1031 q 611 956 545 1031 q 677 751 677 880 q 662 637 677 687 q 612 549 646 587 q 432 473 545 473 m 432 593 q 476 603 456 593 q 511 635 496 614 q 539 751 539 677 q 511 868 539 825 q 477 900 497 888 q 432 911 458 911 q 385 899 404 911 q 354 869 366 886 q 325 751 325 825 q 353 635 325 677 q 386 605 366 616 q 432 593 406 593 m 199 406 l 665 406 l 665 290 l 199 290 l 199 406 z "},"А":{"ha":836,"x_min":22,"x_max":814,"o":"m 296 1013 l 541 1013 l 814 0 l 614 0 l 551 250 l 283 250 l 222 0 l 22 0 l 296 1013 m 513 415 l 418 829 l 323 415 l 513 415 z "},"Б":{"ha":836,"x_min":103,"x_max":771,"o":"m 103 1013 l 734 1013 l 734 836 l 303 836 l 303 633 l 378 633 q 557 615 482 633 q 679 559 631 597 q 749 460 727 520 q 771 317 771 400 q 749 173 771 233 q 679 75 727 113 q 557 18 631 36 q 378 0 482 0 l 103 0 l 103 1013 m 385 168 q 468 176 434 168 q 523 201 502 184 q 553 248 544 219 q 563 317 563 276 q 553 386 563 357 q 523 432 544 414 q 468 457 502 450 q 385 465 434 465 l 303 465 l 303 168 l 385 168 z "},"В":{"ha":836,"x_min":85,"x_max":786,"o":"m 85 1014 l 411 1014 q 750 759 750 1014 q 700 605 750 660 q 553 542 650 551 q 729 463 672 530 q 786 276 786 396 q 765 151 786 203 q 697 65 743 99 q 581 16 652 32 q 411 0 510 0 l 85 0 l 85 1014 m 411 619 q 476 626 449 619 q 519 646 503 632 q 544 682 536 660 q 551 735 551 704 q 518 826 551 798 q 411 854 486 854 l 278 854 l 278 619 l 411 619 m 411 160 q 491 168 458 160 q 545 192 524 175 q 574 237 565 210 q 583 304 583 264 q 574 375 583 346 q 544 424 564 405 q 490 451 523 442 q 411 460 457 460 l 278 460 l 278 160 l 411 160 z "},"Г":{"ha":836,"x_min":123,"x_max":754,"o":"m 123 1013 l 754 1013 l 754 836 l 323 836 l 323 0 l 123 0 l 123 1013 z "},"Ѓ":{"ha":836,"x_min":123,"x_max":754,"o":"m 474 1288 l 667 1288 l 473 1109 l 339 1109 l 474 1288 m 123 1013 l 754 1013 l 754 836 l 323 836 l 323 0 l 123 0 l 123 1013 z "},"Ґ":{"ha":836,"x_min":151,"x_max":781,"o":"m 151 1013 l 605 1013 l 605 1220 l 781 1220 l 781 836 l 351 836 l 351 0 l 151 0 l 151 1013 z "},"Д":{"ha":836,"x_min":27,"x_max":808,"o":"m 27 176 l 95 176 q 111 184 103 176 q 126 205 119 193 q 136 235 132 218 q 140 268 140 251 l 140 337 l 140 1013 l 715 1013 l 715 176 l 808 176 l 808 -218 l 635 -218 l 635 0 l 200 0 l 200 -218 l 27 -218 l 27 176 m 515 176 l 515 836 l 340 836 l 340 337 q 320 176 340 241 l 515 176 z "},"Е":{"ha":836,"x_min":107,"x_max":738,"o":"m 107 1013 l 738 1013 l 738 836 l 307 836 l 307 618 l 697 618 l 697 441 l 307 441 l 307 176 l 738 176 l 738 0 l 107 0 l 107 1013 z "},"Ѐ":{"ha":836,"x_min":107,"x_max":738,"o":"m 206 1255 l 399 1255 l 534 1076 l 400 1076 l 206 1255 m 107 1013 l 738 1013 l 738 836 l 307 836 l 307 618 l 697 618 l 697 441 l 307 441 l 307 176 l 738 176 l 738 0 l 107 0 l 107 1013 z "},"Ё":{"ha":836,"x_min":107,"x_max":738,"o":"m 239 1088 q 218 1108 218 1088 l 218 1234 q 239 1255 218 1255 l 358 1255 q 378 1234 378 1255 l 378 1108 q 358 1088 378 1088 l 239 1088 m 507 1088 q 486 1108 486 1088 l 486 1234 q 507 1255 486 1255 l 626 1255 q 646 1234 646 1255 l 646 1108 q 626 1088 646 1088 l 507 1088 m 107 1013 l 738 1013 l 738 836 l 307 836 l 307 618 l 697 618 l 697 441 l 307 441 l 307 176 l 738 176 l 738 0 l 107 0 l 107 1013 z "},"Ж":{"ha":836,"x_min":9,"x_max":828,"o":"m 184 601 l 9 1013 l 186 1013 l 337 658 l 337 1013 l 500 1013 l 500 658 l 651 1013 l 828 1013 l 653 601 l 828 0 l 659 0 l 552 364 l 500 241 l 500 0 l 337 0 l 337 241 l 285 364 l 178 0 l 9 0 l 184 601 z "},"З":{"ha":836,"x_min":85,"x_max":746,"o":"m 376 -20 q 227 -7 301 -20 q 85 31 153 6 l 85 216 q 154 187 117 199 q 227 167 191 175 q 299 155 264 159 q 365 151 334 151 q 509 190 463 151 q 554 295 554 228 q 507 410 554 368 q 372 453 460 453 l 265 453 l 265 629 l 372 629 q 488 659 448 629 q 529 744 529 688 q 488 830 529 799 q 369 861 447 861 q 251 847 316 861 q 115 806 185 833 l 115 987 q 253 1020 185 1008 q 384 1031 320 1031 q 527 1013 464 1031 q 633 961 589 995 q 699 879 676 927 q 722 770 722 830 q 671 620 722 677 q 524 546 619 564 q 617 516 576 536 q 687 462 659 495 q 731 383 715 429 q 746 279 746 338 q 652 57 746 134 q 376 -20 558 -20 z "},"И":{"ha":836,"x_min":81,"x_max":754,"o":"m 81 1013 l 257 1013 l 257 277 l 539 1013 l 754 1013 l 754 0 l 578 0 l 578 736 l 294 0 l 81 0 l 81 1013 z "},"Й":{"ha":836,"x_min":81,"x_max":754,"o":"m 418 1076 q 259 1121 317 1076 q 191 1255 201 1166 l 286 1255 q 419 1173 314 1173 q 549 1255 522 1173 l 646 1255 q 577 1121 635 1166 q 418 1076 519 1076 m 81 1013 l 257 1013 l 257 277 l 539 1013 l 754 1013 l 754 0 l 578 0 l 578 736 l 294 0 l 81 0 l 81 1013 z "},"Ѝ":{"ha":836,"x_min":81,"x_max":754,"o":"m 213 1255 l 406 1255 l 541 1076 l 407 1076 l 213 1255 m 81 1013 l 257 1013 l 257 277 l 539 1013 l 754 1013 l 754 0 l 578 0 l 578 736 l 294 0 l 81 0 l 81 1013 z "},"К":{"ha":836,"x_min":73,"x_max":824,"o":"m 73 1013 l 273 1013 l 273 612 l 586 1013 l 812 1013 l 493 614 l 824 0 l 602 0 l 361 456 l 273 343 l 273 0 l 73 0 l 73 1013 z "},"Ќ":{"ha":836,"x_min":73,"x_max":824,"o":"m 467 1255 l 660 1255 l 466 1076 l 332 1076 l 467 1255 m 73 1013 l 273 1013 l 273 612 l 586 1013 l 812 1013 l 493 614 l 824 0 l 602 0 l 361 456 l 273 343 l 273 0 l 73 0 l 73 1013 z "},"Л":{"ha":836,"x_min":18,"x_max":757,"o":"m 18 180 l 24 180 q 124 214 93 180 q 158 321 155 248 q 162 425 160 377 q 164 520 163 473 q 166 615 165 566 q 167 722 167 664 l 167 1013 l 757 1013 l 757 0 l 557 0 l 557 836 l 367 836 l 367 717 q 366 493 367 594 q 357 312 365 392 q 333 174 350 233 q 283 77 316 115 q 80 0 219 0 l 18 0 l 18 180 z "},"М":{"ha":836,"x_min":58,"x_max":778,"o":"m 58 1013 l 297 1013 l 418 568 l 538 1013 l 778 1013 l 778 0 l 606 0 l 606 811 l 498 368 l 339 368 l 231 811 l 231 0 l 58 0 l 58 1013 z "},"Н":{"ha":836,"x_min":93,"x_max":743,"o":"m 93 1013 l 293 1013 l 293 627 l 543 627 l 543 1013 l 743 1013 l 743 0 l 543 0 l 543 450 l 293 450 l 293 0 l 93 0 l 93 1013 z "},"О":{"ha":836,"x_min":62,"x_max":774,"o":"m 418 -20 q 152 114 242 -20 q 62 506 62 247 q 152 898 62 765 q 418 1031 242 1031 q 684 898 594 1031 q 774 506 774 766 q 684 113 774 246 q 418 -20 594 -20 m 418 160 q 530 242 495 160 q 566 506 566 323 q 530 769 566 688 q 418 851 495 851 q 351 830 378 851 q 306 769 323 810 q 271 506 271 688 q 306 242 271 323 q 418 160 341 160 z "},"П":{"ha":836,"x_min":93,"x_max":743,"o":"m 93 1013 l 743 1013 l 743 0 l 543 0 l 543 836 l 293 836 l 293 0 l 93 0 l 93 1013 z "},"Р":{"ha":836,"x_min":110,"x_max":778,"o":"m 110 1013 l 385 1013 q 564 995 489 1013 q 686 938 638 977 q 756 839 734 899 q 778 696 778 779 q 756 552 778 612 q 686 454 734 492 q 564 397 638 415 q 385 379 489 379 l 310 379 l 310 0 l 110 0 l 110 1013 m 392 547 q 475 555 441 547 q 530 581 509 563 q 560 627 551 598 q 570 696 570 655 q 560 765 570 736 q 530 811 551 793 q 475 837 509 829 q 392 844 441 844 l 310 844 l 310 547 l 392 547 z "},"С":{"ha":836,"x_min":96,"x_max":726,"o":"m 513 -20 q 334 15 412 -20 q 203 115 256 49 q 123 280 151 182 q 96 505 96 378 q 123 731 96 633 q 203 896 151 829 q 334 997 256 962 q 513 1031 412 1031 q 726 982 633 1031 l 726 760 q 626 829 674 807 q 524 851 577 851 q 359 764 415 851 q 304 505 304 677 q 359 247 304 333 q 524 160 415 160 q 626 182 577 160 q 726 252 674 204 l 726 29 q 626 -7 678 5 q 513 -20 574 -20 z "},"Т":{"ha":836,"x_min":61,"x_max":775,"o":"m 318 838 l 61 838 l 61 1013 l 775 1013 l 775 838 l 518 838 l 518 0 l 318 0 l 318 838 z "},"У":{"ha":836,"x_min":26,"x_max":824,"o":"m 132 176 l 186 176 q 224 177 206 176 q 259 186 242 178 q 290 214 275 195 q 319 269 305 233 l 356 367 l 26 1013 l 233 1013 l 447 592 l 617 1013 l 824 1013 l 500 205 q 402 51 458 101 q 268 0 347 0 l 132 0 l 132 176 z "},"Ў":{"ha":836,"x_min":26,"x_max":824,"o":"m 425 1076 q 266 1121 324 1076 q 197 1255 208 1166 l 293 1255 q 426 1173 321 1173 q 555 1255 528 1173 l 652 1255 q 584 1121 642 1166 q 425 1076 526 1076 m 132 176 l 186 176 q 224 177 206 176 q 259 186 242 178 q 290 214 275 195 q 319 269 305 233 l 356 367 l 26 1013 l 233 1013 l 447 592 l 617 1013 l 824 1013 l 500 205 q 402 51 458 101 q 268 0 347 0 l 132 0 l 132 176 z "},"Ф":{"ha":836,"x_min":20,"x_max":816,"o":"m 332 90 q 204 133 261 96 q 106 228 146 170 q 43 360 65 286 q 20 516 20 435 q 42 671 20 597 q 105 804 64 746 q 203 900 146 863 q 332 943 261 937 l 332 1013 l 505 1013 l 505 943 q 632 900 574 937 q 730 805 690 863 q 793 672 771 747 q 816 515 816 597 q 793 360 816 434 q 730 228 771 286 q 632 133 690 170 q 505 90 574 96 l 505 0 l 332 0 l 332 90 m 332 770 q 266 740 293 762 q 223 683 239 717 q 200 607 207 650 q 193 517 193 565 q 199 431 193 473 q 221 354 205 389 q 264 295 237 319 q 332 262 291 271 l 332 770 m 505 262 q 570 293 543 271 q 613 349 597 315 q 636 425 629 382 q 644 515 644 467 q 637 603 644 560 q 615 680 631 645 q 572 738 599 714 q 505 770 545 762 l 505 262 z "},"Х":{"ha":836,"x_min":18,"x_max":818,"o":"m 315 514 l 26 1013 l 233 1013 l 418 690 l 603 1013 l 810 1013 l 522 514 l 818 0 l 611 0 l 418 335 l 225 0 l 18 0 l 315 514 z "},"Ч":{"ha":836,"x_min":63,"x_max":759,"o":"m 562 519 q 485 439 541 467 q 331 412 429 412 q 208 428 258 412 q 124 479 157 444 q 78 567 92 513 q 63 696 63 621 l 63 1055 l 260 1055 l 260 743 q 272 664 260 694 q 304 618 284 634 q 349 596 323 602 q 403 590 375 590 q 481 602 450 590 q 529 637 511 614 q 554 693 547 660 q 562 770 562 727 l 562 1055 l 759 1055 l 759 0 l 562 0 l 562 519 z "},"Ц":{"ha":836,"x_min":90,"x_max":833,"o":"m 634 0 l 90 0 l 90 1013 l 290 1013 l 290 176 l 540 176 l 540 1013 l 740 1013 l 740 176 l 833 176 l 833 -218 l 634 -218 l 634 0 z "},"Ш":{"ha":836,"x_min":53,"x_max":783,"o":"m 53 1013 l 216 1013 l 216 176 l 336 176 l 336 1013 l 499 1013 l 499 176 l 620 176 l 620 1013 l 783 1013 l 783 0 l 53 0 l 53 1013 z "},"Щ":{"ha":836,"x_min":56,"x_max":830,"o":"m 667 0 l 56 0 l 56 1013 l 218 1013 l 218 177 l 339 177 l 339 1012 l 502 1012 l 502 176 l 623 176 l 623 1012 l 785 1012 l 785 176 l 830 176 l 830 -218 l 667 -218 l 667 0 z "},"Џ":{"ha":836,"x_min":93,"x_max":743,"o":"m 330 0 l 93 0 l 93 1013 l 293 1013 l 293 176 l 543 176 l 543 1013 l 743 1013 l 743 0 l 506 0 l 506 -218 l 330 -218 l 330 0 z "},"Я":{"ha":836,"x_min":22,"x_max":753,"o":"m 243 437 q 186 472 217 450 q 127 529 155 494 q 82 613 100 564 q 64 731 64 663 q 157 945 64 878 q 430 1013 250 1013 l 753 1013 l 753 0 l 553 0 l 553 400 l 443 400 l 240 0 l 22 0 l 243 437 m 553 568 l 553 844 l 425 844 q 310 812 349 844 q 271 707 271 781 q 310 601 271 633 q 425 568 349 568 l 553 568 z "},"Ь":{"ha":836,"x_min":111,"x_max":779,"o":"m 111 1013 l 311 1013 l 311 619 l 386 619 q 564 601 490 619 q 687 545 639 583 q 757 449 734 507 q 779 309 779 390 q 757 172 779 230 q 688 75 735 113 q 566 18 641 37 q 386 0 492 0 l 111 0 l 111 1013 m 393 160 q 481 168 446 160 q 538 193 517 176 q 568 239 559 211 q 576 309 576 268 q 567 380 576 351 q 536 427 557 410 q 480 452 515 445 q 393 460 445 460 l 311 460 l 311 160 l 393 160 z "},"Ъ":{"ha":836,"x_min":20,"x_max":804,"o":"m 190 871 l 20 871 l 20 1013 l 390 1013 l 390 619 l 410 619 q 589 601 514 619 q 711 545 663 583 q 781 449 759 507 q 804 309 804 390 q 782 172 804 230 q 712 75 760 113 q 591 18 665 37 q 410 0 516 0 l 190 0 l 190 871 m 418 160 q 506 168 471 160 q 562 193 541 176 q 592 239 583 211 q 601 309 601 268 q 591 380 601 351 q 561 427 582 410 q 504 452 539 445 q 418 460 469 460 l 390 460 l 390 160 l 418 160 z "},"Ы":{"ha":836,"x_min":27,"x_max":809,"o":"m 27 1013 l 200 1013 l 200 619 l 207 619 q 364 601 296 619 q 478 545 432 583 q 547 449 524 507 q 570 309 570 390 q 479 75 570 150 q 207 0 388 0 l 27 0 l 27 1013 m 636 1013 l 809 1013 l 809 0 l 636 0 l 636 1013 m 214 160 q 302 168 267 160 q 359 193 338 176 q 389 239 380 211 q 397 309 397 268 q 388 380 397 351 q 357 427 378 410 q 301 452 336 445 q 214 460 266 460 l 200 460 l 200 160 l 214 160 z "},"Љ":{"ha":836,"x_min":0,"x_max":836,"o":"m 0 170 l 4 170 q 66 179 42 170 q 105 207 90 189 q 126 254 119 226 q 138 319 134 282 q 141 369 140 339 q 144 445 143 398 q 146 558 145 491 q 146 722 146 626 l 146 1013 l 564 1013 l 564 619 l 579 619 q 633 611 604 619 q 690 586 661 603 q 745 545 719 570 q 792 485 772 519 q 824 407 812 451 q 836 310 836 363 q 810 171 836 229 q 744 75 783 113 q 661 18 705 37 q 579 0 616 0 l 401 0 l 401 836 l 309 836 l 309 717 q 308 493 309 594 q 300 312 307 392 q 275 174 292 233 q 226 77 258 115 q 22 0 161 0 l 0 0 l 0 170 m 570 160 q 600 168 582 160 q 634 193 618 176 q 662 239 650 211 q 673 310 673 268 q 662 380 673 352 q 634 427 650 409 q 600 452 618 444 q 570 460 582 460 l 564 460 l 564 160 l 570 160 z "},"Њ":{"ha":836,"x_min":20,"x_max":836,"o":"m 20 1013 l 183 1013 l 183 627 l 401 627 l 401 1013 l 564 1013 l 564 619 l 579 619 q 633 611 604 619 q 690 586 661 603 q 745 544 719 570 q 792 485 772 519 q 824 407 812 450 q 836 310 836 363 q 810 171 836 229 q 744 75 783 113 q 661 18 705 37 q 579 0 616 0 l 401 0 l 401 450 l 183 450 l 183 0 l 20 0 l 20 1013 m 570 160 q 600 168 582 160 q 634 193 618 176 q 662 239 650 211 q 673 310 673 268 q 662 380 673 352 q 634 427 650 409 q 600 452 618 444 q 570 460 582 460 l 564 460 l 564 160 l 570 160 z "},"Ѕ":{"ha":836,"x_min":87,"x_max":753,"o":"m 396 -20 q 239 -2 313 -20 q 92 52 165 15 l 92 258 q 245 174 170 202 q 391 146 321 146 q 509 179 469 146 q 550 271 550 212 q 523 353 550 319 q 444 407 495 387 l 346 444 q 222 501 272 472 q 143 564 173 530 q 100 638 113 597 q 87 729 87 678 q 110 858 87 802 q 176 952 133 914 q 279 1011 218 991 q 418 1031 340 1031 q 557 1015 488 1031 q 696 968 627 999 l 696 772 q 565 842 631 818 q 433 865 499 865 q 322 836 360 865 q 283 754 283 807 q 312 684 283 711 q 352 656 326 670 q 429 623 379 642 l 515 590 q 623 537 578 566 q 697 470 668 507 q 739 386 726 432 q 753 283 753 340 q 661 56 753 131 q 396 -20 570 -20 z "},"Є":{"ha":836,"x_min":83,"x_max":713,"o":"m 501 -20 q 321 15 399 -20 q 191 115 243 49 q 110 280 138 182 q 83 506 83 378 q 110 731 83 633 q 191 896 138 829 q 321 997 243 962 q 501 1031 399 1031 q 618 1018 567 1031 q 713 982 670 1004 l 713 760 q 673 793 694 777 q 626 823 651 810 q 572 843 600 836 q 511 851 543 851 q 421 830 459 851 q 357 773 383 809 q 316 691 331 738 q 296 593 301 644 l 684 593 l 684 417 l 296 417 q 316 321 300 368 q 358 239 332 275 q 423 182 385 203 q 512 160 461 160 q 713 252 613 160 l 713 29 q 616 -7 668 6 q 501 -20 565 -20 z "},"Э":{"ha":836,"x_min":130,"x_max":760,"o":"m 342 -20 q 230 -7 282 -20 q 130 29 178 5 l 130 252 q 336 160 229 160 q 547 417 520 160 l 180 417 l 180 593 l 547 593 q 336 851 519 851 q 130 760 229 851 l 130 982 q 341 1031 222 1031 q 521 997 443 1031 q 652 896 600 962 q 733 731 705 829 q 760 506 760 633 q 733 280 760 378 q 652 115 705 182 q 522 15 600 49 q 342 -20 444 -20 z "},"І":{"ha":836,"x_min":117,"x_max":720,"o":"m 117 176 l 318 176 l 318 836 l 117 836 l 117 1013 l 720 1013 l 720 836 l 518 836 l 518 176 l 720 176 l 720 0 l 117 0 l 117 176 z "},"Ї":{"ha":836,"x_min":117,"x_max":720,"o":"m 224 1088 q 204 1108 204 1088 l 204 1234 q 224 1255 204 1255 l 344 1255 q 364 1234 364 1255 l 364 1108 q 344 1088 364 1088 l 224 1088 m 492 1088 q 472 1108 472 1088 l 472 1234 q 492 1255 472 1255 l 612 1255 q 632 1234 632 1255 l 632 1108 q 612 1088 632 1088 l 492 1088 m 117 176 l 318 176 l 318 836 l 117 836 l 117 1013 l 720 1013 l 720 836 l 518 836 l 518 176 l 720 176 l 720 0 l 117 0 l 117 176 z "},"Ј":{"ha":836,"x_min":74,"x_max":684,"o":"m 361 -20 q 292 -16 326 -20 q 223 -4 258 -12 q 151 17 188 4 q 74 50 115 31 l 74 282 q 198 191 133 222 q 334 160 264 160 q 448 200 412 160 q 484 325 484 239 l 484 836 l 239 836 l 239 1013 l 684 1013 l 684 325 q 665 170 684 235 q 607 62 646 104 q 507 0 568 20 q 361 -20 446 -20 z "},"Ћ":{"ha":836,"x_min":-23,"x_max":802,"o":"m 106 913 l -23 913 l -23 1055 l 631 1055 l 631 913 l 303 913 l 303 565 q 307 575 304 568 q 318 593 310 583 q 339 615 326 604 q 374 639 353 627 q 399 650 387 646 q 428 659 412 655 q 465 665 444 663 q 513 671 486 668 q 553 673 534 673 q 633 664 594 673 q 704 637 673 654 q 747 601 729 623 q 787 515 772 569 q 802 388 802 462 l 802 0 l 604 0 l 604 342 q 581 459 604 424 q 500 492 566 484 l 472 494 q 376 475 425 494 l 353 464 q 341 455 345 459 q 334 446 337 452 q 311 390 318 425 q 303 314 303 356 l 303 0 l 106 0 l 106 913 z "},"Ю":{"ha":836,"x_min":4,"x_max":836,"o":"m 556 -20 q 449 12 499 -20 q 364 113 399 44 q 279 441 291 245 l 204 441 l 204 0 l 4 0 l 4 1013 l 204 1013 l 204 618 l 282 618 q 297 713 287 665 q 322 808 307 762 q 361 894 338 854 q 415 965 385 935 q 485 1013 446 996 q 572 1031 524 1031 q 687 997 637 1031 q 769 898 737 963 q 798 822 785 865 q 819 729 810 779 q 832 622 827 678 q 836 505 836 565 q 813 280 834 378 q 755 116 792 182 q 667 15 718 50 q 556 -20 616 -20 m 501 241 q 529 186 513 205 q 561 166 545 167 q 592 185 577 166 q 617 241 607 203 q 632 309 626 269 q 642 396 639 349 q 646 493 646 442 q 643 593 646 544 q 634 688 640 643 q 617 769 627 733 q 591 830 606 810 q 557 851 577 851 q 524 830 538 851 q 501 769 510 808 q 480 652 487 717 q 473 502 473 587 q 480 351 473 417 q 501 241 487 285 z "},"Ђ":{"ha":836,"x_min":-23,"x_max":795,"o":"m 383 -135 l 475 -135 q 532 -126 509 -135 q 570 -98 555 -117 q 591 -47 585 -78 q 597 29 597 -16 l 597 342 q 574 459 597 424 q 493 492 559 484 l 465 494 q 369 475 418 494 l 346 464 q 334 455 338 459 q 327 446 330 452 q 304 390 311 425 q 296 314 296 356 l 296 0 l 99 0 l 99 913 l -23 913 l -23 1055 l 631 1055 l 631 913 l 296 913 l 296 565 q 336 617 308 598 l 368 638 q 422 659 389 652 q 507 671 455 666 q 547 673 528 673 q 627 664 588 673 q 697 637 667 654 q 740 601 722 623 q 780 515 766 569 q 795 388 795 462 l 795 29 q 780 -116 795 -56 q 733 -215 765 -176 q 651 -270 701 -253 q 531 -288 602 -288 l 383 -288 l 383 -135 z "},"Ѣ":{"ha":836,"x_min":14,"x_max":797,"o":"m 183 762 l 14 762 l 14 904 l 183 904 l 183 1013 l 383 1013 l 383 904 l 602 904 l 602 762 l 383 762 l 383 619 l 404 619 q 582 601 507 619 q 704 545 656 583 q 774 449 752 507 q 797 309 797 390 q 775 172 797 230 q 706 75 753 113 q 584 18 659 37 q 404 0 509 0 l 183 0 l 183 762 m 411 160 q 499 168 464 160 q 555 193 534 176 q 585 239 576 211 q 594 309 594 268 q 585 380 594 351 q 554 427 575 410 q 497 452 532 445 q 411 460 463 460 l 383 460 l 383 160 l 411 160 z "},"Ѳ":{"ha":836,"x_min":62,"x_max":774,"o":"m 418 -20 q 277 5 335 -20 q 179 71 218 30 q 116 165 139 112 q 81 273 93 218 q 66 384 69 329 q 62 483 62 438 q 119 841 62 711 q 298 1013 176 972 q 418 1031 353 1031 q 685 899 595 1031 q 774 504 774 766 q 711 158 774 283 q 527 -5 648 32 q 418 -20 478 -20 m 562 618 q 510 805 549 751 q 469 840 492 829 q 418 851 446 851 q 287 706 317 851 q 275 618 280 673 l 562 618 m 418 160 q 483 178 457 160 q 526 232 509 197 q 552 320 543 268 q 564 441 561 373 l 272 441 q 283 321 275 374 q 310 233 292 269 q 353 179 327 197 q 418 160 380 160 z "},"Ғ":{"ha":836,"x_min":59,"x_max":781,"o":"m 151 450 l 59 450 l 59 613 l 151 613 l 151 1013 l 781 1013 l 781 836 l 351 836 l 351 613 l 639 613 l 639 450 l 351 450 l 351 0 l 151 0 l 151 450 z "},"Ҕ":{"ha":836,"x_min":110,"x_max":772,"o":"m 358 -135 l 450 -135 q 507 -126 484 -135 q 545 -98 530 -117 q 566 -47 559 -78 q 572 29 572 -16 l 572 315 q 549 432 572 397 q 520 456 538 447 q 468 465 503 465 l 310 465 l 310 0 l 110 0 l 110 1013 l 741 1013 l 741 836 l 310 836 l 310 646 l 519 646 q 673 610 604 646 q 697 594 686 603 q 718 574 709 585 q 772 361 772 503 l 772 29 q 758 -116 772 -56 q 711 -215 743 -176 q 628 -270 679 -253 q 506 -288 578 -288 l 358 -288 l 358 -135 z "},"Җ":{"ha":836,"x_min":9,"x_max":828,"o":"m 665 0 l 659 0 l 552 364 l 500 241 l 500 0 l 337 0 l 337 241 l 285 364 l 178 0 l 9 0 l 184 601 l 9 1013 l 186 1013 l 337 658 l 337 1013 l 500 1013 l 500 658 l 651 1013 l 828 1013 l 653 601 l 777 176 l 828 176 l 828 -218 l 665 -218 l 665 0 z "},"Ҙ":{"ha":836,"x_min":85,"x_max":746,"o":"m 746 279 q 673 76 746 151 q 456 -16 600 1 q 505 -89 492 -58 q 519 -151 519 -119 q 477 -241 519 -210 q 349 -272 436 -272 q 283 -268 317 -272 q 212 -254 249 -263 l 212 -149 q 323 -172 274 -172 q 386 -157 363 -172 q 408 -115 408 -141 q 397 -75 408 -98 q 362 -20 386 -52 q 220 -6 291 -18 q 85 31 150 7 l 85 216 q 154 187 117 199 q 227 167 191 175 q 299 155 264 159 q 365 151 334 151 q 509 190 463 151 q 554 295 554 228 q 507 410 554 368 q 372 453 460 453 l 265 453 l 265 629 l 372 629 q 488 659 448 629 q 529 744 529 688 q 488 830 529 799 q 369 861 447 861 q 251 847 316 861 q 115 806 185 833 l 115 987 q 253 1020 185 1008 q 384 1031 320 1031 q 527 1013 464 1031 q 633 961 589 995 q 699 879 676 927 q 722 770 722 830 q 671 620 722 677 q 524 546 619 564 q 617 516 576 536 q 687 462 659 495 q 731 383 715 429 q 746 279 746 338 z "},"Қ":{"ha":836,"x_min":79,"x_max":831,"o":"m 632 0 l 608 0 l 368 456 l 279 343 l 279 0 l 79 0 l 79 1013 l 279 1013 l 279 612 l 593 1013 l 819 1013 l 500 614 l 736 176 l 831 176 l 831 -218 l 632 -218 l 632 0 z "},"Ң":{"ha":836,"x_min":59,"x_max":870,"o":"m 671 0 l 509 0 l 509 450 l 259 450 l 259 0 l 59 0 l 59 1013 l 259 1013 l 259 627 l 509 627 l 509 1013 l 709 1013 l 709 176 l 870 176 l 870 -218 l 671 -218 l 671 0 z "},"Ҫ":{"ha":836,"x_min":96,"x_max":726,"o":"m 524 851 q 359 764 415 851 q 304 505 304 677 q 359 247 304 333 q 524 160 415 160 q 626 182 577 160 q 726 252 674 204 l 726 29 q 650 -1 689 10 q 566 -17 610 -13 q 595 -55 584 -37 q 614 -89 607 -73 q 624 -120 621 -105 q 627 -151 627 -136 q 586 -241 627 -210 q 458 -272 545 -272 q 391 -268 425 -272 q 321 -254 357 -263 l 321 -149 q 432 -172 382 -172 q 494 -157 472 -172 q 516 -115 516 -141 q 505 -75 516 -98 q 470 -18 494 -52 q 309 27 379 -11 q 192 131 239 64 q 120 291 144 197 q 96 505 96 385 q 123 731 96 633 q 203 896 151 829 q 334 997 256 962 q 513 1031 412 1031 q 726 982 633 1031 l 726 760 q 626 829 674 807 q 524 851 577 851 z "},"Ҭ":{"ha":836,"x_min":61,"x_max":775,"o":"m 518 0 l 318 0 l 318 838 l 61 838 l 61 1013 l 775 1013 l 775 838 l 518 838 l 518 176 l 717 176 l 717 -218 l 518 -218 l 518 0 z "},"Ү":{"ha":836,"x_min":5,"x_max":831,"o":"m 318 399 l 5 1013 l 221 1013 l 418 606 l 615 1013 l 831 1013 l 518 399 l 518 0 l 318 0 l 318 399 z "},"Ұ":{"ha":836,"x_min":5,"x_max":831,"o":"m 318 179 l 155 179 l 155 355 l 318 355 l 318 399 l 5 1013 l 221 1013 l 418 606 l 615 1013 l 831 1013 l 518 399 l 518 355 l 681 355 l 681 179 l 518 179 l 518 0 l 318 0 l 318 179 z "},"Ҳ":{"ha":836,"x_min":18,"x_max":818,"o":"m 619 0 l 611 0 l 418 335 l 225 0 l 18 0 l 315 514 l 26 1013 l 233 1013 l 418 690 l 603 1013 l 810 1013 l 522 514 l 716 176 l 818 176 l 818 -218 l 619 -218 l 619 0 z "},"Һ":{"ha":836,"x_min":82,"x_max":778,"o":"m 82 1055 l 279 1055 l 279 604 q 319 656 291 637 l 351 677 q 403 697 369 688 q 489 709 437 705 l 528 711 q 608 703 568 711 q 680 675 648 694 q 723 640 705 661 q 763 554 749 608 q 778 427 778 500 l 778 0 l 581 0 l 581 380 q 557 498 581 463 q 476 531 541 523 q 448 533 460 533 q 352 513 401 533 q 327 501 336 507 q 310 485 317 494 q 287 429 294 464 q 279 353 279 393 l 279 0 l 82 0 l 82 1055 z "},"Ӏ":{"ha":836,"x_min":117,"x_max":720,"o":"m 117 176 l 318 176 l 318 836 l 117 836 l 117 1013 l 720 1013 l 720 836 l 518 836 l 518 176 l 720 176 l 720 0 l 117 0 l 117 176 z "},"Ӂ":{"ha":836,"x_min":9,"x_max":828,"o":"m 418 1076 q 259 1122 317 1076 q 191 1255 201 1167 l 286 1255 q 419 1173 314 1173 q 549 1255 522 1173 l 646 1255 q 577 1122 635 1167 q 418 1076 519 1076 m 184 601 l 9 1013 l 186 1013 l 337 658 l 337 1013 l 500 1013 l 500 658 l 651 1013 l 828 1013 l 653 601 l 828 0 l 659 0 l 552 364 l 500 241 l 500 0 l 337 0 l 337 241 l 285 364 l 178 0 l 9 0 l 184 601 z "},"Ӄ":{"ha":836,"x_min":79,"x_max":819,"o":"m 328 -135 l 420 -135 q 514 -98 489 -135 q 542 29 542 -60 l 542 315 q 518 432 542 400 q 437 465 485 465 l 379 465 l 279 343 l 279 0 l 79 0 l 79 1013 l 279 1013 l 279 612 l 593 1013 l 819 1013 l 526 646 q 642 610 583 646 q 670 591 661 600 q 687 574 680 583 q 727 487 712 541 q 742 361 742 433 l 742 29 q 727 -116 742 -54 q 681 -214 711 -178 q 600 -269 651 -250 q 475 -288 549 -288 l 328 -288 l 328 -135 z "},"Ӈ":{"ha":836,"x_min":93,"x_max":743,"o":"m 329 -135 l 421 -135 q 478 -126 454 -135 q 516 -98 501 -117 q 537 -47 530 -78 q 543 29 543 -16 l 543 450 l 293 450 l 293 0 l 93 0 l 93 1013 l 293 1013 l 293 627 l 543 627 l 543 1013 l 743 1013 l 743 29 q 728 -116 743 -56 q 681 -214 713 -176 q 598 -270 649 -252 q 477 -288 548 -288 l 329 -288 l 329 -135 z "},"Ӌ":{"ha":836,"x_min":64,"x_max":760,"o":"m 364 176 l 563 176 l 563 519 q 523 467 551 486 l 491 446 q 467 435 481 440 q 433 425 452 429 q 394 417 415 420 q 353 414 374 414 l 315 412 q 235 420 275 412 q 162 448 195 429 q 119 484 137 462 q 79 569 94 515 q 64 696 64 623 l 64 1055 l 262 1055 l 262 743 q 286 625 262 661 q 366 592 301 600 q 395 590 381 590 q 490 610 441 590 q 515 622 506 616 q 532 638 525 629 q 555 694 548 659 q 563 770 563 730 l 563 1055 l 760 1055 l 760 0 l 563 0 l 563 -218 l 364 -218 l 364 176 z "},"Ӑ":{"ha":836,"x_min":22,"x_max":814,"o":"m 418 1076 q 259 1121 317 1076 q 191 1255 201 1166 l 286 1255 q 419 1173 314 1173 q 549 1255 522 1173 l 646 1255 q 577 1121 635 1166 q 418 1076 519 1076 m 296 1013 l 541 1013 l 814 0 l 614 0 l 551 250 l 283 250 l 222 0 l 22 0 l 296 1013 m 513 415 l 418 829 l 323 415 l 513 415 z "},"Ӓ":{"ha":836,"x_min":22,"x_max":814,"o":"m 224 1088 q 204 1108 204 1088 l 204 1234 q 224 1255 204 1255 l 344 1255 q 364 1234 364 1255 l 364 1108 q 344 1088 364 1088 l 224 1088 m 492 1088 q 472 1108 472 1088 l 472 1234 q 492 1255 472 1255 l 612 1255 q 632 1234 632 1255 l 632 1108 q 612 1088 632 1088 l 492 1088 m 296 1013 l 541 1013 l 814 0 l 614 0 l 551 250 l 283 250 l 222 0 l 22 0 l 296 1013 m 513 415 l 418 829 l 323 415 l 513 415 z "},"Ӗ":{"ha":836,"x_min":114,"x_max":745,"o":"m 430 1076 q 271 1121 330 1076 q 203 1255 213 1166 l 298 1255 q 431 1173 326 1173 q 561 1255 534 1173 l 658 1255 q 589 1121 648 1166 q 430 1076 531 1076 m 114 1013 l 745 1013 l 745 836 l 314 836 l 314 618 l 704 618 l 704 441 l 314 441 l 314 176 l 745 176 l 745 0 l 114 0 l 114 1013 z "},"Ә":{"ha":836,"x_min":62,"x_max":774,"o":"m 418 -20 q 152 113 242 -20 q 62 505 62 245 l 62 570 l 564 570 l 564 573 q 555 691 564 639 q 526 778 546 743 q 476 832 507 814 q 404 851 446 851 q 309 829 358 851 q 208 760 259 807 l 208 982 q 308 1019 256 1006 q 414 1031 360 1031 q 684 898 594 1031 q 774 507 774 766 q 684 114 774 247 q 418 -20 594 -20 m 419 160 q 477 175 453 160 q 519 219 502 190 q 546 293 536 249 q 562 393 556 336 l 275 393 q 318 217 282 274 q 419 160 353 160 z "},"Ӛ":{"ha":836,"x_min":62,"x_max":774,"o":"m 231 1088 q 211 1108 211 1088 l 211 1234 q 231 1255 211 1255 l 351 1255 q 371 1234 371 1255 l 371 1108 q 351 1088 371 1088 l 231 1088 m 499 1088 q 479 1108 479 1088 l 479 1234 q 499 1255 479 1255 l 618 1255 q 639 1234 639 1255 l 639 1108 q 618 1088 639 1088 l 499 1088 m 418 -20 q 152 113 242 -20 q 62 505 62 245 l 62 570 l 564 570 l 564 573 q 555 691 564 639 q 526 778 546 743 q 476 832 507 814 q 404 851 446 851 q 309 829 358 851 q 208 760 259 807 l 208 982 q 308 1019 256 1006 q 414 1031 360 1031 q 684 898 594 1031 q 774 507 774 766 q 684 114 774 247 q 418 -20 594 -20 m 419 160 q 477 175 453 160 q 519 219 502 190 q 546 293 536 249 q 562 393 556 336 l 275 393 q 318 217 282 274 q 419 160 353 160 z "},"Ӝ":{"ha":836,"x_min":9,"x_max":828,"o":"m 219 1088 q 199 1108 199 1088 l 199 1234 q 219 1255 199 1255 l 338 1255 q 359 1234 359 1255 l 359 1108 q 338 1088 359 1088 l 219 1088 m 487 1088 q 467 1108 467 1088 l 467 1234 q 487 1255 467 1255 l 606 1255 q 627 1234 627 1255 l 627 1108 q 606 1088 627 1088 l 487 1088 m 184 601 l 9 1013 l 186 1013 l 337 658 l 337 1013 l 500 1013 l 500 658 l 651 1013 l 828 1013 l 653 601 l 828 0 l 659 0 l 552 364 l 500 241 l 500 0 l 337 0 l 337 241 l 285 364 l 178 0 l 9 0 l 184 601 z "},"Ӟ":{"ha":836,"x_min":85,"x_max":746,"o":"m 211 1088 q 191 1108 191 1088 l 191 1234 q 211 1255 191 1255 l 330 1255 q 351 1234 351 1255 l 351 1108 q 330 1088 351 1088 l 211 1088 m 479 1088 q 458 1108 458 1088 l 458 1234 q 479 1255 458 1255 l 598 1255 q 618 1234 618 1255 l 618 1108 q 598 1088 618 1088 l 479 1088 m 376 -20 q 227 -7 301 -20 q 85 31 153 6 l 85 216 q 154 187 117 199 q 227 167 191 175 q 299 155 264 159 q 365 151 334 151 q 509 190 463 151 q 554 295 554 228 q 507 410 554 368 q 372 453 460 453 l 265 453 l 265 629 l 372 629 q 488 659 448 629 q 529 744 529 688 q 488 830 529 799 q 369 861 447 861 q 251 847 316 861 q 115 806 185 833 l 115 987 q 253 1020 185 1008 q 384 1031 320 1031 q 527 1013 464 1031 q 633 961 589 995 q 699 879 676 927 q 722 770 722 830 q 671 620 722 677 q 524 546 619 564 q 617 516 576 536 q 687 462 659 495 q 731 383 715 429 q 746 279 746 338 q 652 57 746 134 q 376 -20 558 -20 z "},"Ӡ":{"ha":836,"x_min":7,"x_max":829,"o":"m 417 -19 q 226 2 304 -19 q 99 64 148 24 q 28 164 50 105 q 7 298 7 223 l 222 298 q 237 235 222 261 q 278 192 252 209 q 338 167 304 175 q 412 159 373 159 q 528 183 481 159 q 589 258 574 208 q 593 279 592 269 q 594 299 594 290 q 557 392 594 357 q 442 435 521 426 q 418 437 431 437 q 393 438 406 438 l 220 438 l 220 586 l 472 836 l 88 836 l 88 1013 l 773 1013 l 773 847 l 501 575 q 590 567 550 572 q 662 551 629 562 q 723 519 695 539 q 774 465 750 498 q 816 383 803 426 q 829 286 829 340 q 813 176 829 222 q 767 95 796 129 q 699 39 739 61 q 614 4 660 17 q 518 -14 568 -9 q 417 -19 467 -19 z "},"Ӣ":{"ha":836,"x_min":81,"x_max":754,"o":"m 204 1255 l 632 1255 l 632 1127 l 204 1127 l 204 1255 m 81 1013 l 257 1013 l 257 277 l 539 1013 l 754 1013 l 754 0 l 578 0 l 578 736 l 294 0 l 81 0 l 81 1013 z "},"Ӥ":{"ha":836,"x_min":81,"x_max":754,"o":"m 224 1089 q 204 1109 204 1089 l 204 1236 q 224 1256 204 1256 l 344 1256 q 364 1236 364 1256 l 364 1109 q 344 1089 364 1089 l 224 1089 m 492 1089 q 472 1109 472 1089 l 472 1236 q 492 1256 472 1256 l 612 1256 q 632 1236 632 1256 l 632 1109 q 612 1089 632 1089 l 492 1089 m 81 1013 l 257 1013 l 257 277 l 539 1013 l 754 1013 l 754 0 l 578 0 l 578 736 l 294 0 l 81 0 l 81 1013 z "},"Ӧ":{"ha":836,"x_min":62,"x_max":774,"o":"m 224 1089 q 204 1109 204 1089 l 204 1236 q 224 1256 204 1256 l 344 1256 q 364 1236 364 1256 l 364 1109 q 344 1089 364 1089 l 224 1089 m 492 1089 q 472 1109 472 1089 l 472 1236 q 492 1256 472 1256 l 612 1256 q 632 1236 632 1256 l 632 1109 q 612 1089 632 1089 l 492 1089 m 418 -20 q 152 114 242 -20 q 62 506 62 247 q 152 898 62 765 q 418 1031 242 1031 q 684 898 594 1031 q 774 506 774 766 q 684 113 774 246 q 418 -20 594 -20 m 418 160 q 530 242 495 160 q 566 506 566 323 q 530 769 566 688 q 418 851 495 851 q 351 830 378 851 q 306 769 323 810 q 271 506 271 688 q 306 242 271 323 q 418 160 341 160 z "},"Ө":{"ha":836,"x_min":62,"x_max":774,"o":"m 418 -20 q 152 114 242 -20 q 62 506 62 247 q 152 898 62 765 q 418 1031 242 1031 q 684 898 594 1031 q 774 506 774 766 q 684 113 774 246 q 418 -20 594 -20 m 562 618 q 548 711 557 668 q 524 785 540 753 q 482 833 507 816 q 418 851 456 851 q 354 834 379 851 q 313 786 329 817 q 288 712 297 755 q 275 618 279 669 l 562 618 m 418 160 q 483 178 457 160 q 526 232 509 197 q 552 320 543 268 q 564 441 561 373 l 272 441 q 283 321 275 374 q 310 233 292 269 q 353 179 327 197 q 418 160 380 160 z "},"Ӫ":{"ha":836,"x_min":62,"x_max":774,"o":"m 224 1089 q 204 1109 204 1089 l 204 1236 q 224 1256 204 1256 l 344 1256 q 364 1236 364 1256 l 364 1109 q 344 1089 364 1089 l 224 1089 m 492 1089 q 472 1109 472 1089 l 472 1236 q 492 1256 472 1256 l 612 1256 q 632 1236 632 1256 l 632 1109 q 612 1089 632 1089 l 492 1089 m 418 -20 q 152 114 242 -20 q 62 506 62 247 q 152 898 62 765 q 418 1031 242 1031 q 684 898 594 1031 q 774 506 774 766 q 684 113 774 246 q 418 -20 594 -20 m 562 618 q 548 711 557 668 q 524 785 540 753 q 482 833 507 816 q 418 851 456 851 q 354 834 379 851 q 313 786 329 817 q 288 712 297 755 q 275 618 279 669 l 562 618 m 418 160 q 483 178 457 160 q 526 232 509 197 q 552 320 543 268 q 564 441 561 373 l 272 441 q 283 321 275 374 q 310 233 292 269 q 353 179 327 197 q 418 160 380 160 z "},"Ӭ":{"ha":836,"x_min":120,"x_max":750,"o":"m 194 1089 q 174 1109 174 1089 l 174 1236 q 194 1256 174 1256 l 313 1256 q 334 1236 334 1256 l 334 1109 q 313 1089 334 1089 l 194 1089 m 462 1089 q 441 1109 441 1089 l 441 1236 q 462 1256 441 1256 l 581 1256 q 602 1236 602 1256 l 602 1109 q 581 1089 602 1089 l 462 1089 m 332 -20 q 220 -7 272 -20 q 120 29 168 5 l 120 252 q 326 160 218 160 q 537 417 510 160 l 170 417 l 170 593 l 537 593 q 326 851 509 851 q 120 760 218 851 l 120 982 q 331 1031 212 1031 q 511 997 433 1031 q 642 896 589 962 q 723 731 695 829 q 750 506 750 633 q 723 280 750 378 q 642 115 695 182 q 511 15 589 49 q 332 -20 433 -20 z "},"Ӯ":{"ha":836,"x_min":19,"x_max":817,"o":"m 204 1255 l 632 1255 l 632 1127 l 204 1127 l 204 1255 m 125 176 l 180 176 q 217 177 199 176 q 252 186 235 178 q 283 214 269 195 q 312 269 298 233 l 349 367 l 19 1013 l 226 1013 l 440 592 l 610 1013 l 817 1013 l 493 205 q 396 51 451 101 q 261 0 340 0 l 125 0 l 125 176 z "},"Ӱ":{"ha":836,"x_min":19,"x_max":817,"o":"m 224 1089 q 204 1109 204 1089 l 204 1236 q 224 1256 204 1256 l 344 1256 q 364 1236 364 1256 l 364 1109 q 344 1089 364 1089 l 224 1089 m 492 1089 q 472 1109 472 1089 l 472 1236 q 492 1256 472 1256 l 612 1256 q 632 1236 632 1256 l 632 1109 q 612 1089 632 1089 l 492 1089 m 125 176 l 180 176 q 217 177 199 176 q 252 186 235 178 q 283 214 269 195 q 312 269 298 233 l 349 367 l 19 1013 l 226 1013 l 440 592 l 610 1013 l 817 1013 l 493 205 q 396 51 451 101 q 261 0 340 0 l 125 0 l 125 176 z "},"Ӳ":{"ha":836,"x_min":19,"x_max":817,"o":"m 314 1256 l 507 1256 l 313 1077 l 179 1077 l 314 1256 m 568 1256 l 761 1256 l 567 1077 l 433 1077 l 568 1256 m 125 176 l 180 176 q 217 177 199 176 q 252 186 235 178 q 283 214 269 195 q 312 269 298 233 l 349 367 l 19 1013 l 226 1013 l 440 592 l 610 1013 l 817 1013 l 493 205 q 396 51 451 101 q 261 0 340 0 l 125 0 l 125 176 z "},"Ӵ":{"ha":836,"x_min":62,"x_max":758,"o":"m 218 1103 q 197 1124 197 1103 l 197 1250 q 218 1270 197 1270 l 337 1270 q 357 1250 357 1270 l 357 1124 q 337 1103 357 1103 l 218 1103 m 486 1103 q 465 1124 465 1103 l 465 1250 q 486 1270 465 1270 l 605 1270 q 625 1250 625 1270 l 625 1124 q 605 1103 625 1103 l 486 1103 m 560 519 q 484 439 540 467 q 330 412 428 412 q 206 428 257 412 q 123 479 155 444 q 76 567 91 513 q 62 696 62 621 l 62 1055 l 259 1055 l 259 743 q 271 664 259 694 q 302 618 283 634 q 348 596 322 602 q 401 590 374 590 q 479 602 449 590 q 528 637 510 614 q 553 693 546 660 q 560 770 560 727 l 560 1055 l 758 1055 l 758 0 l 560 0 l 560 519 z "},"Ӷ":{"ha":836,"x_min":123,"x_max":754,"o":"m 323 0 l 123 0 l 123 1013 l 754 1013 l 754 836 l 323 836 l 323 176 l 522 176 l 522 -218 l 323 -218 l 323 0 z "},"Ӹ":{"ha":836,"x_min":27,"x_max":809,"o":"m 252 1089 q 231 1109 231 1089 l 231 1236 q 252 1256 231 1256 l 371 1256 q 391 1236 391 1256 l 391 1109 q 371 1089 391 1089 l 252 1089 m 519 1089 q 499 1109 499 1089 l 499 1236 q 519 1256 499 1256 l 639 1256 q 659 1236 659 1256 l 659 1109 q 639 1089 659 1089 l 519 1089 m 27 1013 l 200 1013 l 200 619 l 207 619 q 364 601 296 619 q 478 545 432 583 q 547 449 524 507 q 570 309 570 390 q 479 75 570 150 q 207 0 388 0 l 27 0 l 27 1013 m 636 1013 l 809 1013 l 809 0 l 636 0 l 636 1013 m 214 160 q 302 168 267 160 q 359 193 338 176 q 389 239 380 211 q 397 309 397 268 q 388 380 397 351 q 357 427 378 410 q 301 452 336 445 q 214 460 266 460 l 200 460 l 200 160 l 214 160 z "},"Ԑ":{"ha":836,"x_min":85,"x_max":746,"o":"m 455 -20 q 179 57 273 -20 q 85 279 85 134 q 143 462 85 396 q 307 546 202 528 q 160 620 212 564 q 109 770 109 677 q 132 879 109 830 q 198 961 155 927 q 304 1013 241 995 q 447 1031 367 1031 q 578 1020 511 1031 q 715 987 646 1008 l 715 806 q 580 847 646 833 q 462 861 515 861 q 343 830 384 861 q 302 744 302 799 q 342 659 302 688 q 458 629 383 629 l 566 629 l 566 453 l 458 453 q 324 410 371 453 q 277 295 277 368 q 288 235 277 261 q 322 190 299 208 q 381 161 345 171 q 466 151 416 151 q 532 155 496 151 q 604 167 567 159 q 677 187 640 175 q 746 216 713 199 l 746 31 q 604 -7 678 6 q 455 -20 530 -20 z "},"Ԛ":{"ha":836,"x_min":62,"x_max":774,"o":"m 445 -16 q 427 -19 433 -18 q 412 -20 422 -20 q 152 114 241 -20 q 62 507 62 247 q 152 899 62 766 q 418 1031 241 1031 q 684 898 594 1031 q 774 506 774 765 q 731 206 774 326 q 607 35 689 86 l 733 -89 l 596 -191 l 445 -16 m 418 160 q 530 242 495 160 q 566 506 566 323 q 530 769 566 688 q 418 851 495 851 q 351 830 378 851 q 306 769 323 810 q 271 506 271 688 q 306 242 271 323 q 418 160 341 160 z "},"Ԝ":{"ha":836,"x_min":0,"x_max":836,"o":"m 0 1013 l 175 1013 l 248 269 l 335 750 l 501 750 l 603 269 l 660 1013 l 836 1013 l 720 0 l 533 0 l 418 532 l 310 0 l 125 0 l 0 1013 z "},"а":{"ha":836,"x_min":64,"x_max":783,"o":"m 335 -20 q 223 -3 273 -20 q 137 49 174 14 q 64 240 64 117 q 85 355 64 305 q 151 437 106 404 q 417 500 237 500 l 555 500 l 555 533 q 546 576 555 558 q 520 606 536 595 q 476 625 503 619 q 414 631 449 631 q 347 626 381 631 q 279 613 313 622 q 212 590 247 604 q 140 555 176 575 l 140 725 q 204 748 168 736 q 273 765 239 759 q 341 774 301 770 q 426 779 381 779 q 512 773 473 779 q 581 758 550 768 q 635 733 612 747 q 676 702 659 719 q 709 660 694 684 q 733 604 723 636 q 747 531 743 572 q 752 437 752 490 q 752 403 752 424 q 751 357 751 382 q 750 305 751 332 q 750 254 750 278 q 749 212 749 231 q 749 186 749 194 q 749 157 749 172 q 750 134 749 143 q 752 107 751 120 q 755 85 753 94 q 760 59 757 71 q 764 39 762 46 q 773 18 768 29 q 783 0 778 7 l 587 0 q 575 21 581 10 q 568 39 570 32 q 563 59 566 46 q 559 85 560 71 q 463 7 522 35 q 404 -13 434 -6 q 335 -20 374 -20 m 391 118 q 459 133 429 118 q 511 178 490 147 q 555 343 555 236 l 555 357 l 475 357 q 320 328 363 357 q 276 232 276 300 q 283 184 276 204 q 307 149 291 164 q 391 118 337 118 z "},"б":{"ha":836,"x_min":58,"x_max":783,"o":"m 431 -20 q 286 8 351 -20 q 175 88 221 36 q 105 214 130 140 q 80 379 80 288 q 80 407 80 397 q 79 421 80 418 l 68 534 q 60 615 62 585 q 58 664 58 646 q 58 680 58 671 q 59 694 58 689 q 77 784 64 736 q 115 878 90 832 q 178 963 140 924 q 271 1029 216 1003 q 330 1050 299 1042 q 397 1064 360 1059 q 480 1073 435 1069 q 585 1080 526 1077 q 605 1082 597 1081 q 619 1084 613 1083 q 631 1087 625 1086 q 644 1093 636 1089 l 718 949 q 689 941 705 944 q 660 937 673 938 l 463 920 q 393 909 420 917 q 347 890 365 901 q 306 859 327 878 q 266 814 284 839 q 233 763 247 790 q 216 709 220 736 q 313 761 259 743 q 430 778 366 778 q 577 750 511 778 q 688 670 642 722 q 759 545 734 618 q 783 379 783 471 q 759 214 783 288 q 688 88 734 140 q 577 8 642 36 q 431 -20 512 -20 m 431 142 q 496 158 467 142 q 544 204 524 174 q 574 279 564 235 q 585 379 585 323 q 574 479 585 435 q 544 553 564 523 q 496 600 524 584 q 431 616 467 616 q 367 600 395 616 q 319 553 339 584 q 289 479 300 523 q 279 379 279 435 q 289 279 279 323 q 319 204 300 235 q 367 158 339 174 q 431 142 395 142 z "},"в":{"ha":836,"x_min":94,"x_max":769,"o":"m 94 760 l 412 760 q 556 748 495 760 q 657 712 618 736 q 716 651 697 688 q 736 561 736 613 q 729 505 736 529 q 708 461 722 480 q 674 430 694 443 q 627 406 653 416 q 733 337 697 387 q 769 216 769 288 q 690 56 769 111 q 445 0 610 0 l 94 0 l 94 760 m 398 473 q 475 477 447 473 q 518 490 504 481 q 537 509 530 496 q 545 538 545 521 q 538 568 545 554 q 518 592 532 583 q 475 606 504 602 q 398 611 447 611 l 292 611 l 292 473 l 398 473 m 406 149 q 531 169 491 149 q 570 237 570 190 q 531 305 570 285 q 406 325 491 325 l 292 325 l 292 149 l 406 149 z "},"г":{"ha":836,"x_min":178,"x_max":720,"o":"m 178 760 l 720 760 l 720 611 l 375 611 l 375 0 l 178 0 l 178 760 z "},"ѓ":{"ha":836,"x_min":178,"x_max":728,"o":"m 537 1111 l 728 1111 l 479 856 l 345 856 l 537 1111 m 178 760 l 720 760 l 720 611 l 375 611 l 375 0 l 178 0 l 178 760 z "},"ґ":{"ha":836,"x_min":191,"x_max":733,"o":"m 191 760 l 591 760 l 591 972 l 733 972 l 733 611 l 389 611 l 389 0 l 191 0 l 191 760 z "},"д":{"ha":836,"x_min":46,"x_max":804,"o":"m 46 149 l 98 149 q 112 156 103 149 q 129 178 121 163 q 136 194 133 184 q 141 218 139 204 q 145 250 144 231 q 146 295 146 269 l 146 760 l 721 760 l 721 149 l 804 149 l 804 -194 l 656 -194 l 656 0 l 195 0 l 195 -194 l 46 -194 l 46 149 m 524 149 l 524 611 l 344 611 l 344 311 q 323 149 344 212 l 524 149 z "},"е":{"ha":836,"x_min":62,"x_max":779,"o":"m 460 -20 q 288 6 362 -20 q 163 82 214 32 q 88 205 113 132 q 62 373 62 278 q 87 542 62 467 q 159 669 112 617 q 273 750 205 722 q 428 778 341 778 q 575 752 510 778 q 686 677 640 726 q 755 558 731 629 q 779 396 779 487 l 779 315 l 264 315 q 473 138 265 138 q 608 157 543 138 q 747 220 674 177 l 747 37 q 607 -5 680 9 q 460 -20 534 -20 m 579 465 q 538 584 578 543 q 427 624 499 624 q 314 583 354 624 q 267 464 275 542 l 579 465 z "},"ѐ":{"ha":836,"x_min":62,"x_max":779,"o":"m 161 1135 l 353 1135 l 545 880 l 411 880 l 161 1135 m 460 -20 q 288 6 362 -20 q 163 82 214 32 q 88 205 113 132 q 62 373 62 278 q 87 542 62 467 q 159 669 112 617 q 273 750 205 722 q 428 778 341 778 q 575 752 510 778 q 686 677 640 726 q 755 558 731 629 q 779 396 779 487 l 779 315 l 264 315 q 473 138 265 138 q 608 157 543 138 q 747 220 674 177 l 747 37 q 607 -5 680 9 q 460 -20 534 -20 m 579 465 q 538 584 578 543 q 427 624 499 624 q 314 583 354 624 q 267 464 275 542 l 579 465 z "},"ё":{"ha":836,"x_min":62,"x_max":779,"o":"m 251 915 q 231 935 231 915 l 231 1061 q 251 1082 231 1082 l 370 1082 q 391 1061 391 1082 l 391 935 q 370 915 391 915 l 251 915 m 519 915 q 498 935 498 915 l 498 1061 q 519 1082 498 1082 l 638 1082 q 659 1061 659 1082 l 659 935 q 638 915 659 915 l 519 915 m 460 -20 q 288 6 362 -20 q 163 82 214 32 q 88 205 113 132 q 62 373 62 278 q 87 542 62 467 q 159 669 112 617 q 273 750 205 722 q 428 778 341 778 q 575 752 510 778 q 686 677 640 726 q 755 558 731 629 q 779 396 779 487 l 779 315 l 264 315 q 473 138 265 138 q 608 157 543 138 q 747 220 674 177 l 747 37 q 607 -5 680 9 q 460 -20 534 -20 m 579 465 q 538 584 578 543 q 427 624 499 624 q 314 583 354 624 q 267 464 275 542 l 579 465 z "},"ж":{"ha":836,"x_min":9,"x_max":827,"o":"m 182 471 l 12 760 l 200 760 l 337 527 l 337 760 l 500 760 l 500 527 l 637 760 l 825 760 l 655 471 l 827 0 l 654 0 l 549 290 l 500 207 l 500 0 l 337 0 l 337 207 l 288 290 l 182 0 l 9 0 l 182 471 z "},"з":{"ha":836,"x_min":112,"x_max":740,"o":"m 354 -15 q 294 -13 322 -15 q 236 -6 265 -11 q 177 8 208 -1 q 112 30 147 16 l 112 190 q 174 163 145 174 q 233 146 203 153 q 295 138 262 140 q 368 136 328 136 q 437 139 406 136 q 492 149 469 141 q 528 173 515 157 q 541 216 541 189 q 526 266 541 247 q 487 295 510 285 q 436 310 463 306 q 385 313 409 313 l 275 313 l 275 462 l 368 462 q 424 466 396 462 q 474 480 452 470 q 509 506 496 490 q 523 546 523 522 q 350 629 523 629 q 137 594 241 629 l 137 745 q 237 767 174 756 q 379 778 300 778 q 526 763 463 778 q 631 719 589 747 q 694 651 673 691 q 715 559 715 610 q 703 491 715 520 q 673 441 692 462 q 633 408 655 421 q 589 389 610 395 q 644 364 616 381 q 692 322 671 347 q 727 265 713 298 q 740 195 740 233 q 713 102 740 142 q 635 37 686 63 q 513 -2 585 11 q 354 -15 442 -15 z "},"и":{"ha":836,"x_min":103,"x_max":740,"o":"m 103 760 l 300 760 l 300 275 l 543 760 l 740 760 l 740 0 l 543 0 l 543 485 l 300 0 l 103 0 l 103 760 z "},"й":{"ha":836,"x_min":103,"x_max":740,"o":"m 418 861 q 253 913 311 861 q 191 1063 195 964 l 286 1063 q 327 990 294 1016 q 418 965 361 965 q 508 990 475 965 q 549 1063 541 1015 l 646 1063 q 583 913 642 964 q 418 861 525 861 m 103 760 l 300 760 l 300 275 l 543 760 l 740 760 l 740 0 l 543 0 l 543 485 l 300 0 l 103 0 l 103 760 z "},"ѝ":{"ha":836,"x_min":103,"x_max":740,"o":"m 161 1116 l 353 1116 l 545 861 l 411 861 l 161 1116 m 103 760 l 300 760 l 300 275 l 543 760 l 740 760 l 740 0 l 543 0 l 543 485 l 300 0 l 103 0 l 103 760 z "},"к":{"ha":836,"x_min":118,"x_max":812,"o":"m 118 760 l 317 760 l 317 501 l 555 760 l 796 760 l 509 476 l 812 0 l 593 0 l 385 355 l 317 290 l 317 0 l 118 0 l 118 760 z "},"ќ":{"ha":836,"x_min":118,"x_max":812,"o":"m 510 1116 l 701 1116 l 452 861 l 318 861 l 510 1116 m 118 760 l 317 760 l 317 501 l 555 760 l 796 760 l 509 476 l 812 0 l 593 0 l 385 355 l 317 290 l 317 0 l 118 0 l 118 760 z "},"л":{"ha":836,"x_min":26,"x_max":745,"o":"m 26 163 l 33 163 q 92 168 68 163 q 129 188 115 173 q 151 229 144 203 q 163 298 159 255 q 166 340 165 317 q 168 386 167 362 q 169 432 169 409 q 170 475 170 454 l 170 760 l 745 760 l 745 0 l 548 0 l 548 611 l 367 611 l 367 477 q 365 372 367 428 q 355 262 363 316 q 333 160 348 208 q 294 78 319 112 q 215 19 263 37 q 91 0 167 0 l 26 0 l 26 163 z "},"м":{"ha":836,"x_min":58,"x_max":777,"o":"m 58 760 l 297 760 l 418 315 l 538 760 l 777 760 l 777 0 l 614 0 l 613 558 l 496 115 l 339 115 l 221 558 l 221 0 l 58 0 l 58 760 z "},"н":{"ha":836,"x_min":117,"x_max":726,"o":"m 117 760 l 314 760 l 314 501 l 529 501 l 529 760 l 726 760 l 726 0 l 529 0 l 529 353 l 314 353 l 314 0 l 117 0 l 117 760 z "},"о":{"ha":836,"x_min":66,"x_max":770,"o":"m 418 -20 q 272 8 337 -20 q 162 88 208 36 q 91 214 116 140 q 66 379 66 288 q 91 545 66 471 q 162 670 116 618 q 272 750 208 722 q 418 778 337 778 q 564 750 498 778 q 674 670 629 722 q 745 545 720 618 q 770 379 770 471 q 745 214 770 288 q 674 88 720 140 q 564 8 629 36 q 418 -20 498 -20 m 418 142 q 482 158 454 142 q 530 204 511 174 q 561 279 550 235 q 571 379 571 323 q 561 479 571 435 q 530 553 550 523 q 482 600 511 584 q 418 616 454 616 q 354 600 382 616 q 306 553 326 584 q 276 479 286 523 q 265 379 265 435 q 276 279 265 323 q 306 204 286 235 q 354 158 326 174 q 418 142 382 142 z "},"п":{"ha":836,"x_min":117,"x_max":726,"o":"m 117 760 l 726 760 l 726 0 l 529 0 l 529 611 l 314 611 l 314 0 l 117 0 l 117 760 z "},"р":{"ha":836,"x_min":102,"x_max":775,"o":"m 102 760 l 280 760 l 300 646 q 380 744 330 710 q 503 778 430 778 q 617 751 567 778 q 703 673 668 724 q 757 548 739 623 q 775 379 775 474 q 756 209 775 283 q 702 83 737 134 q 615 6 666 33 q 500 -20 564 -20 q 387 11 434 -20 q 300 107 339 41 l 300 -289 l 102 -289 l 102 760 m 439 146 q 497 162 471 146 q 540 208 522 178 q 567 282 557 239 q 576 380 576 326 q 567 479 576 435 q 540 553 557 522 q 497 599 522 583 q 439 615 471 615 q 380 599 406 615 q 337 553 355 583 q 309 479 319 522 q 300 380 300 435 q 309 282 300 326 q 337 208 319 239 q 380 162 355 178 q 439 146 406 146 z "},"с":{"ha":836,"x_min":100,"x_max":706,"o":"m 476 -20 q 317 7 387 -20 q 199 86 248 35 q 126 211 151 138 q 100 378 100 285 q 126 547 100 473 q 200 673 152 621 q 318 752 248 724 q 475 779 388 779 q 593 765 537 779 q 706 721 649 751 l 706 539 q 611 596 663 576 q 503 616 559 616 q 354 555 406 616 q 302 378 302 494 q 354 204 302 264 q 505 143 406 143 q 613 163 563 143 q 706 221 663 183 l 706 39 q 476 -20 605 -20 z "},"т":{"ha":836,"x_min":111,"x_max":726,"o":"m 320 611 l 111 611 l 111 760 l 726 760 l 726 611 l 517 611 l 517 0 l 320 0 l 320 611 z "},"у":{"ha":836,"x_min":47,"x_max":804,"o":"m 93 -136 l 174 -136 q 225 -132 203 -136 q 263 -115 247 -127 q 294 -80 280 -102 q 321 -20 307 -57 l 336 21 l 47 760 l 256 760 l 429 267 l 595 760 l 804 760 l 489 -82 q 393 -238 449 -189 q 257 -288 337 -288 l 93 -288 l 93 -136 z "},"ў":{"ha":836,"x_min":47,"x_max":804,"o":"m 425 861 q 260 913 318 861 q 197 1063 201 964 l 293 1063 q 334 990 300 1016 q 425 965 368 965 q 515 990 481 965 q 555 1063 548 1015 l 652 1063 q 590 913 648 964 q 425 861 532 861 m 93 -136 l 174 -136 q 225 -132 203 -136 q 263 -115 247 -127 q 294 -80 280 -102 q 321 -20 307 -57 l 336 21 l 47 760 l 256 760 l 429 267 l 595 760 l 804 760 l 489 -82 q 393 -238 449 -189 q 257 -288 337 -288 l 93 -288 l 93 -136 z "},"ф":{"ha":836,"x_min":54,"x_max":783,"o":"m 336 -20 q 236 14 286 -15 q 145 93 186 43 q 80 216 105 144 q 54 379 54 288 q 80 543 54 471 q 145 665 105 614 q 236 744 186 715 q 336 778 286 772 l 336 1055 l 499 1055 l 499 778 q 601 744 550 772 q 692 665 651 715 q 758 543 732 614 q 783 379 783 471 q 758 216 783 288 q 692 93 732 144 q 601 14 651 43 q 499 -20 550 -15 l 499 -289 l 336 -289 l 336 -20 m 336 616 q 291 594 313 610 q 253 550 269 578 q 227 479 237 521 q 217 379 217 437 q 227 279 217 321 q 253 209 237 237 q 291 164 269 180 q 336 142 313 148 l 336 616 m 499 142 q 546 164 524 148 q 584 209 568 180 q 610 279 600 237 q 620 379 620 321 q 610 479 620 437 q 584 550 600 521 q 546 594 568 578 q 499 616 524 610 l 499 142 z "},"х":{"ha":836,"x_min":37,"x_max":799,"o":"m 318 396 l 60 760 l 292 760 l 418 533 l 545 760 l 777 760 l 521 396 l 799 0 l 567 0 l 418 256 l 269 0 l 37 0 l 318 396 z "},"ч":{"ha":836,"x_min":87,"x_max":712,"o":"m 515 282 l 387 282 q 265 294 320 282 q 171 336 210 306 q 109 418 131 366 q 87 551 87 471 l 87 760 l 290 760 l 290 531 q 296 480 290 500 q 320 449 303 460 q 368 434 338 438 q 443 429 397 429 l 515 429 l 515 760 l 712 760 l 712 0 l 515 0 l 515 282 z "},"ц":{"ha":836,"x_min":110,"x_max":825,"o":"m 677 0 l 110 0 l 110 760 l 307 760 l 307 149 l 522 149 l 522 760 l 720 760 l 720 149 l 825 149 l 825 -194 l 677 -194 l 677 0 z "},"ш":{"ha":836,"x_min":53,"x_max":783,"o":"m 53 760 l 216 760 l 216 149 l 336 149 l 336 760 l 499 760 l 499 149 l 620 149 l 620 760 l 783 760 l 783 0 l 53 0 l 53 760 z "},"щ":{"ha":836,"x_min":48,"x_max":836,"o":"m 688 0 l 48 0 l 48 760 l 211 760 l 211 149 l 332 149 l 332 760 l 494 760 l 494 149 l 615 149 l 615 760 l 778 760 l 778 149 l 836 149 l 836 -194 l 688 -194 l 688 0 z "},"џ":{"ha":836,"x_min":116,"x_max":726,"o":"m 347 0 l 116 0 l 116 760 l 313 760 l 313 149 l 529 149 l 529 760 l 726 760 l 726 0 l 496 0 l 496 -194 l 347 -194 l 347 0 z "},"я":{"ha":836,"x_min":46,"x_max":732,"o":"m 248 331 q 191 365 218 345 q 143 410 163 384 q 110 471 122 437 q 98 549 98 505 q 117 642 98 603 q 179 708 137 682 q 287 747 221 734 q 445 760 353 760 l 732 760 l 732 0 l 535 0 l 535 291 l 453 291 l 276 0 l 46 0 l 248 331 m 535 439 l 535 616 l 418 616 q 367 612 391 616 q 326 596 343 607 q 299 569 309 585 q 289 528 289 552 q 299 488 289 505 q 326 460 309 471 q 367 445 343 450 q 418 439 391 439 l 535 439 z "},"ь":{"ha":836,"x_min":147,"x_max":773,"o":"m 147 760 l 345 760 l 345 473 l 465 473 q 594 459 536 473 q 691 415 651 444 q 752 341 730 386 q 773 237 773 297 q 752 133 773 178 q 691 59 730 88 q 594 15 651 29 q 465 0 536 0 l 147 0 l 147 760 m 428 149 q 539 169 503 149 q 574 237 574 190 q 539 305 574 285 q 428 325 503 325 l 345 325 l 345 149 l 428 149 z "},"ъ":{"ha":836,"x_min":34,"x_max":796,"o":"m 204 607 l 34 607 l 34 760 l 401 760 l 401 473 l 488 473 q 617 459 559 473 q 714 415 674 444 q 775 341 753 386 q 796 237 796 297 q 775 133 796 178 q 714 59 753 88 q 617 15 674 29 q 488 0 559 0 l 204 0 l 204 607 m 451 149 q 562 169 526 149 q 597 237 597 190 q 562 305 597 285 q 451 325 526 325 l 401 325 l 401 149 l 451 149 z "},"ы":{"ha":836,"x_min":21,"x_max":814,"o":"m 21 760 l 218 760 l 218 473 l 233 473 q 362 459 304 473 q 459 415 419 444 q 520 341 498 386 q 541 237 541 297 q 520 133 541 178 q 459 59 498 88 q 362 15 419 29 q 233 0 304 0 l 21 0 l 21 760 m 616 760 l 814 760 l 814 0 l 616 0 l 616 760 m 237 149 q 272 154 254 149 q 307 169 291 159 q 332 197 322 180 q 342 237 342 214 q 332 278 342 261 q 307 305 322 294 q 272 320 291 315 q 237 325 254 325 l 218 325 l 218 149 l 237 149 z "},"љ":{"ha":836,"x_min":7,"x_max":836,"o":"m 7 163 l 14 163 q 73 168 50 163 q 110 188 96 173 q 132 229 125 203 q 144 298 140 255 q 147 340 146 317 q 149 386 148 362 q 150 432 150 409 q 151 475 151 454 l 151 760 l 556 760 l 556 473 l 564 473 q 667 459 617 473 q 754 415 716 444 q 814 341 791 386 q 836 237 836 297 q 814 133 836 178 q 754 59 791 88 q 667 15 716 29 q 564 0 617 0 l 393 0 l 393 611 l 313 611 l 313 477 q 311 372 313 428 q 302 262 309 316 q 280 160 294 208 q 240 78 265 112 q 161 19 210 37 q 37 0 113 0 l 7 0 l 7 163 m 568 149 q 603 154 585 149 q 637 169 622 159 q 663 197 653 180 q 673 237 673 214 q 663 278 673 261 q 637 305 653 294 q 603 320 622 315 q 568 325 585 325 l 556 325 l 556 149 l 568 149 z "},"њ":{"ha":836,"x_min":28,"x_max":836,"o":"m 28 760 l 191 760 l 191 501 l 393 501 l 393 760 l 556 760 l 556 473 l 564 473 q 667 459 617 473 q 754 415 716 444 q 814 341 791 386 q 836 237 836 297 q 814 133 836 178 q 754 59 791 88 q 667 15 716 29 q 564 0 617 0 l 393 0 l 393 353 l 191 353 l 191 0 l 28 0 l 28 760 m 568 149 q 603 154 585 149 q 637 169 622 159 q 663 197 653 180 q 673 237 673 214 q 663 278 673 261 q 637 305 653 294 q 603 320 622 315 q 568 325 585 325 l 556 325 l 556 149 l 568 149 z "},"ѕ":{"ha":836,"x_min":117,"x_max":724,"o":"m 416 -20 q 274 -8 346 -20 q 129 28 203 4 l 129 201 q 262 144 195 164 q 399 125 330 125 q 536 209 536 125 q 530 239 536 228 q 511 261 524 251 q 467 284 495 273 q 390 306 439 295 l 335 318 q 171 397 226 342 q 117 543 117 451 q 196 718 117 657 q 422 778 276 778 q 548 767 484 778 q 672 736 611 757 l 672 562 q 437 633 561 633 q 338 614 372 633 q 304 562 304 594 q 339 508 304 530 q 450 469 373 487 l 457 467 l 514 453 q 672 371 621 427 q 724 217 724 314 q 416 -20 724 -20 z "},"є":{"ha":836,"x_min":97,"x_max":703,"o":"m 473 -20 q 314 7 384 -20 q 196 86 244 35 q 122 211 148 138 q 97 378 97 285 q 123 547 97 473 q 197 673 149 621 q 315 752 245 724 q 472 779 385 779 q 590 765 534 779 q 703 721 646 751 l 703 539 q 608 596 659 576 q 499 616 556 616 q 417 603 451 616 q 361 566 383 589 q 325 516 338 544 q 306 459 312 488 l 585 459 l 585 317 l 302 317 q 321 251 308 283 q 358 195 334 219 q 417 157 382 172 q 502 143 452 143 q 703 221 614 143 l 703 39 q 473 -20 602 -20 z "},"э":{"ha":836,"x_min":131,"x_max":736,"o":"m 361 -20 q 131 39 230 -20 l 131 221 q 224 161 177 181 q 328 142 271 142 q 462 183 409 142 q 531 311 515 224 l 208 311 l 208 459 l 528 459 q 333 616 492 616 q 131 539 220 616 l 131 721 q 362 778 237 778 q 520 751 450 778 q 637 672 589 724 q 711 547 686 621 q 736 379 736 473 q 711 212 736 286 q 638 86 686 138 q 520 8 590 35 q 361 -20 450 -20 z "},"і":{"ha":836,"x_min":125,"x_max":758,"o":"m 299 897 q 279 918 279 897 l 279 1109 q 299 1129 279 1129 l 457 1129 q 477 1109 477 1129 l 477 918 q 457 897 477 897 l 299 897 m 544 -8 q 340 65 402 -8 q 279 309 279 138 l 279 607 l 125 607 l 125 760 l 477 760 l 477 309 q 505 182 477 220 q 600 144 532 144 l 758 144 l 758 -8 l 544 -8 z "},"ї":{"ha":836,"x_min":125,"x_max":758,"o":"m 184 895 q 163 916 163 895 l 163 1042 q 184 1062 163 1062 l 303 1062 q 323 1042 323 1062 l 323 916 q 303 895 323 895 l 184 895 m 452 895 q 431 916 431 895 l 431 1042 q 452 1062 431 1062 l 571 1062 q 591 1042 591 1062 l 591 916 q 571 895 591 895 l 452 895 m 544 -8 q 340 65 402 -8 q 279 309 279 138 l 279 607 l 125 607 l 125 760 l 477 760 l 477 309 q 505 182 477 220 q 600 144 532 144 l 758 144 l 758 -8 l 544 -8 z "},"ј":{"ha":836,"x_min":115,"x_max":595,"o":"m 416 897 q 396 918 396 897 l 396 1109 q 416 1129 396 1129 l 574 1129 q 595 1109 595 1129 l 595 918 q 574 897 595 897 l 416 897 m 115 -135 l 274 -135 q 331 -126 307 -135 q 369 -98 354 -117 q 390 -47 383 -78 q 396 29 396 -16 l 396 607 l 195 607 l 195 760 l 595 760 l 595 29 q 580 -116 595 -56 q 533 -215 566 -176 q 451 -270 501 -253 q 330 -288 401 -288 l 115 -288 l 115 -135 z "},"ћ":{"ha":836,"x_min":27,"x_max":753,"o":"m 143 607 l 27 607 l 27 760 l 143 760 l 143 1055 l 340 1055 l 340 760 l 637 760 l 637 607 l 340 607 l 340 407 q 413 506 362 473 q 537 539 465 539 q 698 468 643 539 q 753 254 753 397 l 753 0 l 555 0 l 555 224 q 533 340 555 304 q 460 376 510 376 q 371 330 402 376 q 340 196 340 284 l 340 0 l 143 0 l 143 607 z "},"ю":{"ha":836,"x_min":68,"x_max":819,"o":"m 547 -20 q 456 2 499 -20 q 381 68 414 24 q 327 176 348 112 q 300 326 305 241 l 231 326 l 231 0 l 68 0 l 68 760 l 231 760 l 231 467 l 303 467 q 336 603 314 543 q 391 702 359 662 q 466 762 424 742 q 559 778 509 781 q 656 748 609 774 q 739 672 703 722 q 797 550 775 623 q 819 381 819 477 q 796 205 819 281 q 734 80 772 130 q 647 5 696 31 q 547 -20 598 -20 m 562 142 q 594 156 576 142 q 625 200 612 171 q 647 275 640 231 q 654 380 654 319 q 646 494 654 451 q 623 564 637 537 q 610 583 617 573 q 594 600 602 592 q 576 612 585 607 q 559 616 568 616 q 527 602 544 616 q 497 564 511 587 q 472 486 479 532 q 465 367 465 440 q 470 276 465 319 q 496 197 475 233 q 530 155 511 168 q 562 142 548 142 z "},"ђ":{"ha":836,"x_min":24,"x_max":785,"o":"m 390 -135 q 484 -100 446 -127 q 545 -32 522 -74 q 578 66 568 10 q 588 189 588 122 q 581 283 588 246 q 561 340 574 319 q 526 369 547 361 q 477 376 505 376 q 369 332 401 376 q 337 196 337 287 l 337 0 l 140 0 l 140 607 l 24 607 l 24 760 l 140 760 l 140 1055 l 337 1055 l 337 760 l 633 760 l 633 607 l 337 607 l 337 407 q 410 505 357 471 q 545 539 462 539 q 642 523 598 539 q 718 467 686 507 q 768 360 750 427 q 785 192 785 293 q 768 22 785 102 q 707 -121 751 -58 q 586 -228 663 -184 q 390 -288 509 -271 l 390 -135 z "},"ѣ":{"ha":836,"x_min":24,"x_max":786,"o":"m 194 644 l 24 644 l 24 797 l 194 797 l 194 1055 l 391 1055 l 391 797 l 664 797 l 664 644 l 391 644 l 391 473 l 477 473 q 607 459 549 473 q 704 415 664 444 q 765 341 743 386 q 786 237 786 297 q 765 133 786 178 q 704 59 743 88 q 607 15 664 29 q 477 0 549 0 l 194 0 l 194 644 m 441 149 q 552 169 516 149 q 587 237 587 190 q 552 305 587 285 q 441 325 516 325 l 391 325 l 391 149 l 441 149 z "},"ѳ":{"ha":836,"x_min":66,"x_max":770,"o":"m 416 -20 q 161 88 257 -20 q 90 214 114 142 q 66 377 66 287 q 91 544 66 470 q 162 670 116 618 q 272 750 208 722 q 418 778 337 778 q 564 750 498 778 q 674 670 629 722 q 745 545 720 618 q 770 379 770 471 q 745 214 770 288 q 674 88 720 140 q 563 8 629 36 q 416 -20 498 -20 m 569 429 q 554 501 565 467 q 526 561 544 535 q 480 602 507 587 q 418 616 454 616 q 355 602 382 616 q 311 561 329 587 q 282 501 292 535 q 267 429 271 467 l 569 429 m 418 142 q 479 156 454 142 q 522 192 505 170 q 549 242 539 214 q 564 297 559 269 l 272 297 q 287 242 277 269 q 314 192 297 214 q 357 156 332 170 q 418 142 382 142 z "},"ғ":{"ha":836,"x_min":110,"x_max":740,"o":"m 198 311 l 110 311 l 110 459 l 198 459 l 198 760 l 740 760 l 740 611 l 395 611 l 395 459 l 640 459 l 640 311 l 395 311 l 395 0 l 198 0 l 198 311 z "},"ҕ":{"ha":836,"x_min":151,"x_max":726,"o":"m 331 -135 l 408 -135 q 464 -126 441 -135 q 502 -98 487 -117 q 523 -47 516 -78 q 529 29 529 -16 l 529 122 q 523 193 529 164 q 505 240 517 222 q 474 267 492 258 q 429 275 455 275 l 348 275 l 348 0 l 151 0 l 151 760 l 692 760 l 692 618 l 348 618 l 348 437 l 509 437 q 672 367 617 437 q 726 153 726 296 l 726 29 q 712 -117 726 -56 q 665 -215 697 -177 q 584 -270 633 -253 q 463 -288 534 -288 l 331 -288 l 331 -135 z "},"җ":{"ha":836,"x_min":9,"x_max":829,"o":"m 681 0 l 654 0 l 549 290 l 500 207 l 500 0 l 337 0 l 337 207 l 288 290 l 182 0 l 9 0 l 182 471 l 12 760 l 200 760 l 337 527 l 337 760 l 500 760 l 500 527 l 637 760 l 825 760 l 655 471 l 773 149 l 829 149 l 829 -194 l 681 -194 l 681 0 z "},"ҙ":{"ha":836,"x_min":104,"x_max":732,"o":"m 732 195 q 712 114 732 149 q 654 53 692 79 q 563 11 616 27 q 441 -11 509 -5 q 473 -51 460 -33 q 494 -87 486 -70 q 505 -119 501 -104 q 508 -151 508 -135 q 467 -241 508 -210 q 338 -272 425 -272 q 272 -268 306 -272 q 201 -254 238 -263 l 201 -149 q 313 -172 263 -172 q 375 -157 353 -172 q 397 -115 397 -141 q 385 -74 397 -98 q 348 -15 374 -50 l 346 -15 q 286 -13 314 -15 q 228 -6 257 -11 q 169 8 199 -1 q 104 30 139 16 l 104 190 q 166 163 137 174 q 225 146 195 153 q 287 138 254 140 q 360 136 319 136 q 429 139 397 136 q 484 149 461 141 q 520 173 507 157 q 533 216 533 189 q 517 266 533 247 q 478 295 502 285 q 428 310 455 306 q 377 313 401 313 l 267 313 l 267 462 l 359 462 q 416 466 388 462 q 466 480 444 470 q 501 506 488 490 q 515 546 515 522 q 342 629 515 629 q 129 594 233 629 l 129 745 q 229 767 165 756 q 371 778 292 778 q 518 763 455 778 q 623 719 581 747 q 686 651 665 691 q 707 559 707 610 q 695 491 707 520 q 665 441 684 462 q 625 408 647 421 q 581 389 602 395 q 635 364 608 381 q 684 322 663 347 q 719 265 705 298 q 732 195 732 233 z "},"қ":{"ha":836,"x_min":118,"x_max":812,"o":"m 616 0 l 593 0 l 385 355 l 317 290 l 317 0 l 118 0 l 118 760 l 317 760 l 317 501 l 555 760 l 796 760 l 509 476 l 722 142 l 812 142 l 812 -194 l 616 -194 l 616 0 z "},"ң":{"ha":836,"x_min":31,"x_max":836,"o":"m 640 0 l 443 0 l 443 359 l 228 359 l 228 0 l 31 0 l 31 760 l 228 760 l 228 501 l 443 501 l 443 760 l 640 760 l 640 142 l 836 142 l 836 -194 l 640 -194 l 640 0 z "},"ҫ":{"ha":836,"x_min":104,"x_max":709,"o":"m 507 616 q 357 555 409 616 q 305 378 305 494 q 357 204 305 264 q 509 143 409 143 q 616 163 566 143 q 709 221 667 183 l 709 39 q 533 -17 631 -7 q 562 -55 551 -37 q 581 -89 574 -73 q 591 -120 588 -105 q 594 -151 594 -136 q 553 -241 594 -210 q 425 -272 511 -272 q 358 -268 392 -272 q 288 -254 324 -263 l 288 -149 q 399 -172 349 -172 q 461 -157 439 -172 q 483 -115 483 -141 q 472 -75 483 -98 q 437 -18 460 -52 q 296 18 357 -12 q 191 99 234 48 q 126 220 149 150 q 104 378 104 291 q 130 547 104 473 q 203 673 155 621 q 321 752 252 724 q 479 779 391 779 q 596 765 541 779 q 709 721 652 751 l 709 539 q 614 596 666 576 q 507 616 562 616 z "},"ҭ":{"ha":836,"x_min":111,"x_max":726,"o":"m 517 0 l 320 0 l 320 618 l 111 618 l 111 760 l 726 760 l 726 618 l 517 618 l 517 142 l 713 142 l 713 -194 l 517 -194 l 517 0 z "},"ү":{"ha":836,"x_min":39,"x_max":797,"o":"m 319 21 l 39 760 l 248 760 l 418 267 l 588 760 l 797 760 l 516 21 l 516 -289 l 319 -289 l 319 21 z "},"ұ":{"ha":836,"x_min":39,"x_max":797,"o":"m 319 -170 l 184 -170 l 184 -21 l 319 -21 l 319 21 l 39 760 l 248 760 l 418 267 l 588 760 l 797 760 l 516 21 l 516 -21 l 652 -21 l 652 -170 l 516 -170 l 516 -289 l 319 -289 l 319 -170 z "},"ҳ":{"ha":836,"x_min":37,"x_max":799,"o":"m 603 0 l 567 0 l 418 256 l 269 0 l 37 0 l 318 396 l 60 760 l 292 760 l 418 533 l 545 760 l 777 760 l 521 396 l 699 142 l 799 142 l 799 -194 l 603 -194 l 603 0 z "},"һ":{"ha":836,"x_min":117,"x_max":726,"o":"m 117 1055 l 314 1055 l 314 646 q 387 745 336 711 q 511 778 438 778 q 671 707 616 778 q 726 493 726 636 l 726 0 l 529 0 l 529 463 q 506 579 529 543 q 433 615 484 615 q 344 568 374 615 q 314 435 314 521 l 314 0 l 117 0 l 117 1055 z "},"ӏ":{"ha":836,"x_min":262,"x_max":461,"o":"m 262 1055 l 461 1055 l 461 0 l 262 0 l 262 1055 z "},"ӂ":{"ha":836,"x_min":9,"x_max":827,"o":"m 418 861 q 253 913 311 861 q 191 1063 195 964 l 286 1063 q 327 990 294 1016 q 418 965 361 965 q 508 990 475 965 q 549 1063 541 1015 l 646 1063 q 583 913 642 964 q 418 861 525 861 m 182 471 l 12 760 l 200 760 l 337 527 l 337 760 l 500 760 l 500 527 l 637 760 l 825 760 l 655 471 l 827 0 l 654 0 l 549 290 l 500 207 l 500 0 l 337 0 l 337 207 l 288 290 l 182 0 l 9 0 l 182 471 z "},"ӄ":{"ha":836,"x_min":118,"x_max":796,"o":"m 300 -135 l 376 -135 q 433 -126 410 -135 q 470 -98 456 -117 q 491 -47 485 -78 q 498 29 498 -16 l 498 122 q 492 193 498 164 q 473 240 486 222 q 443 267 461 258 q 398 275 424 275 l 317 275 l 317 0 l 118 0 l 118 760 l 317 760 l 317 501 l 555 760 l 796 760 l 469 437 l 477 437 q 641 367 586 437 q 695 153 695 296 l 695 29 q 681 -117 695 -56 q 634 -215 666 -177 q 552 -270 602 -253 q 432 -288 503 -288 l 300 -288 l 300 -135 z "},"ӈ":{"ha":836,"x_min":117,"x_max":726,"o":"m 330 -135 l 407 -135 q 464 -126 440 -135 q 502 -98 487 -117 q 523 -47 516 -78 q 529 29 529 -16 l 529 359 l 314 359 l 314 0 l 117 0 l 117 760 l 314 760 l 314 501 l 529 501 l 529 760 l 726 760 l 726 29 q 712 -117 726 -56 q 665 -215 697 -177 q 584 -270 633 -253 q 463 -288 534 -288 l 330 -288 l 330 -135 z "},"ӌ":{"ha":836,"x_min":88,"x_max":713,"o":"m 321 142 l 517 142 l 517 282 l 444 282 q 183 351 288 282 l 180 353 q 88 551 88 414 l 88 760 l 291 760 l 291 531 q 315 467 291 490 q 321 462 317 465 q 329 456 324 459 q 444 429 366 429 l 517 429 l 517 760 l 713 760 l 713 0 l 517 0 l 517 -194 l 321 -194 l 321 142 z "},"ӑ":{"ha":836,"x_min":64,"x_max":783,"o":"m 418 861 q 253 913 311 861 q 191 1063 195 964 l 286 1063 q 327 990 294 1016 q 418 965 361 965 q 508 990 475 965 q 549 1063 541 1015 l 646 1063 q 583 913 642 964 q 418 861 525 861 m 335 -20 q 223 -3 273 -20 q 137 49 174 14 q 64 240 64 117 q 85 355 64 305 q 151 437 106 404 q 417 500 237 500 l 555 500 l 555 533 q 546 576 555 558 q 520 606 536 595 q 476 625 503 619 q 414 631 449 631 q 347 626 381 631 q 279 613 313 622 q 212 590 247 604 q 140 555 176 575 l 140 725 q 204 748 168 736 q 273 765 239 759 q 341 774 301 770 q 426 779 381 779 q 512 773 473 779 q 581 758 550 768 q 635 733 612 747 q 676 702 659 719 q 709 660 694 684 q 733 604 723 636 q 747 531 743 572 q 752 437 752 490 q 752 403 752 424 q 751 357 751 382 q 750 305 751 332 q 750 254 750 278 q 749 212 749 231 q 749 186 749 194 q 749 157 749 172 q 750 134 749 143 q 752 107 751 120 q 755 85 753 94 q 760 59 757 71 q 764 39 762 46 q 773 18 768 29 q 783 0 778 7 l 587 0 q 575 21 581 10 q 568 39 570 32 q 563 59 566 46 q 559 85 560 71 q 463 7 522 35 q 404 -13 434 -6 q 335 -20 374 -20 m 391 118 q 459 133 429 118 q 511 178 490 147 q 555 343 555 236 l 555 357 l 475 357 q 320 328 363 357 q 276 232 276 300 q 283 184 276 204 q 307 149 291 164 q 391 118 337 118 z "},"ӓ":{"ha":836,"x_min":64,"x_max":783,"o":"m 224 913 q 204 934 204 913 l 204 1060 q 224 1080 204 1080 l 344 1080 q 364 1060 364 1080 l 364 934 q 344 913 364 913 l 224 913 m 492 913 q 472 934 472 913 l 472 1060 q 492 1080 472 1080 l 612 1080 q 632 1060 632 1080 l 632 934 q 612 913 632 913 l 492 913 m 335 -20 q 223 -3 273 -20 q 137 49 174 14 q 64 240 64 117 q 85 355 64 305 q 151 437 106 404 q 417 500 237 500 l 555 500 l 555 533 q 546 576 555 558 q 520 606 536 595 q 476 625 503 619 q 414 631 449 631 q 347 626 381 631 q 279 613 313 622 q 212 590 247 604 q 140 555 176 575 l 140 725 q 204 748 168 736 q 273 765 239 759 q 341 774 301 770 q 426 779 381 779 q 512 773 473 779 q 581 758 550 768 q 635 733 612 747 q 676 702 659 719 q 709 660 694 684 q 733 604 723 636 q 747 531 743 572 q 752 437 752 490 q 752 403 752 424 q 751 357 751 382 q 750 305 751 332 q 750 254 750 278 q 749 212 749 231 q 749 186 749 194 q 749 157 749 172 q 750 134 749 143 q 752 107 751 120 q 755 85 753 94 q 760 59 757 71 q 764 39 762 46 q 773 18 768 29 q 783 0 778 7 l 587 0 q 575 21 581 10 q 568 39 570 32 q 563 59 566 46 q 559 85 560 71 q 463 7 522 35 q 404 -13 434 -6 q 335 -20 374 -20 m 391 118 q 459 133 429 118 q 511 178 490 147 q 555 343 555 236 l 555 357 l 475 357 q 320 328 363 357 q 276 232 276 300 q 283 184 276 204 q 307 149 291 164 q 391 118 337 118 z "},"ӗ":{"ha":836,"x_min":62,"x_max":779,"o":"m 427 880 q 262 931 321 880 q 200 1081 204 983 l 296 1081 q 337 1009 303 1034 q 427 983 370 983 q 517 1008 484 983 q 558 1081 551 1034 l 655 1081 q 593 931 651 983 q 427 880 534 880 m 460 -20 q 288 6 362 -20 q 163 82 214 32 q 88 205 113 132 q 62 373 62 278 q 87 542 62 467 q 159 669 112 617 q 273 750 205 722 q 428 778 341 778 q 575 752 510 778 q 686 677 640 726 q 755 558 731 629 q 779 396 779 487 l 779 315 l 264 315 q 473 138 265 138 q 608 157 543 138 q 747 220 674 177 l 747 37 q 607 -5 680 9 q 460 -20 534 -20 m 579 465 q 538 584 578 543 q 427 624 499 624 q 314 583 354 624 q 267 464 275 542 l 579 465 z "},"ә":{"ha":836,"x_min":69,"x_max":786,"o":"m 420 -20 q 273 6 338 -20 q 163 81 208 32 q 93 200 117 130 q 69 362 69 271 l 69 443 l 584 443 l 584 450 q 531 580 583 539 q 377 621 479 621 q 240 601 306 621 q 101 538 174 581 l 101 721 q 241 764 169 749 q 388 778 314 778 q 561 752 486 778 q 685 676 635 726 q 761 553 735 626 q 786 385 786 479 q 761 216 786 291 q 690 89 736 141 q 575 8 643 36 q 420 -20 507 -20 m 421 134 q 534 175 494 134 q 582 294 574 216 l 269 294 q 310 175 271 216 q 421 134 349 134 z "},"ӛ":{"ha":836,"x_min":69,"x_max":786,"o":"m 231 913 q 211 934 211 913 l 211 1060 q 231 1080 211 1080 l 351 1080 q 371 1060 371 1080 l 371 934 q 351 913 371 913 l 231 913 m 499 913 q 479 934 479 913 l 479 1060 q 499 1080 479 1080 l 618 1080 q 639 1060 639 1080 l 639 934 q 618 913 639 913 l 499 913 m 420 -20 q 273 6 338 -20 q 163 81 208 32 q 93 200 117 130 q 69 362 69 271 l 69 443 l 584 443 l 584 450 q 531 580 583 539 q 377 621 479 621 q 240 601 306 621 q 101 538 174 581 l 101 721 q 241 764 169 749 q 388 778 314 778 q 561 752 486 778 q 685 676 635 726 q 761 553 735 626 q 786 385 786 479 q 761 216 786 291 q 690 89 736 141 q 575 8 643 36 q 420 -20 507 -20 m 421 134 q 534 175 494 134 q 582 294 574 216 l 269 294 q 310 175 271 216 q 421 134 349 134 z "},"ӝ":{"ha":836,"x_min":9,"x_max":827,"o":"m 224 895 q 203 916 203 895 l 203 1042 q 224 1062 203 1062 l 343 1062 q 363 1042 363 1062 l 363 916 q 343 895 363 895 l 224 895 m 492 895 q 471 916 471 895 l 471 1042 q 492 1062 471 1062 l 611 1062 q 631 1042 631 1062 l 631 916 q 611 895 631 895 l 492 895 m 182 471 l 12 760 l 200 760 l 337 527 l 337 760 l 500 760 l 500 527 l 637 760 l 825 760 l 655 471 l 827 0 l 654 0 l 549 290 l 500 207 l 500 0 l 337 0 l 337 207 l 288 290 l 182 0 l 9 0 l 182 471 z "},"ӟ":{"ha":836,"x_min":104,"x_max":732,"o":"m 216 913 q 196 934 196 913 l 196 1060 q 216 1080 196 1080 l 336 1080 q 356 1060 356 1080 l 356 934 q 336 913 356 913 l 216 913 m 484 913 q 464 934 464 913 l 464 1060 q 484 1080 464 1080 l 604 1080 q 624 1060 624 1080 l 624 934 q 604 913 624 913 l 484 913 m 346 -15 q 286 -13 314 -15 q 228 -6 257 -11 q 169 8 199 -1 q 104 30 139 16 l 104 190 q 166 163 137 174 q 225 146 195 153 q 287 138 254 140 q 360 136 319 136 q 429 139 397 136 q 484 149 461 141 q 520 173 507 157 q 533 216 533 189 q 517 266 533 247 q 478 295 502 285 q 428 310 455 306 q 377 313 401 313 l 267 313 l 267 462 l 359 462 q 416 466 388 462 q 466 480 444 470 q 501 506 488 490 q 515 546 515 522 q 342 629 515 629 q 129 594 233 629 l 129 745 q 229 767 165 756 q 371 778 292 778 q 518 763 455 778 q 623 719 581 747 q 686 651 665 691 q 707 559 707 610 q 695 491 707 520 q 665 441 684 462 q 625 408 647 421 q 581 389 602 395 q 635 364 608 381 q 684 322 663 347 q 719 265 705 298 q 732 195 732 233 q 705 102 732 142 q 627 37 677 63 q 505 -2 576 11 q 346 -15 434 -15 z "},"ӡ":{"ha":836,"x_min":75,"x_max":762,"o":"m 360 -298 q 215 -286 284 -298 q 75 -248 146 -274 l 75 -47 q 336 -121 207 -121 q 477 -85 429 -121 q 526 19 526 -49 q 476 123 526 87 q 325 159 425 159 l 211 159 l 211 307 l 475 611 l 92 611 l 92 760 l 699 760 l 699 604 l 433 296 q 518 289 479 293 q 593 272 558 284 q 657 237 627 260 q 713 175 688 214 q 750 98 738 138 q 762 9 762 58 q 735 -124 762 -66 q 657 -220 709 -181 q 531 -279 606 -259 q 360 -298 456 -298 z "},"ӣ":{"ha":836,"x_min":103,"x_max":740,"o":"m 204 1023 l 632 1023 l 632 895 l 204 895 l 204 1023 m 103 760 l 300 760 l 300 275 l 543 760 l 740 760 l 740 0 l 543 0 l 543 485 l 300 0 l 103 0 l 103 760 z "},"ӥ":{"ha":836,"x_min":103,"x_max":740,"o":"m 224 895 q 204 916 204 895 l 204 1042 q 224 1062 204 1062 l 344 1062 q 364 1042 364 1062 l 364 916 q 344 895 364 895 l 224 895 m 492 895 q 472 916 472 895 l 472 1042 q 492 1062 472 1062 l 612 1062 q 632 1042 632 1062 l 632 916 q 612 895 632 895 l 492 895 m 103 760 l 300 760 l 300 275 l 543 760 l 740 760 l 740 0 l 543 0 l 543 485 l 300 0 l 103 0 l 103 760 z "},"ӧ":{"ha":836,"x_min":66,"x_max":770,"o":"m 224 913 q 204 934 204 913 l 204 1060 q 224 1080 204 1080 l 344 1080 q 364 1060 364 1080 l 364 934 q 344 913 364 913 l 224 913 m 492 913 q 472 934 472 913 l 472 1060 q 492 1080 472 1080 l 612 1080 q 632 1060 632 1080 l 632 934 q 612 913 632 913 l 492 913 m 418 -20 q 272 8 337 -20 q 162 88 208 36 q 91 214 116 140 q 66 379 66 288 q 91 545 66 471 q 162 670 116 618 q 272 750 208 722 q 418 778 337 778 q 564 750 498 778 q 674 670 629 722 q 745 545 720 618 q 770 379 770 471 q 745 214 770 288 q 674 88 720 140 q 564 8 629 36 q 418 -20 498 -20 m 418 142 q 482 158 454 142 q 530 204 511 174 q 561 279 550 235 q 571 379 571 323 q 561 479 571 435 q 530 553 550 523 q 482 600 511 584 q 418 616 454 616 q 354 600 382 616 q 306 553 326 584 q 276 479 286 523 q 265 379 265 435 q 276 279 265 323 q 306 204 286 235 q 354 158 326 174 q 418 142 382 142 z "},"ө":{"ha":836,"x_min":66,"x_max":770,"o":"m 416 -20 q 161 88 257 -20 q 90 214 114 142 q 66 377 66 287 q 91 544 66 470 q 162 670 116 618 q 272 750 208 722 q 418 778 337 778 q 564 750 498 778 q 674 670 629 722 q 745 545 720 618 q 770 379 770 471 q 745 214 770 288 q 674 88 720 140 q 563 8 629 36 q 416 -20 498 -20 m 569 429 q 554 501 565 467 q 526 561 544 535 q 480 602 507 587 q 418 616 454 616 q 355 602 382 616 q 311 561 329 587 q 282 501 292 535 q 267 429 271 467 l 569 429 m 418 142 q 479 156 454 142 q 522 192 505 170 q 549 242 539 214 q 564 297 559 269 l 272 297 q 287 242 277 269 q 314 192 297 214 q 357 156 332 170 q 418 142 382 142 z "},"ӫ":{"ha":836,"x_min":66,"x_max":770,"o":"m 224 913 q 204 934 204 913 l 204 1060 q 224 1080 204 1080 l 344 1080 q 364 1060 364 1080 l 364 934 q 344 913 364 913 l 224 913 m 492 913 q 472 934 472 913 l 472 1060 q 492 1080 472 1080 l 612 1080 q 632 1060 632 1080 l 632 934 q 612 913 632 913 l 492 913 m 416 -20 q 161 88 257 -20 q 90 214 114 142 q 66 377 66 287 q 91 544 66 470 q 162 670 116 618 q 272 750 208 722 q 418 778 337 778 q 564 750 498 778 q 674 670 629 722 q 745 545 720 618 q 770 379 770 471 q 745 214 770 288 q 674 88 720 140 q 563 8 629 36 q 416 -20 498 -20 m 569 429 q 554 501 565 467 q 526 561 544 535 q 480 602 507 587 q 418 616 454 616 q 355 602 382 616 q 311 561 329 587 q 282 501 292 535 q 267 429 271 467 l 569 429 m 418 142 q 479 156 454 142 q 522 192 505 170 q 549 242 539 214 q 564 297 559 269 l 272 297 q 287 242 277 269 q 314 192 297 214 q 357 156 332 170 q 418 142 382 142 z "},"ӭ":{"ha":836,"x_min":134,"x_max":740,"o":"m 203 913 q 182 934 182 913 l 182 1060 q 203 1080 182 1080 l 322 1080 q 342 1060 342 1080 l 342 934 q 322 913 342 913 l 203 913 m 471 913 q 450 934 450 913 l 450 1060 q 471 1080 450 1080 l 590 1080 q 610 1060 610 1080 l 610 934 q 590 913 610 913 l 471 913 m 364 -20 q 134 39 233 -20 l 134 221 q 228 161 180 181 q 332 142 275 142 q 466 183 412 142 q 534 311 519 224 l 211 311 l 211 459 l 531 459 q 336 616 496 616 q 134 539 224 616 l 134 721 q 241 764 187 749 q 359 778 296 778 q 517 751 447 778 q 637 672 588 724 q 713 547 687 621 q 740 379 740 473 q 715 212 740 286 q 642 86 690 138 q 524 8 593 35 q 364 -20 454 -20 z "},"ӯ":{"ha":836,"x_min":40,"x_max":798,"o":"m 204 1023 l 632 1023 l 632 895 l 204 895 l 204 1023 m 86 -136 l 167 -136 q 218 -132 197 -136 q 257 -115 240 -127 q 287 -80 273 -102 q 314 -20 300 -57 l 329 21 l 40 760 l 249 760 l 422 267 l 589 760 l 798 760 l 482 -82 q 386 -238 442 -189 q 250 -288 330 -288 l 86 -288 l 86 -136 z "},"ӱ":{"ha":836,"x_min":40,"x_max":798,"o":"m 224 895 q 204 916 204 895 l 204 1042 q 224 1062 204 1062 l 344 1062 q 364 1042 364 1062 l 364 916 q 344 895 364 895 l 224 895 m 492 895 q 472 916 472 895 l 472 1042 q 492 1062 472 1062 l 612 1062 q 632 1042 632 1062 l 632 916 q 612 895 632 895 l 492 895 m 86 -136 l 167 -136 q 218 -132 197 -136 q 257 -115 240 -127 q 287 -80 273 -102 q 314 -20 300 -57 l 329 21 l 40 760 l 249 760 l 422 267 l 589 760 l 798 760 l 482 -82 q 386 -238 442 -189 q 250 -288 330 -288 l 86 -288 l 86 -136 z "},"ӳ":{"ha":836,"x_min":40,"x_max":798,"o":"m 334 1116 l 481 1116 l 313 861 l 201 861 l 334 1116 m 579 1116 l 736 1116 l 551 861 l 433 861 l 579 1116 m 86 -136 l 167 -136 q 218 -132 197 -136 q 257 -115 240 -127 q 287 -80 273 -102 q 314 -20 300 -57 l 329 21 l 40 760 l 249 760 l 422 267 l 589 760 l 798 760 l 482 -82 q 386 -238 442 -189 q 250 -288 330 -288 l 86 -288 l 86 -136 z "},"ӵ":{"ha":836,"x_min":83,"x_max":709,"o":"m 214 896 q 194 916 194 896 l 194 1042 q 214 1063 194 1063 l 334 1063 q 354 1042 354 1063 l 354 916 q 334 896 354 896 l 214 896 m 482 896 q 462 916 462 896 l 462 1042 q 482 1063 462 1063 l 602 1063 q 622 1042 622 1063 l 622 916 q 602 896 622 896 l 482 896 m 512 282 l 383 282 q 262 294 317 282 q 167 336 207 306 q 105 418 127 366 q 83 551 83 471 l 83 760 l 286 760 l 286 531 q 293 480 286 500 q 317 449 300 460 q 364 434 334 438 q 439 429 394 429 l 512 429 l 512 760 l 709 760 l 709 0 l 512 0 l 512 282 z "},"ӷ":{"ha":836,"x_min":157,"x_max":699,"o":"m 355 0 l 157 0 l 157 760 l 699 760 l 699 618 l 355 618 l 355 142 l 551 142 l 551 -194 l 355 -194 l 355 0 z "},"ӹ":{"ha":836,"x_min":21,"x_max":814,"o":"m 224 895 q 204 916 204 895 l 204 1042 q 224 1062 204 1062 l 344 1062 q 364 1042 364 1062 l 364 916 q 344 895 364 895 l 224 895 m 492 895 q 472 916 472 895 l 472 1042 q 492 1062 472 1062 l 612 1062 q 632 1042 632 1062 l 632 916 q 612 895 632 895 l 492 895 m 21 760 l 218 760 l 218 473 l 233 473 q 362 459 304 473 q 459 415 419 444 q 520 341 498 386 q 541 237 541 297 q 520 133 541 178 q 459 59 498 88 q 362 15 419 29 q 233 0 304 0 l 21 0 l 21 760 m 616 760 l 814 760 l 814 0 l 616 0 l 616 760 m 237 149 q 272 154 254 149 q 307 169 291 159 q 332 197 322 180 q 342 237 342 214 q 332 278 342 261 q 307 305 322 294 q 272 320 291 315 q 237 325 254 325 l 218 325 l 218 149 l 237 149 z "},"ԑ":{"ha":836,"x_min":101,"x_max":709,"o":"m 456 -15 q 190 43 279 -15 q 101 210 101 100 q 154 344 101 294 q 313 410 208 395 q 171 466 218 423 q 123 578 123 509 q 144 660 123 623 q 208 721 165 696 q 314 760 250 746 q 463 773 378 773 q 515 771 492 773 q 563 766 538 770 q 615 756 587 762 q 680 741 643 749 l 680 595 q 614 614 644 606 q 558 627 584 622 q 509 634 532 632 q 465 636 486 636 q 347 613 387 636 q 307 557 307 591 q 346 503 307 524 q 456 481 385 481 l 558 481 l 558 330 l 456 330 q 382 321 414 330 q 329 298 351 313 q 295 263 307 283 q 283 220 283 243 q 294 182 283 200 q 328 151 304 164 q 389 130 351 138 q 484 123 427 123 q 536 125 511 123 q 587 133 561 127 q 643 148 614 138 q 709 172 673 157 l 709 23 q 629 3 665 11 q 563 -8 593 -4 q 506 -14 532 -12 q 456 -15 480 -15 z "}}}
